<svg width="14" height="14" viewBox="0 0 14 14" fill="none" xmlns="http://www.w3.org/2000/svg">
<circle cx="7" cy="7" r="6.75" stroke="#8F8F8F" stroke-width="0.5"/>
<path d="M6.584 8.872V8.504C6.584 8.37067 6.59467 8.25333 6.616 8.152C6.63733 8.04533 6.67467 7.94133 6.728 7.84C6.78667 7.73867 6.864 7.632 6.96 7.52C7.056 7.408 7.176 7.28 7.32 7.136C7.464 6.992 7.584 6.872 7.68 6.776C7.78133 6.67467 7.86133 6.584 7.92 6.504C7.984 6.41867 8.02933 6.33333 8.056 6.248C8.08267 6.15733 8.096 6.048 8.096 5.92V5.816C8.096 5.61333 8.01867 5.43733 7.864 5.288C7.71467 5.13333 7.47467 5.056 7.144 5.056C6.88267 5.056 6.64267 5.10933 6.424 5.216C6.21067 5.31733 6.01867 5.456 5.848 5.632L5.368 5.08C5.576 4.856 5.82133 4.68 6.104 4.552C6.392 4.41867 6.73333 4.352 7.128 4.352C7.688 4.352 8.12267 4.48533 8.432 4.752C8.74133 5.01867 8.896 5.37067 8.896 5.808V5.92C8.896 6.11733 8.86667 6.29067 8.808 6.44C8.75467 6.58933 8.68 6.728 8.584 6.856C8.49333 6.984 8.38667 7.104 8.264 7.216C8.14667 7.328 8.02667 7.44267 7.904 7.56C7.81333 7.64533 7.736 7.72533 7.672 7.8C7.61333 7.86933 7.56267 7.94133 7.52 8.016C7.47733 8.09067 7.44533 8.17067 7.424 8.256C7.408 8.336 7.4 8.42667 7.4 8.528V8.872H6.584ZM6.544 9.616H7.456V10.536H6.544V9.616Z" fill="#8F8F8F"/>
</svg>
