<svg width="68" height="32" viewBox="0 0 68 32" fill="none" xmlns="http://www.w3.org/2000/svg">
<rect width="68" height="32" fill="white"/>
<g clip-path="url(#clip0)">
<path d="M2 21.2671L6.18641 13.0207L2 6.36328V21.2671Z" fill="#0A1C21"/>
<path d="M3.89844 29.4002L14.2822 19.8975L7.64385 22.744L3.89844 29.4002Z" fill="#143441"/>
<path d="M12.0768 3L2.08984 22.2256L8.58934 18.9476L14.2105 12.1826L12.0768 3Z" fill="#143441"/>
<path d="M8.58544 18.9473L2.08594 22.2253L7.64448 22.7435L14.2828 19.8969L8.58544 18.9473Z" fill="#0A1C21"/>
<path d="M19.7227 20.514L26.6312 12.2885H19.9831V9.60938H30.1592V11.8949L23.5872 20.1242H30.2341V22.7996H19.7227V20.514Z" fill="#143441"/>
<path d="M34.6741 22.9865C34.2133 22.9905 33.7556 22.9119 33.3229 22.7542C32.9249 22.6111 32.5598 22.39 32.2492 22.104C31.95 21.8251 31.7088 21.4904 31.5392 21.1189C31.3627 20.7313 31.2734 20.31 31.2776 19.8845C31.2718 19.4262 31.3776 18.9733 31.5859 18.5645C31.7955 18.1639 32.0922 17.8148 32.4544 17.5427C32.8538 17.245 33.3024 17.0187 33.7798 16.8741C34.3303 16.7068 34.9032 16.6244 35.4787 16.6297C35.8793 16.629 36.2792 16.6629 36.674 16.7311C37.0224 16.7882 37.3615 16.8914 37.6825 17.0379V16.5918C37.6825 15.4649 37.0273 14.9015 35.717 14.9015C35.1948 14.8995 34.6764 14.9906 34.1864 15.1703C33.6455 15.379 33.1313 15.6506 32.6546 15.9795L31.7812 14.1229C32.4044 13.7131 33.0832 13.3937 33.797 13.1745C34.5202 12.9611 35.2711 12.8557 36.0254 12.8616C37.5068 12.8616 38.6533 13.2083 39.4649 13.9017C40.2765 14.5951 40.681 15.6107 40.6786 16.9487V19.4567C40.6786 19.7541 40.7252 19.9615 40.8186 20.0788C40.882 20.1453 40.9582 20.1984 41.0425 20.2351C41.1269 20.2719 41.2179 20.2914 41.31 20.2927V22.8007C41.0766 22.8587 40.8393 22.8995 40.5999 22.9229C40.3887 22.9412 40.1958 22.951 40.0214 22.951C39.4612 22.951 39.0378 22.8426 38.7512 22.6259C38.459 22.3995 38.2655 22.07 38.2107 21.7056L38.1542 21.2595C37.7395 21.7994 37.2063 22.2379 36.5953 22.5416C35.9987 22.8372 35.3407 22.9895 34.6741 22.9865ZM35.5524 20.8451C35.8744 20.8452 36.1938 20.7885 36.4958 20.6777C36.776 20.5823 37.0338 20.4313 37.2538 20.234C37.5404 20.0116 37.6837 19.7765 37.6837 19.5288V18.5999C37.4082 18.4966 37.1236 18.4188 36.8336 18.3677C36.5539 18.3138 36.2698 18.2856 35.9848 18.2833C35.5071 18.2634 35.0349 18.3915 34.6336 18.65C34.4678 18.7528 34.3314 18.8963 34.2374 19.0667C34.1434 19.237 34.095 19.4286 34.0968 19.6229C34.0926 19.7914 34.1274 19.9587 34.1986 20.1117C34.2697 20.2647 34.3753 20.3994 34.507 20.5053C34.803 20.7401 35.1742 20.8608 35.5524 20.8451Z" fill="#143441"/>
<path d="M48.7176 22.9858C48.0319 23.0024 47.354 22.8388 46.7521 22.5116C46.1953 22.1998 45.7364 21.7403 45.4266 21.1843V22.8001H42.8359V9.2334H45.8234V14.6442C46.1329 14.1018 46.5808 13.6502 47.1219 13.3352C47.6782 13.038 48.2977 12.8767 48.9291 12.8648C49.5605 12.8529 50.1857 12.9907 50.753 13.2667C51.273 13.5306 51.731 13.9009 52.0969 14.3533C52.4849 14.8386 52.7824 15.3891 52.9752 15.9788C53.1894 16.623 53.2964 17.2975 53.2921 17.976C53.2974 18.6508 53.1805 19.3211 52.947 19.9547C52.7312 20.5432 52.4048 21.0853 51.9851 21.5522C51.5789 22.0016 51.0832 22.3621 50.5295 22.6106C49.9599 22.8646 49.3417 22.9926 48.7176 22.9858ZM47.8773 20.4778C48.1945 20.4822 48.509 20.4199 48.8003 20.295C49.0915 20.1701 49.353 19.9855 49.5676 19.7531C49.778 19.5227 49.9426 19.2548 50.0528 18.9635C50.1733 18.6461 50.2333 18.3091 50.2297 17.9698C50.2314 17.6316 50.1749 17.2955 50.0627 16.9762C49.9589 16.6762 49.8039 16.3963 49.6045 16.1487C49.4135 15.9156 49.1748 15.7256 48.9043 15.5914C48.632 15.4559 48.3316 15.386 48.0272 15.3873C47.5496 15.3906 47.089 15.5641 46.7288 15.8762C46.3347 16.2013 46.0243 16.6153 45.8234 17.0837V19.1212C46.0107 19.529 46.3123 19.8745 46.6919 20.1161C47.0434 20.3485 47.4553 20.4742 47.8773 20.4778Z" fill="#143441"/>
<path d="M59.4536 22.9862C58.6901 22.9989 57.9317 22.8601 57.2228 22.5779C56.6011 22.3269 56.0385 21.9502 55.5706 21.4718C55.1232 21.0085 54.7766 20.4585 54.5522 19.8561C54.092 18.6148 54.092 17.2509 54.5522 16.0097C54.7766 15.4073 55.1232 14.8573 55.5706 14.3939C56.0397 13.9148 56.6018 13.5356 57.2228 13.2793C57.93 12.9903 58.6891 12.848 59.4536 12.8613C60.2153 12.8474 60.9717 12.9897 61.6758 13.2793C62.2932 13.5375 62.8521 13.9166 63.3194 14.3939C63.7669 14.8588 64.1161 15.4082 64.3463 16.0097C64.5824 16.6238 64.7023 17.276 64.7001 17.9335C64.7027 18.5898 64.5857 19.2412 64.3549 19.8561C64.1315 20.4587 63.7852 21.0088 63.3378 21.4718C62.8696 21.95 62.3071 22.3266 61.6856 22.5779C60.9762 22.8601 60.2174 22.9989 59.4536 22.9862ZM57.2695 17.9335C57.2695 18.7011 57.4742 19.3171 57.8837 19.7815C58.0766 20.0064 58.3176 20.1856 58.5889 20.3061C58.8603 20.4266 59.1553 20.4854 59.4523 20.4782C59.7494 20.4814 60.0433 20.4179 60.3122 20.2924C60.574 20.1689 60.8064 19.9914 60.994 19.7717C61.196 19.5332 61.3514 19.2592 61.4522 18.9638C61.5664 18.6324 61.6229 18.2839 61.6193 17.9335C61.6193 17.1643 61.4145 16.5479 61.0051 16.0843C60.815 15.8608 60.5772 15.6823 60.309 15.5618C60.0408 15.4412 59.749 15.3818 59.4548 15.3876C59.1582 15.3843 58.8646 15.4459 58.5946 15.5679C58.3246 15.69 58.0848 15.8696 57.8923 16.0941C57.6905 16.3325 57.5355 16.6066 57.4353 16.9019C57.3209 17.2338 57.2648 17.5827 57.2695 17.9335Z" fill="#143441"/>
</g>
<defs>
<clipPath id="clip0">
<rect x="2" y="3" width="64" height="26.4" fill="white"/>
</clipPath>
</defs>
</svg>
