<svg xmlns="http://www.w3.org/2000/svg" viewBox="0 0 521 216">
    <title>Services-Zabo</title>
    <polygon points="0 149.46 34.08 81.99 0 27.52 0 149.46" style="fill:#042e60"/>
    <polygon points="15.47 216 100 138.25 45.96 161.54 15.47 216" style="fill:#12397d"/>
    <polygon points="82.01 0 0.71 157.3 53.62 130.48 99.38 75.13 82.01 0" style="fill:#12397d"/>
    <polygon points="53.62 130.48 0.71 157.3 45.96 161.54 100 138.25 53.62 130.48" style="fill:#042e60"/>
    <path d="M144.26,143.3,200.5,76H146.38V54.08h82.84v18.7l-53.5,67.33h54.11V162H144.26Z" style="fill:#12397d"/>
    <path d="M266,163.52a31.19,31.19,0,0,1-11-1.9,25.77,25.77,0,0,1-8.74-5.32,25.49,25.49,0,0,1-5.78-8.06,23.91,23.91,0,0,1-2.13-10.1,23.25,23.25,0,0,1,2.51-10.8,24.86,24.86,0,0,1,7.07-8.36,35,35,0,0,1,10.79-5.47,45.89,45.89,0,0,1,13.83-2,56.27,56.27,0,0,1,9.73.83,32.26,32.26,0,0,1,8.21,2.51v-3.65q0-13.83-16-13.83a35.64,35.64,0,0,0-12.46,2.2,59.84,59.84,0,0,0-12.47,6.62L242.45,91a64,64,0,0,1,16.41-7.76A62.1,62.1,0,0,1,277,80.68q18.09,0,28,8.51t9.88,24.93v20.52q0,3.65,1.14,5.09a5.62,5.62,0,0,0,4,1.75V162a40,40,0,0,1-5.78,1c-1.72.15-3.29.23-4.71.23q-6.84,0-10.34-2.66a11.75,11.75,0,0,1-4.4-7.53l-.46-3.65a36.49,36.49,0,0,1-12.69,10.49A34.73,34.73,0,0,1,266,163.52ZM273.15,146a22.17,22.17,0,0,0,7.68-1.37A17.84,17.84,0,0,0,287,141q3.5-2.73,3.5-5.77v-7.6a38.85,38.85,0,0,0-6.92-1.9,38,38,0,0,0-6.91-.69,18.79,18.79,0,0,0-11,3A9.28,9.28,0,0,0,261.3,136a9,9,0,0,0,3.34,7.22A12.8,12.8,0,0,0,273.15,146Z"
          style="fill:#12397d"/>
    <path d="M380.31,163.52a31.76,31.76,0,0,1-16-3.88,28.09,28.09,0,0,1-10.79-10.86V162H332.43V51h24.32V95.27a29,29,0,0,1,10.57-10.71A32.4,32.4,0,0,1,396.88,84a33.69,33.69,0,0,1,10.94,8.89,42.47,42.47,0,0,1,7.15,13.3,51,51,0,0,1,2.58,16.34,46,46,0,0,1-2.81,16.19,40.35,40.35,0,0,1-7.83,13.07,35.65,35.65,0,0,1-11.85,8.66A35.13,35.13,0,0,1,380.31,163.52ZM373.47,143a18.34,18.34,0,0,0,13.76-5.93,20.18,20.18,0,0,0,3.95-6.46,22.34,22.34,0,0,0,1.44-8.13,24.26,24.26,0,0,0-1.36-8.13,22.58,22.58,0,0,0-3.73-6.77,17.32,17.32,0,0,0-5.7-4.56,15.81,15.81,0,0,0-7.14-1.67,16.27,16.27,0,0,0-10.57,4,26.18,26.18,0,0,0-7.37,9.88V131.9a19.07,19.07,0,0,0,7.07,8.14A17.71,17.71,0,0,0,373.47,143Z"
          style="fill:#12397d"/>
    <path d="M467.71,163.52a46.78,46.78,0,0,1-18.16-3.34,39.5,39.5,0,0,1-13.45-9.05,38.29,38.29,0,0,1-8.29-13.22,45.46,45.46,0,0,1,0-31.47,38.29,38.29,0,0,1,8.29-13.22,40.38,40.38,0,0,1,13.45-9.12,45.7,45.7,0,0,1,18.16-3.42A45.18,45.18,0,0,1,485.8,84.1a40.69,40.69,0,0,1,13.38,9.12,39.37,39.37,0,0,1,8.36,13.22,43.66,43.66,0,0,1,2.88,15.74,44.46,44.46,0,0,1-2.81,15.73,38.11,38.11,0,0,1-8.28,13.22,39.6,39.6,0,0,1-13.45,9.05A46.83,46.83,0,0,1,467.71,163.52Zm-17.78-41.34q0,9.42,5,15.12a16.27,16.27,0,0,0,12.77,5.7,16.08,16.08,0,0,0,7-1.52,16.64,16.64,0,0,0,5.55-4.26,20.48,20.48,0,0,0,3.73-6.61,25.18,25.18,0,0,0,1.36-8.43q0-9.44-5-15.13a16.11,16.11,0,0,0-12.62-5.7A16.48,16.48,0,0,0,455,107.13a20.39,20.39,0,0,0-3.72,6.61A25,25,0,0,0,449.93,122.18Z"
          style="fill:#12397d"/>
</svg>
