<svg width="66" height="27" viewBox="0 0 66 27" fill="none" xmlns="http://www.w3.org/2000/svg">
<path d="M0 18.6826L4.26 10.2488L0 3.44006V18.6826Z" fill="#DDDDDD"/>
<path d="M1.93359 27L12.4998 17.2812L5.74484 20.1925L1.93359 27Z" fill="white"/>
<path d="M10.2523 0L0.0898438 19.6625L6.70359 16.31L12.4236 9.39125L10.2523 0Z" fill="white"/>
<path d="M6.70359 16.3099L0.0898438 19.6624L5.74609 20.1924L12.5011 17.2812L6.70359 16.3099Z" fill="#DDDDDD"/>
<path d="M18.0312 17.9125L25.0613 9.50001H18.2963V6.76001H28.6513V9.09751L21.9638 17.5138H28.7275V20.25H18.0312V17.9125Z" fill="white"/>
<path d="M33.2494 20.4401C32.7806 20.4442 32.3148 20.3638 31.8744 20.2026C31.4695 20.0562 31.098 19.83 30.7819 19.5376C30.4775 19.2523 30.232 18.91 30.0594 18.5301C29.8798 18.1337 29.789 17.7028 29.7932 17.2676C29.7874 16.7989 29.895 16.3357 30.1069 15.9176C30.3202 15.5079 30.6221 15.1509 30.9907 14.8726C31.3972 14.5681 31.8536 14.3367 32.3394 14.1888C32.8995 14.0177 33.4826 13.9334 34.0682 13.9388C34.4758 13.9381 34.8828 13.9728 35.2844 14.0426C35.639 14.101 35.9841 14.2065 36.3107 14.3563V13.9001C36.3107 12.7476 35.644 12.1713 34.3107 12.1713C33.7793 12.1694 33.2518 12.2625 32.7532 12.4463C32.2028 12.6597 31.6796 12.9375 31.1944 13.2738L30.3057 11.3751C30.9399 10.9559 31.6306 10.6293 32.3569 10.4051C33.0928 10.1869 33.8569 10.0791 34.6244 10.0851C36.1319 10.0851 37.2986 10.4397 38.1244 11.1488C38.9503 11.858 39.3619 12.8967 39.3594 14.2651V16.8301C39.3594 17.1342 39.4069 17.3463 39.5019 17.4663C39.5665 17.5343 39.644 17.5887 39.7298 17.6262C39.8157 17.6638 39.9082 17.6838 40.0019 17.6851V20.2501C39.7645 20.3094 39.523 20.3512 39.2794 20.3751C39.0644 20.3938 38.8682 20.4038 38.6907 20.4038C38.1207 20.4038 37.6899 20.293 37.3982 20.0713C37.1009 19.8398 36.904 19.5028 36.8482 19.1301L36.7907 18.6738C36.3687 19.2261 35.8262 19.6746 35.2044 19.9851C34.5973 20.2874 33.9277 20.4432 33.2494 20.4401ZM34.1432 18.2501C34.4708 18.2502 34.7958 18.1922 35.1032 18.0788C35.3883 17.9812 35.6507 17.8269 35.8744 17.6251C36.1661 17.3976 36.3119 17.1572 36.3119 16.9038V15.9538C36.0316 15.8481 35.742 15.7686 35.4469 15.7163C35.1623 15.6613 34.8731 15.6324 34.5832 15.6301C34.0971 15.6096 33.6166 15.7407 33.2082 16.0051C33.0395 16.1102 32.9007 16.257 32.8051 16.4312C32.7094 16.6054 32.6601 16.8013 32.6619 17.0001C32.6577 17.1724 32.6932 17.3435 32.7656 17.5C32.838 17.6564 32.9453 17.7942 33.0794 17.9026C33.3806 18.1427 33.7583 18.2661 34.1432 18.2501Z" fill="white"/>
<path d="M47.5397 20.44C46.842 20.4569 46.1521 20.2897 45.5397 19.955C44.9731 19.6361 44.5062 19.1661 44.1909 18.5975V20.25H41.5547V6.375H44.5947V11.9088C44.9096 11.354 45.3654 10.8922 45.9159 10.57C46.4821 10.266 47.1125 10.1011 47.755 10.089C48.3975 10.0768 49.0337 10.2177 49.6109 10.5C50.14 10.7698 50.6061 11.1485 50.9784 11.6113C51.3733 12.1076 51.676 12.6706 51.8722 13.2738C52.0901 13.9325 52.1991 14.6224 52.1947 15.3163C52.2 16.0064 52.081 16.692 51.8434 17.34C51.6239 17.9418 51.2917 18.4963 50.8647 18.9738C50.4514 19.4334 49.9469 19.8021 49.3834 20.0563C48.8038 20.316 48.1748 20.4469 47.5397 20.44ZM46.6847 17.875C47.0074 17.8795 47.3274 17.8158 47.6238 17.688C47.9202 17.5603 48.1863 17.3714 48.4047 17.1338C48.6187 16.8982 48.7863 16.6242 48.8984 16.3263C49.0211 16.0016 49.0821 15.657 49.0784 15.31C49.0802 14.964 49.0227 14.6203 48.9084 14.2938C48.8028 13.987 48.6451 13.7007 48.4422 13.4475C48.2479 13.209 48.005 13.0147 47.7297 12.8775C47.4527 12.7389 47.1469 12.6674 46.8372 12.6688C46.3512 12.6722 45.8825 12.8496 45.5159 13.1688C45.1149 13.5012 44.7991 13.9246 44.5947 14.4038V16.4875C44.7853 16.9046 45.0921 17.2579 45.4784 17.505C45.8361 17.7427 46.2552 17.8713 46.6847 17.875Z" fill="white"/>
<path d="M58.4638 20.4401C57.6869 20.4531 56.9152 20.3112 56.1938 20.0226C55.5612 19.7658 54.9887 19.3806 54.5125 18.8913C54.0573 18.4174 53.7046 17.8549 53.4763 17.2388C53.0079 15.9694 53.0079 14.5745 53.4763 13.3051C53.7046 12.6889 54.0573 12.1264 54.5125 11.6526C54.9899 11.1626 55.5619 10.7747 56.1938 10.5126C56.9134 10.217 57.6859 10.0715 58.4638 10.0851C59.2389 10.0708 60.0086 10.2164 60.725 10.5126C61.3533 10.7767 61.922 11.1643 62.3975 11.6526C62.8529 12.128 63.2082 12.6899 63.4425 13.3051C63.6827 13.9331 63.8047 14.6001 63.8025 15.2726C63.8051 15.9438 63.6861 16.61 63.4513 17.2388C63.2239 17.8551 62.8715 18.4177 62.4163 18.8913C61.9399 19.3803 61.3674 19.7654 60.735 20.0226C60.0132 20.3112 59.2411 20.4531 58.4638 20.4401ZM56.2413 15.2726C56.2413 16.0576 56.4496 16.6876 56.8663 17.1626C57.0626 17.3925 57.3078 17.5758 57.5839 17.6991C57.8601 17.8223 58.1602 17.8824 58.4625 17.8751C58.7648 17.8783 59.0638 17.8134 59.3375 17.6851C59.6039 17.5587 59.8404 17.3772 60.0313 17.1526C60.2368 16.9086 60.3949 16.6284 60.4975 16.3263C60.6138 15.9873 60.6712 15.6309 60.6675 15.2726C60.6675 14.4859 60.4592 13.8555 60.0425 13.3813C59.8491 13.1527 59.6071 12.9702 59.3342 12.8469C59.0613 12.7237 58.7644 12.6628 58.465 12.6688C58.1632 12.6654 57.8644 12.7284 57.5897 12.8532C57.3149 12.9781 57.0709 13.1618 56.875 13.3913C56.6697 13.6352 56.512 13.9155 56.41 14.2176C56.2936 14.5569 56.2365 14.9138 56.2413 15.2726Z" fill="white"/>
</svg>
