<svg xmlns="http://www.w3.org/2000/svg" viewBox="0 0 449 216">
    <title>Projects-SSO</title>
    <polygon points="0 149.46 34.08 81.99 0 27.52 0 149.46" style="fill:#042e60"/>
    <polygon points="15.47 216 100 138.25 45.96 161.54 15.47 216" style="fill:#12397d"/>
    <polygon points="82.01 0 0.71 157.3 53.62 130.48 99.38 75.13 82.01 0" style="fill:#12397d"/>
    <polygon points="53.62 130.48 0.71 157.3 45.96 161.54 100 138.25 53.62 130.48" style="fill:#042e60"/>
    <path d="M215.09,85.7a15.05,15.05,0,0,0-3.19-2.28,61,61,0,0,0-6.84-3.5,65.77,65.77,0,0,0-9-3.19,35.94,35.94,0,0,0-9.73-1.37q-13.38,0-13.38,9a7.09,7.09,0,0,0,1.45,4.56,12.92,12.92,0,0,0,4.25,3.27,39.56,39.56,0,0,0,7.07,2.66Q190,96,195.63,97.55a130.27,130.27,0,0,1,14,4.64,37.64,37.64,0,0,1,10.56,6.23,25.24,25.24,0,0,1,6.69,9,31.45,31.45,0,0,1,2.35,12.77q0,9.12-3.42,15.43a28.73,28.73,0,0,1-9,10.18,38.24,38.24,0,0,1-12.92,5.63,64.63,64.63,0,0,1-15.05,1.75,83.77,83.77,0,0,1-12.16-.92,86.25,86.25,0,0,1-12.16-2.66A93.72,93.72,0,0,1,153,155.46a63.8,63.8,0,0,1-10.26-5.62l10.94-21.74a21,21,0,0,0,3.95,2.89,59,59,0,0,0,8.29,4.26,84.68,84.68,0,0,0,11,3.8,46.36,46.36,0,0,0,12.31,1.67q13.22,0,13.22-8.06a6.82,6.82,0,0,0-2-5,18.56,18.56,0,0,0-5.48-3.57,58.33,58.33,0,0,0-8.28-3q-4.78-1.36-10.41-3a89.08,89.08,0,0,1-12.92-4.94,34,34,0,0,1-9-6.15A22.45,22.45,0,0,1,149,98.92a29.78,29.78,0,0,1-1.74-10.64,33.88,33.88,0,0,1,3.19-15,32.55,32.55,0,0,1,8.66-11,37.73,37.73,0,0,1,12.69-6.76,50.5,50.5,0,0,1,15.28-2.28,58,58,0,0,1,11.1,1.06A82.84,82.84,0,0,1,208.7,57a73.8,73.8,0,0,1,9.35,3.8q4.33,2.13,8,4.25Z"
          style="fill:#12397d"/>
    <path d="M308.57,85.7a14.94,14.94,0,0,0-3.2-2.28,59.26,59.26,0,0,0-6.84-3.5,65.14,65.14,0,0,0-9-3.19,35.94,35.94,0,0,0-9.73-1.37q-13.38,0-13.38,9a7.09,7.09,0,0,0,1.45,4.56,12.92,12.92,0,0,0,4.25,3.27,39.56,39.56,0,0,0,7.07,2.66q4.26,1.22,9.88,2.73a129.32,129.32,0,0,1,14,4.64,37.56,37.56,0,0,1,10.57,6.23,25.36,25.36,0,0,1,6.69,9,31.45,31.45,0,0,1,2.35,12.77q0,9.12-3.42,15.43a28.73,28.73,0,0,1-9,10.18,38.24,38.24,0,0,1-12.92,5.63,64.69,64.69,0,0,1-15.05,1.75,83.66,83.66,0,0,1-12.16-.92A85.94,85.94,0,0,1,258,159.64a94.48,94.48,0,0,1-11.48-4.18,63.8,63.8,0,0,1-10.26-5.62l10.95-21.74a21,21,0,0,0,4,2.89,59.35,59.35,0,0,0,8.28,4.26,85.73,85.73,0,0,0,11,3.8,46.49,46.49,0,0,0,12.32,1.67q13.22,0,13.22-8.06a6.79,6.79,0,0,0-2-5,18.37,18.37,0,0,0-5.47-3.57,58.33,58.33,0,0,0-8.28-3c-3.19-.91-6.67-1.92-10.41-3a88.64,88.64,0,0,1-12.92-4.94,34,34,0,0,1-9-6.15,22.45,22.45,0,0,1-5.32-8.06,29.77,29.77,0,0,1-1.75-10.64,33.88,33.88,0,0,1,3.2-15,32.43,32.43,0,0,1,8.66-11,37.73,37.73,0,0,1,12.69-6.76,50.45,50.45,0,0,1,15.28-2.28,57.81,57.81,0,0,1,11.09,1.06A82.56,82.56,0,0,1,302.18,57a73.8,73.8,0,0,1,9.35,3.8q4.34,2.13,8,4.25Z"
          style="fill:#12397d"/>
    <path d="M384.57,162.91a50.18,50.18,0,0,1-21.89-4.71,53.72,53.72,0,0,1-16.87-12.39,56.17,56.17,0,0,1-10.87-17.55,55.22,55.22,0,0,1-3.88-20.37,53.79,53.79,0,0,1,4-20.52A54.36,54.36,0,0,1,363.44,58,51.57,51.57,0,0,1,385,53.47a50.25,50.25,0,0,1,21.89,4.71,53.44,53.44,0,0,1,16.87,12.47,56.15,56.15,0,0,1,10.79,17.63,55.58,55.58,0,0,1,3.8,20.06,53.72,53.72,0,0,1-4,20.52,54.57,54.57,0,0,1-28.19,29.49A50.88,50.88,0,0,1,384.57,162.91Zm-28.13-54.72a40.26,40.26,0,0,0,1.83,12.09,32,32,0,0,0,5.4,10.41,26,26,0,0,0,21.05,10,25.68,25.68,0,0,0,12.46-2.89,26.94,26.94,0,0,0,8.82-7.52,32.8,32.8,0,0,0,5.24-10.49A41.66,41.66,0,0,0,413,107.89a40.62,40.62,0,0,0-1.82-12.09,30.75,30.75,0,0,0-5.48-10.33,27.19,27.19,0,0,0-8.89-7.15,26.39,26.39,0,0,0-12.08-2.66,25.79,25.79,0,0,0-12.39,2.82,27.55,27.55,0,0,0-8.82,7.37,31.29,31.29,0,0,0-5.32,10.41A41.66,41.66,0,0,0,356.44,108.19Z"
          style="fill:#12397d"/>
</svg>
