<svg width="72" height="72" viewBox="0 0 72 72" fill="none" xmlns="http://www.w3.org/2000/svg">
<circle cx="36" cy="36" r="36" fill="#F4F4F4"/>
<path d="M49.1413 39.7241H41.4774C41.0045 39.7241 40.6212 39.3408 40.6212 38.8679C40.6212 38.395 41.0045 38.0116 41.4774 38.0116H48.2851V23.7125H33.9859V29.5783C33.9859 30.0512 33.6026 30.4346 33.1297 30.4346C32.6568 30.4346 32.2734 30.0512 32.2734 29.5783V22.8562C32.2734 22.3834 32.6567 22 33.1297 22H49.1413C49.6142 22 49.9975 22.3834 49.9975 22.8562V38.8679C49.9975 39.3408 49.6142 39.7241 49.1413 39.7241Z" fill="#143441"/>
<path d="M34.6013 49.9936H22.8562C22.3834 49.9936 22 49.6103 22 49.1374V33.1258C22 32.6529 22.3834 32.2695 22.8562 32.2695H38.8679C39.3408 32.2695 39.7241 32.6529 39.7241 33.1258V43.9995C39.7241 44.4723 39.3408 44.8557 38.8679 44.8557C38.395 44.8557 38.0116 44.4723 38.0116 43.9995V33.982H23.7125V48.2812H34.6013C35.0741 48.2812 35.4575 48.6646 35.4575 49.1375C35.4575 49.6103 35.0741 49.9936 34.6013 49.9936Z" fill="#143441"/>
<path d="M27.9941 27.9883V33.1262H38.8678V43.9999H44.0058V27.9883H27.9941Z" fill="#8999A0"/>
<path d="M44.0026 44.8647H38.8647C38.3918 44.8647 38.0084 44.4814 38.0084 44.0085V33.9911H27.991C27.5181 33.9911 27.1348 33.6077 27.1348 33.1348V27.9969C27.1348 27.524 27.5181 27.1406 27.991 27.1406H44.0026C44.4755 27.1406 44.8589 27.524 44.8589 27.9969V44.0085C44.8589 44.4814 44.4755 44.8647 44.0026 44.8647ZM39.7209 43.1522H43.1464V28.8531H28.8473V32.2786H38.8647C39.3376 32.2786 39.721 32.6619 39.721 33.1348L39.7209 43.1522Z" fill="#143441"/>
</svg>
