<svg width="72" height="72" viewBox="0 0 72 72" fill="none" xmlns="http://www.w3.org/2000/svg">
<circle cx="36" cy="36" r="36" fill="#F4F4F4"/>
<g clip-path="url(#clip0)">
<path d="M32.4362 46.0261H25.1207C23.3999 46.0261 22 44.6261 22 42.9054V25.9645C22 24.2437 23.3999 22.8438 25.1207 22.8438H38.9592C39.3782 22.8438 39.718 23.1835 39.718 23.6025C39.718 24.0216 39.3782 24.3613 38.9592 24.3613H25.1207C24.2368 24.3613 23.5176 25.0805 23.5176 25.9644V42.9053C23.5176 43.7892 24.2368 44.5084 25.1207 44.5084H32.4362C32.8552 44.5084 33.195 44.8481 33.195 45.2672C33.195 45.6862 32.8554 46.0261 32.4362 46.0261Z" fill="#143441"/>
<path d="M46.8799 46.0261H43.5889C43.1699 46.0261 42.8301 45.6863 42.8301 45.2673C42.8301 44.8482 43.1699 44.5085 43.5889 44.5085H46.8799C47.7638 44.5085 48.483 43.7893 48.483 42.9054V25.9644C48.483 25.0805 47.7638 24.3613 46.8799 24.3613H43.6422C43.2232 24.3613 42.8835 24.0216 42.8835 23.6025C42.8835 23.1835 43.2232 22.8438 43.6422 22.8438H46.8799C48.6008 22.8438 50.0006 24.2438 50.0006 25.9645V42.9053C50.0006 44.6261 48.6007 46.0261 46.8799 46.0261Z" fill="#143441"/>
<path d="M33.3894 49.1573C33.1994 49.1573 33.0084 49.1131 32.831 49.0236C32.4123 48.8121 32.1523 48.3894 32.1523 47.9204V39.7588C32.1523 39.3397 32.4921 39 32.9111 39C33.3301 39 33.6699 39.3397 33.6699 39.7588V47.3629L35.2667 46.186C35.7052 45.8627 36.2948 45.8627 36.7333 46.186L38.3301 47.3629V46.3165C38.3301 45.8974 38.6698 45.5577 39.0889 45.5577C39.5079 45.5577 39.8476 45.8974 39.8476 46.3165V47.9202C39.8476 48.3892 39.5876 48.812 39.169 49.0235C38.7502 49.2349 38.2558 49.1934 37.8782 48.9152L36 47.5308L34.1216 48.9153C33.9041 49.0756 33.6477 49.1573 33.3894 49.1573Z" fill="#143441"/>
<path d="M36 43.6095C33.8784 43.6095 32.1523 41.8834 32.1523 39.7618C32.1523 37.6402 33.8784 35.9141 36 35.9141C38.1217 35.9141 39.8477 37.6401 39.8477 39.7618C39.8477 41.8834 38.1216 43.6095 36 43.6095ZM36 37.4318C34.7152 37.4318 33.67 38.477 33.67 39.7619C33.67 41.0467 34.7152 42.0919 36 42.0919C37.2849 42.0919 38.3301 41.0467 38.3301 39.7619C38.3301 38.477 37.2849 37.4318 36 37.4318Z" fill="#143441"/>
<path d="M42.3126 27.3945H29.6872L26.5527 30.529V38.3367L29.6872 41.4711H33.4304C33.1024 40.9807 32.911 40.3911 32.911 39.7567C32.911 38.0508 34.2939 36.6679 35.9998 36.6679C37.7058 36.6679 39.0887 38.0508 39.0887 39.7567C39.0887 40.3911 38.8972 40.9805 38.5693 41.4711H42.3125L45.4469 38.3367V30.5291L42.3126 27.3945Z" fill="#8999A0"/>
<path d="M42.3115 42.2309H38.5683C38.2883 42.2309 38.031 42.0766 37.899 41.8297C37.7671 41.5827 37.7819 41.2831 37.9376 41.0503C38.1936 40.6673 38.329 40.2203 38.329 39.7577C38.329 38.4728 37.2837 37.4276 35.9989 37.4276C34.7141 37.4276 33.6688 38.4728 33.6688 39.7577C33.6688 40.2075 33.7969 40.6426 34.0394 41.0185C34.1338 41.145 34.1897 41.302 34.1897 41.472C34.1897 41.8911 33.85 42.2308 33.431 42.2308C33.4304 42.2308 33.43 42.2308 33.4294 42.2308H29.6862C29.4849 42.2308 29.292 42.1509 29.1496 42.0086L26.0152 38.8741C25.873 38.7319 25.793 38.5389 25.793 38.3376V30.53C25.793 30.3287 25.8729 30.1357 26.0152 29.9934L29.1497 26.859C29.292 26.7167 29.485 26.6367 29.6862 26.6367H42.3115C42.5128 26.6367 42.7057 26.7167 42.8481 26.859L45.9827 29.9934C46.125 30.1357 46.2049 30.3288 46.2049 30.53V38.3377C46.2049 38.5389 46.125 38.732 45.9827 38.8742L42.8481 42.0087C42.7058 42.151 42.5128 42.2309 42.3115 42.2309ZM39.7268 40.7133H41.9972L44.6872 38.0233V30.8443L41.9972 28.1544H30.0005L27.3105 30.8443V38.0233L30.0005 40.7132H32.271C32.1917 40.4034 32.1512 40.0828 32.1512 39.7577C32.1512 37.6361 33.8773 35.91 35.9989 35.91C38.1206 35.91 39.8466 37.636 39.8466 39.7577C39.8466 40.0829 39.8061 40.4035 39.7268 40.7133Z" fill="#143441"/>
<path d="M40.552 33.498H31.4463C31.0273 33.498 30.6875 33.1583 30.6875 32.7393C30.6875 32.3202 31.0273 31.9805 31.4463 31.9805H40.552C40.971 31.9805 41.3108 32.3202 41.3108 32.7393C41.3108 33.1583 40.971 33.498 40.552 33.498Z" fill="#143441"/>
</g>
<defs>
<clipPath id="clip0">
<rect x="22" y="22" width="28" height="28" fill="white"/>
</clipPath>
</defs>
</svg>
