<svg width="72" height="72" viewBox="0 0 72 72" fill="none" xmlns="http://www.w3.org/2000/svg">
<circle cx="36" cy="36" r="36" fill="#F4F4F4"/>
<path d="M39.3833 49.3608H25.1603C24.0183 49.3608 22.9962 48.77 22.4262 47.7804C21.8562 46.7907 21.858 45.6102 22.4311 44.6224L27.3745 36.1003C27.4014 36.0539 27.4156 36.0008 27.4156 35.9471V29.2005C27.4156 28.7661 27.7678 28.4141 28.202 28.4141C28.6362 28.4141 28.9884 28.7661 28.9884 29.2005V35.9472C28.9884 36.2777 28.9008 36.6034 28.7351 36.8893L23.7916 45.4116C23.5042 45.907 23.5033 46.4991 23.7891 46.9953C24.075 47.4916 24.5875 47.7879 25.1603 47.7879H39.3832C39.8175 47.7879 40.1696 48.14 40.1696 48.5743C40.1696 49.0086 39.8176 49.3608 39.3833 49.3608Z" fill="#143441"/>
<path d="M33.9817 35.947C33.5474 35.947 33.1953 35.5949 33.1953 35.1606V29.2005C33.1953 28.7661 33.5475 28.4141 33.9817 28.4141C34.416 28.4141 34.7681 28.7661 34.7681 29.2005V35.1606C34.7681 35.5949 34.416 35.947 33.9817 35.947Z" fill="#143441"/>
<path d="M38.0039 43.1719H24.1823L23.1124 45.0164C22.1964 46.5955 23.3357 48.5736 25.1613 48.5736H41.9238L38.0039 43.1719Z" fill="#8999A0"/>
<path d="M41.9227 49.3614H25.1603C24.0183 49.3614 22.9962 48.7705 22.4262 47.781C21.8562 46.7914 21.858 45.6108 22.4311 44.623L23.5009 42.7785C23.6416 42.536 23.9008 42.3867 24.1812 42.3867H38.0028C38.2547 42.3867 38.4913 42.5074 38.6393 42.7113L42.5592 48.1131C42.7328 48.3523 42.7575 48.6688 42.6233 48.9322C42.489 49.1955 42.2183 49.3614 41.9227 49.3614ZM24.6343 43.9596L23.7917 45.4122C23.5043 45.9076 23.5034 46.4997 23.7892 46.9959C24.0751 47.4922 24.5876 47.7885 25.1604 47.7885H40.3804L37.6019 43.9596H24.6343Z" fill="#143441"/>
<path d="M45.8711 49.3608H38.2414C38.0927 49.3608 37.9472 49.3187 37.8216 49.2394C35.4996 47.7735 34.1133 45.2611 34.1133 42.5188C34.1133 39.6204 35.6928 36.9518 38.2353 35.5543C38.323 35.5061 38.3798 35.4041 38.3798 35.2945V29.2005C38.3798 28.7661 38.732 28.4141 39.1662 28.4141C39.6004 28.4141 39.9526 28.7661 39.9526 29.2005V35.2945C39.9526 35.9796 39.5849 36.6073 38.993 36.9327C36.9533 38.0537 35.6861 40.1943 35.6861 42.5188C35.6861 44.6442 36.7249 46.5976 38.4759 47.788H45.6366C47.3877 46.5976 48.4263 44.6442 48.4263 42.5188C48.4263 42.0845 48.7785 41.7324 49.2127 41.7324C49.647 41.7324 49.9991 42.0845 49.9991 42.5188C49.9991 45.2612 48.6129 47.7735 46.2909 49.2394C46.1652 49.3187 46.0196 49.3608 45.8711 49.3608Z" fill="#143441"/>
<path d="M44.9466 35.2944C44.5123 35.2944 44.1602 34.9424 44.1602 34.508V29.2005C44.1602 28.7661 44.5123 28.4141 44.9466 28.4141C45.3808 28.4141 45.733 28.7661 45.733 29.2005V34.508C45.733 34.9424 45.3808 35.2944 44.9466 35.2944Z" fill="#143441"/>
<path d="M35.603 39.4219C35.1529 40.3585 34.9004 41.4081 34.9004 42.5168C34.9004 45.0667 36.2343 47.3048 38.2421 48.5724H45.8717C47.8794 47.3048 49.2134 45.0667 49.2134 42.5168C49.2134 41.5802 49.0332 40.6859 48.706 39.8662C48.6458 39.7155 48.5807 39.5673 48.5109 39.4219H35.603V39.4219Z" fill="#8999A0"/>
<path d="M45.8711 49.36H38.2414C38.0927 49.36 37.9472 49.318 37.8216 49.2386C35.4996 47.7727 34.1133 45.2604 34.1133 42.518C34.1133 41.3159 34.3758 40.1599 34.8934 39.0825C35.0243 38.81 35.2999 38.6367 35.6023 38.6367H48.5101C48.8124 38.6367 49.088 38.81 49.2189 39.0825C49.2965 39.2437 49.3694 39.4098 49.4358 39.5759C49.8096 40.5123 49.9991 41.5022 49.9991 42.518C49.9991 45.2602 48.6129 47.7727 46.2909 49.2386C46.1652 49.318 46.0196 49.36 45.8711 49.36ZM38.4758 47.7872H45.6365C47.3875 46.5968 48.4262 44.6434 48.4262 42.518C48.4262 41.7212 48.281 40.9449 47.9948 40.2096H36.1172C35.8309 40.9432 35.6861 41.7175 35.6861 42.518C35.6861 44.6434 36.7248 46.5968 38.4758 47.7872Z" fill="#143441"/>
<path d="M46.1276 29.9869H44.9407C44.5064 29.9869 44.1543 29.6348 44.1543 29.2005C44.1543 28.7661 44.5065 28.4141 44.9407 28.4141H46.1276C46.5618 28.4141 46.914 28.7661 46.914 29.2005C46.914 29.6348 46.5618 29.9869 46.1276 29.9869Z" fill="#143441"/>
<path d="M41.5845 29.9869H37.9876C37.5533 29.9869 37.2012 29.6348 37.2012 29.2005C37.2012 28.7661 37.5534 28.4141 37.9876 28.4141H41.5845C42.0188 28.4141 42.3709 28.7661 42.3709 29.2005C42.3709 29.6348 42.0188 29.9869 41.5845 29.9869Z" fill="#143441"/>
<path d="M35.1615 29.9869H33.9817C33.5474 29.9869 33.1953 29.6348 33.1953 29.2005C33.1953 28.7661 33.5475 28.4141 33.9817 28.4141H35.1615C35.5958 28.4141 35.9479 28.7661 35.9479 29.2005C35.9479 29.6348 35.5958 29.9869 35.1615 29.9869Z" fill="#143441"/>
<path d="M30.5486 29.9869H27.0227C26.5885 29.9869 26.2363 29.6348 26.2363 29.2005C26.2363 28.7661 26.5885 28.4141 27.0227 28.4141H30.5486C30.9829 28.4141 31.335 28.7661 31.335 29.2005C31.335 29.6348 30.9829 29.9869 30.5486 29.9869Z" fill="#143441"/>
<path d="M32.3544 27.2399C31.0852 27.2399 30.0527 26.2074 30.0527 24.9383C30.0527 23.6692 31.0852 22.6367 32.3544 22.6367C33.6234 22.6367 34.6559 23.6692 34.6559 24.9383C34.6559 26.2074 33.6234 27.2399 32.3544 27.2399ZM32.3544 24.2096C31.9526 24.2096 31.6256 24.5365 31.6256 24.9383C31.6256 25.3401 31.9525 25.667 32.3544 25.667C32.7562 25.667 33.0831 25.3401 33.0831 24.9383C33.0831 24.5365 32.7563 24.2096 32.3544 24.2096Z" fill="#143441"/>
<path d="M39.7859 45.8649C38.5169 45.8649 37.4844 44.8324 37.4844 43.5633C37.4844 42.2942 38.5169 41.2617 39.7859 41.2617C41.055 41.2617 42.0875 42.2942 42.0875 43.5633C42.0875 44.8324 41.055 45.8649 39.7859 45.8649ZM39.7859 42.8347C39.3842 42.8347 39.0572 43.1616 39.0572 43.5634C39.0572 43.9652 39.3841 44.2921 39.7859 44.2921C40.1878 44.2921 40.5147 43.9652 40.5147 43.5634C40.5146 43.1615 40.1877 42.8347 39.7859 42.8347Z" fill="#143441"/>
</svg>
