<svg width="72" height="72" viewBox="0 0 72 72" fill="none" xmlns="http://www.w3.org/2000/svg">
<circle cx="36" cy="36" r="36" fill="#F4F4F4"/>
<path d="M56.5357 29.666L41.4448 21.296C40.4425 20.7399 39.2454 20.7399 38.2427 21.296L23.1521 29.666C22.5684 29.9892 22.2475 30.6263 22.3344 31.2883C22.422 31.9503 22.8967 32.4822 23.5447 32.6435L23.9866 32.7537V35.5485C23.3157 35.7899 22.8316 36.4266 22.8316 37.1797C22.8316 37.9329 23.3157 38.5695 23.9866 38.811V43.3348C23.9866 43.6572 24.2483 43.9189 24.5708 43.9189C24.8932 43.9189 25.1549 43.6572 25.1549 43.3348V38.8106C25.8262 38.5692 26.3103 37.9325 26.3103 37.1793C26.3103 36.4262 25.8262 35.7895 25.1549 35.5481V33.0442L29.9119 34.2291V39.9547C29.9119 39.9551 29.9119 39.9555 29.9119 39.9559C29.9119 39.9769 29.9158 39.9979 29.9182 40.0189C29.9505 40.3106 30.1954 40.5384 30.4957 40.5384C30.6257 40.5384 30.7445 40.4944 30.8415 40.4228C31.4326 40.0174 33.4747 38.8149 35.7882 39.6918C36.544 39.9777 37.2703 40.4461 37.9451 41.0836C38.5129 41.6198 39.178 41.8877 39.8435 41.8877C40.5087 41.8877 41.1742 41.6198 41.7419 41.0836C42.4168 40.4457 43.143 39.9777 43.8989 39.6918C46.2135 38.8153 48.2549 40.0178 48.8456 40.4231C48.9426 40.4948 49.0613 40.5388 49.1914 40.5388C49.4916 40.5388 49.7366 40.311 49.7689 40.0193C49.7712 39.9983 49.7751 39.9773 49.7751 39.9562C49.7751 39.9559 49.7751 39.9555 49.7751 39.9551V34.2295L56.1424 32.6438C56.7904 32.4822 57.2655 31.9503 57.3527 31.2883C57.4407 30.6259 57.1194 29.9892 56.5357 29.666ZM56.195 31.1356C56.186 31.2061 56.1342 31.4421 55.8609 31.5103L49.2545 33.1559C48.5594 32.8269 46.1411 31.7026 44.5835 31.2482C44.2762 31.1602 43.9495 31.3354 43.8592 31.6458C43.7692 31.9554 43.9468 32.2797 44.2568 32.3701C45.6213 32.7677 47.7868 33.758 48.6084 34.1431V38.9414C47.4737 38.3861 45.5843 37.8059 43.4865 38.5995C42.5858 38.9407 41.7291 39.4905 40.9409 40.2347C40.2649 40.8737 39.4249 40.8737 38.7489 40.2347C37.9607 39.4905 37.104 38.9407 36.2033 38.5995C34.1067 37.8063 32.2165 38.3865 31.0814 38.9418V34.1431C31.375 34.0052 31.8399 33.7903 32.3773 33.5535C32.6729 33.4235 32.8068 33.0784 32.6768 32.7833C32.5463 32.4881 32.2017 32.3553 31.9065 32.4838C31.2457 32.7751 30.7067 33.027 30.4349 33.1555L23.827 31.5103C23.5536 31.4421 23.5018 31.2061 23.4929 31.1356C23.4835 31.0648 23.4722 30.8237 23.7187 30.6874L38.8096 22.3178C39.4576 21.9587 40.231 21.9587 40.8786 22.3178L55.9695 30.6874C56.2156 30.8237 56.2047 31.0648 56.195 31.1356Z" fill="white"/>
<path d="M42.6611 30.8246C40.2448 30.4352 37.809 30.5473 35.4215 31.1579L35.3631 31.1727C34.9063 31.2903 34.3117 31.492 33.5959 31.7724C33.2957 31.89 33.1473 32.2288 33.2649 32.5291C33.3549 32.7596 33.5757 32.9002 33.8086 32.9002C33.8798 32.9002 33.9515 32.8873 34.0216 32.8597C34.6937 32.5964 35.2432 32.4095 35.6505 32.3044L35.7081 32.29C37.9414 31.7183 40.2191 31.6132 42.4746 31.9769C42.7943 32.031 43.0933 31.8118 43.1443 31.4936C43.1957 31.1755 42.9796 30.876 42.6611 30.8246Z" fill="white"/>
<path d="M52.9342 33.2676L37.8432 24.8975C36.8409 24.3414 35.6438 24.3414 34.6411 24.8975L19.5506 33.2676C18.9668 33.5908 18.646 34.2279 18.7328 34.8899C18.8204 35.5519 19.2951 36.0838 19.9431 36.245L20.3851 36.3552V39.15C19.7141 39.3915 19.2301 40.0282 19.2301 40.7813C19.2301 41.5344 19.7141 42.1711 20.3851 42.4125V46.9363C20.3851 47.2588 20.6468 47.5205 20.9692 47.5205C21.2916 47.5205 21.5533 47.2588 21.5533 46.9363V42.4121C22.2247 42.1707 22.7087 41.534 22.7087 40.7809C22.7087 40.0278 22.2247 39.3911 21.5533 39.1497V36.6457L26.3104 37.8307V43.5562C26.3104 43.5566 26.3104 43.557 26.3104 43.5574C26.3104 43.5784 26.3143 43.5995 26.3166 43.6205C26.3489 43.9122 26.5939 44.14 26.8941 44.14C27.0242 44.14 27.143 44.096 27.2399 44.0243C27.831 43.6189 29.8731 42.4164 32.1866 43.2934C32.9425 43.5792 33.6687 44.0477 34.3436 44.6852C34.9113 45.2214 35.5765 45.4893 36.242 45.4893C36.9071 45.4893 37.5726 45.2214 38.1404 44.6852C38.8152 44.0473 39.5415 43.5792 40.2973 43.2934C42.612 42.4168 44.6533 43.6193 45.244 44.0247C45.341 44.0964 45.4598 44.1404 45.5898 44.1404C45.8901 44.1404 46.135 43.9126 46.1673 43.6209C46.1697 43.5999 46.1736 43.5788 46.1736 43.5578C46.1736 43.5574 46.1736 43.557 46.1736 43.5566V37.8311L52.5408 36.2454C53.1888 36.0838 53.6639 35.5519 53.7511 34.8899C53.8391 34.2275 53.5179 33.5908 52.9342 33.2676ZM52.5934 34.7372C52.5845 34.8077 52.5327 35.0437 52.2593 35.1118L45.6529 36.7575C44.9578 36.4284 42.5396 35.3042 40.9819 34.8498C40.6747 34.7617 40.3479 34.937 40.2576 35.2473C40.1676 35.5569 40.3452 35.8813 40.6552 35.9717C42.0197 36.3692 44.1852 37.3595 45.0069 37.7446V42.543C43.8721 41.9877 41.9827 41.4075 39.8849 42.2011C38.9842 42.5422 38.1275 43.0921 37.3393 43.8362C36.6633 44.4753 35.8234 44.4753 35.1473 43.8362C34.3592 43.0921 33.5025 42.5422 32.6017 42.2011C30.5051 41.4079 28.6149 41.9881 27.4798 42.5434V37.7446C27.7734 37.6068 28.2384 37.3918 28.7758 37.1551C29.0713 37.025 29.2053 36.68 29.0752 36.3848C28.9448 36.0896 28.6001 35.9569 28.305 36.0854C27.6441 36.3766 27.1052 36.6286 26.8334 36.7571L20.2254 35.1118C19.9521 35.0437 19.9003 34.8077 19.8913 34.7372C19.882 34.6663 19.8707 34.4253 20.1172 34.289L35.2081 25.9193C35.8561 25.5603 36.6294 25.5603 37.277 25.9193L52.3679 34.289C52.6141 34.4253 52.6032 34.6663 52.5934 34.7372Z" fill="#143441"/>
<path d="M39.0615 34.4301C36.6452 34.0406 34.2094 34.1528 31.8219 34.7634L31.7635 34.7782C31.3067 34.8958 30.7121 35.0975 29.9963 35.3779C29.6961 35.4955 29.5477 35.8343 29.6653 36.1345C29.7553 36.3651 29.9761 36.5056 30.209 36.5056C30.2802 36.5056 30.3519 36.4928 30.422 36.4651C31.0941 36.2019 31.6435 36.015 32.0509 35.9098L32.1085 35.8954C34.3418 35.3238 36.6195 35.2186 38.8749 35.5823C39.1947 35.6365 39.4937 35.4172 39.5447 35.0991C39.5961 34.7809 39.38 34.4815 39.0615 34.4301Z" fill="#143441"/>
</svg>
