<svg width="72" height="72" viewBox="0 0 72 72" fill="none" xmlns="http://www.w3.org/2000/svg">
<circle cx="36" cy="36" r="36" fill="#F4F4F4"/>
<g clip-path="url(#clip0)">
<path d="M35.7871 46.4465C35.4863 46.4465 35.1959 46.3179 34.9904 46.0936C34.0945 45.1169 32.8218 44.5565 31.4989 44.5565C30.1592 44.5565 28.8756 45.129 27.9772 46.1271C27.7945 46.3301 27.5338 46.4466 27.2622 46.4466C26.732 46.4466 26.3008 46.0153 26.3008 45.4852V31.7924C26.3008 31.3957 26.6224 31.0742 27.0189 31.0742H44.5552C44.9518 31.0742 45.2734 31.3957 45.2734 31.7924V40.4658C45.2734 40.8625 44.9517 41.184 44.5552 41.184C44.1587 41.184 43.837 40.8625 43.837 40.4658V32.5105H27.7371V44.4007C28.8086 43.5777 30.1313 43.1202 31.4989 43.1202C33.0979 43.1202 34.6404 43.748 35.7871 44.8543C36.934 43.7479 38.4764 43.1202 40.0753 43.1202C41.0747 43.1202 42.0678 43.3651 42.9471 43.8284C43.2979 44.0133 43.4325 44.4477 43.2476 44.7985C43.0628 45.1494 42.6285 45.2841 42.2775 45.0991C41.5942 44.7391 40.8533 44.5565 40.0753 44.5565C38.7524 44.5565 37.4796 45.1169 36.5835 46.0939C36.3783 46.3179 36.0879 46.4465 35.7871 46.4465Z" fill="#143441"/>
<path d="M47.2787 44.2035C46.8821 44.2035 46.5605 43.882 46.5605 43.4853V32.0814C46.5605 31.6848 46.8822 31.3633 47.2787 31.3633C47.6753 31.3633 47.9969 31.6848 47.9969 32.0814V43.4853C47.9969 43.882 47.6753 44.2035 47.2787 44.2035Z" fill="#143441"/>
<path d="M45.499 42.9405L46.7335 41.7061C47.0343 41.4053 47.5218 41.4053 47.8226 41.7061L49.057 42.9405C49.3578 43.2413 49.3578 43.7288 49.057 44.0296L47.8226 45.2641C47.5218 45.5649 47.0343 45.5649 46.7335 45.2641L45.499 44.0296C45.1982 43.7288 45.1982 43.2413 45.499 42.9405Z" fill="#8999A0"/>
<path d="M47.2787 46.211C46.8811 46.211 46.5074 46.0563 46.2263 45.7752L44.9919 44.5407C44.4116 43.9604 44.4116 43.0162 44.9919 42.4359L46.2263 41.2015C46.5074 40.9204 46.8811 40.7656 47.2787 40.7656C47.6762 40.7656 48.0499 40.9204 48.331 41.2015L49.5655 42.4359C50.1458 43.0162 50.1458 43.9604 49.5655 44.5407L48.331 45.7752C48.0499 46.0563 47.6762 46.211 47.2787 46.211ZM47.2787 42.2018C47.2572 42.2018 47.2457 42.2133 47.242 42.217L46.0075 43.4515C46.0037 43.4552 45.9923 43.4666 45.9923 43.4882C45.9923 43.5097 46.0037 43.5212 46.0075 43.5249L47.242 44.7593C47.2457 44.7632 47.2572 44.7745 47.2787 44.7745C47.3002 44.7745 47.3116 44.7631 47.3154 44.7593L48.5498 43.5249C48.5537 43.5212 48.565 43.5097 48.565 43.4882C48.565 43.4667 48.5536 43.4553 48.5498 43.4515L47.3154 42.217C47.3116 42.2133 47.3001 42.2018 47.2787 42.2018Z" fill="#143441"/>
<path d="M34.6478 36.4258L23.2393 32.198C22.5452 31.9407 22.5452 30.959 23.2393 30.7018L34.6478 26.474C35.3833 26.2014 36.1921 26.2014 36.9275 26.474L48.3361 30.7018C49.0302 30.959 49.0302 31.9407 48.3361 32.198L36.9275 36.4258C36.1921 36.6984 35.3833 36.6984 34.6478 36.4258Z" fill="#8999A0"/>
<path d="M35.7872 37.3477C35.3114 37.3477 34.8439 37.2638 34.3978 37.0985L22.9892 32.8707C22.3883 32.6481 22 32.0901 22 31.4493C22 30.8084 22.3883 30.2504 22.9892 30.0278L34.3977 25.7999C34.8438 25.6346 35.3113 25.5508 35.7871 25.5508C36.2629 25.5508 36.7304 25.6346 37.1765 25.7999L48.585 30.0278C49.1859 30.2505 49.5742 30.8084 49.5742 31.4493C49.5742 32.0901 49.1859 32.648 48.585 32.8708L37.1765 37.0986C36.7305 37.2638 36.263 37.3477 35.7872 37.3477ZM35.7872 26.9871C35.4823 26.9871 35.1828 27.0409 34.8969 27.1468L23.4883 31.3746C23.4676 31.3823 23.4363 31.3939 23.4363 31.4493C23.4363 31.5047 23.4676 31.5163 23.4883 31.5239L34.8968 35.7517C35.4687 35.9636 36.1056 35.9636 36.6775 35.7517L48.086 31.5239C48.1067 31.5162 48.138 31.5047 48.138 31.4493C48.138 31.394 48.1067 31.3823 48.086 31.3746L36.6775 27.1468C36.3916 27.0409 36.0921 26.9871 35.7872 26.9871Z" fill="#143441"/>
</g>
<defs>
<clipPath id="clip0">
<rect x="22" y="22" width="28" height="28" fill="white"/>
</clipPath>
</defs>
</svg>
