<svg width="72" height="72" viewBox="0 0 72 72" fill="none" xmlns="http://www.w3.org/2000/svg">
<circle cx="36" cy="36" r="36" fill="#F4F4F4"/>
<path d="M54.8517 44.1293H53.8321V37.4509C53.8336 36.9291 53.7321 36.4121 53.5335 35.9294C53.335 35.4468 53.0432 35.0081 52.675 34.6384C52.3067 34.2686 51.8692 33.9751 51.3874 33.7746C50.9056 33.574 50.389 33.4705 49.8672 33.4697H49.4302V28.5014C49.4288 27.4493 49.0098 26.4408 48.2654 25.6974C47.521 24.954 46.5119 24.5364 45.4598 24.5364H41.1981V21.5316C41.1981 21.3886 41.1413 21.2514 41.0401 21.1502C40.939 21.049 40.8018 20.9922 40.6587 20.9922H39.1968C39.0537 20.9922 38.9165 21.049 38.8153 21.1502C38.7141 21.2514 38.6573 21.3886 38.6573 21.5316V24.5364H34.3956C33.3445 24.5378 32.3368 24.956 31.5935 25.6993C30.8503 26.4426 30.4321 27.4502 30.4306 28.5014V33.4697H30.0045C28.9533 33.4712 27.9457 33.8894 27.2024 34.6326C26.4591 35.3759 26.0409 36.3836 26.0395 37.4347V44.1293H25.0199C24.8769 44.1293 24.7396 44.1862 24.6385 44.2874C24.5373 44.3885 24.4805 44.5257 24.4805 44.6688C24.4819 45.6155 24.8586 46.523 25.528 47.1924C26.1974 47.8619 27.105 48.2386 28.0517 48.24H51.7876C52.7343 48.2386 53.6418 47.8619 54.3112 47.1924C54.9807 46.523 55.3574 45.6155 55.3588 44.6688C55.359 44.5312 55.3067 44.3986 55.2124 44.2984C55.1181 44.1981 54.9891 44.1376 54.8517 44.1293ZM39.72 22.0495H40.1516V24.5364H39.72V22.0495ZM34.4118 25.5775H45.4598C46.1957 25.578 46.9043 25.856 47.4443 26.356C47.9843 26.8559 48.3158 27.5411 48.3729 28.2748C48.2812 28.2263 48.1948 28.1723 48.1031 28.113C47.5644 27.7268 46.9156 27.5244 46.2528 27.5358C45.5972 27.5099 44.9511 27.6994 44.4133 28.0752C44.0427 28.3478 43.5948 28.4948 43.1348 28.4948C42.6748 28.4948 42.2268 28.3478 41.8563 28.0752C41.3171 27.6927 40.6724 27.4872 40.0113 27.4872C39.3503 27.4872 38.7055 27.6927 38.1664 28.0752C37.7963 28.3465 37.3494 28.4928 36.8906 28.4928C36.4317 28.4928 35.9848 28.3465 35.6148 28.0752C35.0745 27.693 34.429 27.4877 33.7672 27.4877C33.1053 27.4877 32.4598 27.693 31.9195 28.0752C31.7841 28.1642 31.6436 28.2452 31.4988 28.318C31.5441 27.5761 31.8707 26.8796 32.4121 26.3703C32.9534 25.8611 33.6686 25.5775 34.4118 25.5775ZM31.488 29.4508C31.8461 29.3502 32.1839 29.1877 32.486 28.9707C32.857 28.6969 33.306 28.5492 33.7672 28.5492C34.2283 28.5492 34.6773 28.6969 35.0484 28.9707C35.5864 29.3536 36.2303 29.5593 36.8906 29.5593C37.5509 29.5593 38.1948 29.3536 38.7328 28.9707C39.0986 28.6894 39.5501 28.5427 40.0113 28.5553C40.4723 28.5444 40.9233 28.6909 41.2898 28.9707C41.829 29.3533 42.4737 29.5587 43.1348 29.5587C43.7958 29.5587 44.4406 29.3533 44.9797 28.9707C45.3434 28.6894 45.7932 28.5426 46.2528 28.5553C46.7164 28.5439 47.1698 28.6925 47.5367 28.9761C47.7997 29.1551 48.0843 29.3001 48.3837 29.4077V33.4697H31.488V29.4508ZM30.0045 34.5487H49.8672C50.603 34.5492 51.3117 34.8271 51.8516 35.3271C52.3916 35.8271 52.7232 36.5122 52.7802 37.2459H52.7478C52.2889 37.5761 51.7379 37.7537 51.1726 37.7537C50.6073 37.7537 50.0563 37.5761 49.5974 37.2459C48.9718 36.8038 48.2246 36.5664 47.4585 36.5664C46.6924 36.5664 45.9452 36.8038 45.3196 37.2459C44.8602 37.5773 44.3081 37.7556 43.7417 37.7556C43.1752 37.7556 42.6232 37.5773 42.1638 37.2459C41.5381 36.8038 40.7909 36.5664 40.0248 36.5664C39.2587 36.5664 38.5115 36.8038 37.8859 37.2459C37.427 37.5761 36.876 37.7537 36.3107 37.7537C35.7454 37.7537 35.1944 37.5761 34.7355 37.2459C34.1111 36.7872 33.3523 36.5482 32.5777 36.5662C31.8027 36.5457 31.0431 36.7849 30.4199 37.2459C29.9701 37.601 29.4123 37.7914 28.8393 37.7854C28.268 37.7906 27.7122 37.6002 27.264 37.2459L27.0591 37.1218C27.1467 36.4054 27.4958 35.7465 28.0394 35.2717C28.583 34.7968 29.2827 34.5393 30.0045 34.5487ZM27.0806 38.3788C27.6238 38.6995 28.2465 38.8603 28.877 38.8427C29.651 38.8619 30.4095 38.6249 31.0348 38.1684C31.4825 37.8133 32.0386 37.6229 32.61 37.6289C33.1831 37.6229 33.7409 37.8133 34.1906 38.1684C34.8001 38.626 35.5432 38.8706 36.3053 38.8643C37.0792 38.8835 37.8378 38.6464 38.4631 38.19C38.9225 37.8586 39.4746 37.6803 40.041 37.6803C40.6074 37.6803 41.1595 37.8586 41.6189 38.19C42.2396 38.6434 42.992 38.8803 43.7605 38.8643C44.5342 38.8815 45.2922 38.6446 45.9184 38.19C46.3778 37.8586 46.9298 37.6803 47.4963 37.6803C48.0627 37.6803 48.6148 37.8586 49.0742 38.19C49.6993 38.6468 50.458 38.8839 51.232 38.8643C51.7936 38.8797 52.3502 38.7535 52.8503 38.4975V44.1293H27.0806V38.3788ZM51.8038 47.1827H28.0678C27.4881 47.1808 26.9264 46.9808 26.476 46.6158C26.0256 46.2508 25.7136 45.7427 25.5917 45.1759H54.2799C54.158 45.7427 53.846 46.2508 53.3956 46.6158C52.9452 46.9808 52.3835 47.1808 51.8038 47.1827Z" fill="white"/>
<path d="M39.934 20.5229C40.4677 20.5229 40.9795 20.311 41.3568 19.9336C41.7342 19.5562 41.9462 19.0444 41.9462 18.5108C41.9462 17.6045 41.0993 16.7791 40.5382 16.2289L40.317 16.0077C40.2197 15.9054 40.086 15.8453 39.9448 15.8405C39.8742 15.8368 39.8037 15.8489 39.7383 15.876C39.673 15.9031 39.6145 15.9444 39.5672 15.9969L39.373 16.2073C38.7958 16.7468 37.9219 17.5991 37.9219 18.5378C37.929 19.0667 38.1441 19.5716 38.5207 19.9432C38.8973 20.3147 39.405 20.523 39.934 20.5229ZM39.934 17.0974C40.3117 17.4696 40.9104 18.0954 40.9104 18.5108C40.8922 18.7551 40.7823 18.9835 40.6027 19.1502C40.4231 19.3169 40.1871 19.4095 39.9421 19.4095C39.6971 19.4095 39.4612 19.3169 39.2816 19.1502C39.102 18.9835 38.9921 18.7551 38.9738 18.5108C38.9684 18.0954 39.5241 17.5074 39.9286 17.1136L39.934 17.0974Z" fill="white"/>
<path d="M51.2521 47.7309H50.2325V41.0525C50.2339 40.5306 50.1325 40.0136 49.9339 39.531C49.7354 39.0484 49.4436 38.6097 49.0754 38.2399C48.7071 37.8702 48.2696 37.5766 47.7878 37.3761C47.306 37.1756 46.7894 37.072 46.2675 37.0713H45.8306V32.1029C45.8292 31.0509 45.4102 30.0424 44.6658 29.2989C43.9213 28.5555 42.9123 28.138 41.8602 28.138H37.5985V25.1332C37.5985 24.9901 37.5417 24.8529 37.4405 24.7518C37.3394 24.6506 37.2021 24.5938 37.0591 24.5938H35.5972C35.4541 24.5938 35.3169 24.6506 35.2157 24.7518C35.1145 24.8529 35.0577 24.9901 35.0577 25.1332V28.138H30.796C29.7449 28.1394 28.7372 28.5576 27.9939 29.3009C27.2507 30.0441 26.8325 31.0518 26.831 32.1029V37.0713H26.4049C25.3537 37.0727 24.346 37.4909 23.6028 38.2342C22.8595 38.9775 22.4413 39.9852 22.4399 41.0363V47.7309H21.4203C21.2772 47.7309 21.14 47.7877 21.0389 47.8889C20.9377 47.9901 20.8809 48.1273 20.8809 48.2704C20.8823 49.2171 21.259 50.1246 21.9284 50.794C22.5978 51.4634 23.5053 51.8401 24.452 51.8415H48.188C49.1347 51.8401 50.0422 51.4634 50.7116 50.794C51.381 50.1246 51.7578 49.2171 51.7592 48.2704C51.7594 48.1327 51.7071 48.0002 51.6128 47.8999C51.5185 47.7996 51.3895 47.7392 51.2521 47.7309ZM36.1204 25.6511H36.552V28.138H36.1204V25.6511ZM30.8122 29.1791H41.8602C42.5961 29.1796 43.3047 29.4576 43.8447 29.9575C44.3847 30.4575 44.7162 31.1427 44.7733 31.8764C44.6816 31.8278 44.5952 31.7739 44.5035 31.7145C43.9648 31.3284 43.316 31.126 42.6532 31.1373C41.9976 31.1115 41.3515 31.3009 40.8137 31.6768C40.4431 31.9493 39.9952 32.0963 39.5352 32.0963C39.0752 32.0963 38.6272 31.9493 38.2567 31.6768C37.7175 31.2942 37.0728 31.0887 36.4117 31.0887C35.7507 31.0887 35.1059 31.2942 34.5668 31.6768C34.1967 31.9481 33.7498 32.0943 33.291 32.0943C32.8321 32.0943 32.3852 31.9481 32.0152 31.6768C31.4749 31.2945 30.8294 31.0893 30.1676 31.0893C29.5057 31.0893 28.8602 31.2945 28.3199 31.6768C28.1845 31.7657 28.044 31.8468 27.8992 31.9195C27.9445 31.1777 28.2711 30.4811 28.8125 29.9719C29.3538 29.4626 30.069 29.1791 30.8122 29.1791ZM27.8884 33.0524C28.2465 32.9518 28.5842 32.7893 28.8864 32.5723C29.2574 32.2985 29.7064 32.1507 30.1676 32.1507C30.6287 32.1507 31.0777 32.2985 31.4488 32.5723C31.9868 32.9551 32.6307 33.1608 33.291 33.1608C33.9513 33.1608 34.5952 32.9551 35.1332 32.5723C35.499 32.2909 35.9505 32.1442 36.4117 32.1569C36.8727 32.146 37.3237 32.2925 37.6902 32.5723C38.2294 32.9548 38.8741 33.1603 39.5352 33.1603C40.1962 33.1603 40.841 32.9548 41.3801 32.5723C41.7438 32.2909 42.1936 32.1442 42.6532 32.1569C43.1168 32.1454 43.5702 32.294 43.9371 32.5777C44.2001 32.7566 44.4847 32.9016 44.784 33.0092V37.0713H27.8884V33.0524ZM26.4049 38.1502H46.2675C47.0034 38.1507 47.7121 38.4287 48.252 38.9287C48.792 39.4286 49.1236 40.1138 49.1806 40.8475H49.1482C48.6893 41.1776 48.1383 41.3552 47.573 41.3552C47.0077 41.3552 46.4567 41.1776 45.9978 40.8475C45.3722 40.4053 44.625 40.1679 43.8589 40.1679C43.0928 40.1679 42.3456 40.4053 41.7199 40.8475C41.2605 41.1789 40.7085 41.3572 40.142 41.3572C39.5756 41.3572 39.0235 41.1789 38.5641 40.8475C37.9385 40.4053 37.1913 40.1679 36.4252 40.1679C35.6591 40.1679 34.9119 40.4053 34.2863 40.8475C33.8274 41.1776 33.2764 41.3552 32.7111 41.3552C32.1458 41.3552 31.5948 41.1776 31.1359 40.8475C30.5115 40.3887 29.7527 40.1497 28.9781 40.1678C28.2031 40.1472 27.4435 40.3865 26.8202 40.8475C26.3705 41.2026 25.8127 41.3929 25.2396 41.3869C24.6684 41.3921 24.1126 41.2018 23.6644 40.8475L23.4594 40.7234C23.5471 40.007 23.8962 39.3481 24.4398 38.8732C24.9834 38.3984 25.6831 38.1409 26.4049 38.1502ZM23.481 41.9803C24.0242 42.301 24.6469 42.4618 25.2774 42.4443C26.0513 42.4635 26.8099 42.2264 27.4352 41.7699C27.8829 41.4149 28.439 41.2244 29.0104 41.2305C29.5834 41.2245 30.1412 41.4149 30.591 41.7699C31.2005 42.2276 31.9435 42.4721 32.7057 42.4658C33.4796 42.4851 34.2382 42.248 34.8635 41.7915C35.3229 41.4602 35.875 41.2818 36.4414 41.2818C37.0078 41.2818 37.5599 41.4602 38.0193 41.7915C38.64 42.245 39.3924 42.4819 40.1609 42.4658C40.9346 42.483 41.6925 42.2462 42.3187 41.7915C42.7781 41.4602 43.3302 41.2818 43.8966 41.2818C44.4631 41.2818 45.0151 41.4602 45.4745 41.7915C46.0996 42.2484 46.8584 42.4855 47.6324 42.4658C48.194 42.4812 48.7506 42.3551 49.2507 42.099V47.7309H23.481V41.9803ZM48.2042 50.7842H24.4682C23.8885 50.7824 23.3268 50.5824 22.8764 50.2173C22.426 49.8523 22.114 49.3442 21.9921 48.7775H50.6803C50.5584 49.3442 50.2464 49.8523 49.796 50.2173C49.3456 50.5824 48.7839 50.7824 48.2042 50.7842Z" fill="#143441"/>
<path d="M36.3344 24.1245C36.8681 24.1245 37.3799 23.9125 37.7572 23.5352C38.1346 23.1578 38.3466 22.646 38.3466 22.1124C38.3466 21.2061 37.4996 20.3807 36.9386 19.8305L36.7174 19.6093C36.62 19.507 36.4864 19.4469 36.3452 19.4421C36.2746 19.4384 36.204 19.4505 36.1387 19.4776C36.0734 19.5046 36.0149 19.5459 35.9676 19.5985L35.7734 19.8089C35.1962 20.3483 34.3223 21.2007 34.3223 22.1393C34.3294 22.6683 34.5445 23.1732 34.9211 23.5447C35.2977 23.9163 35.8054 24.1246 36.3344 24.1245ZM36.3344 20.699C36.712 21.0712 37.3108 21.697 37.3108 22.1124C37.2926 22.3567 37.1827 22.5851 37.0031 22.7517C36.8235 22.9184 36.5875 23.011 36.3425 23.011C36.0975 23.011 35.8616 22.9184 35.682 22.7517C35.5024 22.5851 35.3924 22.3567 35.3742 22.1124C35.3688 21.697 35.9244 21.109 36.329 20.7152L36.3344 20.699Z" fill="#143441"/>
</svg>
