<svg width="72" height="72" viewBox="0 0 72 72" fill="none" xmlns="http://www.w3.org/2000/svg">
<circle cx="36" cy="36" r="36" fill="#F4F4F4"/>
<path d="M36.0007 32.1888C35.5699 32.1888 35.2207 31.8395 35.2207 31.4088V26.7292C35.2207 26.2985 35.5699 25.9492 36.0007 25.9492C36.4314 25.9492 36.7806 26.2985 36.7806 26.7292V31.4088C36.7806 31.8395 36.4314 32.1888 36.0007 32.1888Z" fill="#143441"/>
<path d="M37.9374 26.4282C37.9374 27.4988 37.0695 28.3666 35.999 28.3666C34.9285 28.3666 34.0605 27.4987 34.0605 26.4282C34.0605 24.8313 35.4637 22.8281 35.999 22.8281C36.5621 22.8282 37.9374 24.8313 37.9374 26.4282Z" fill="#8999A0"/>
<path d="M36.0016 29.1491C34.5026 29.1491 33.2832 27.9296 33.2832 26.4307C33.2832 25.5885 33.6033 24.5685 34.1618 23.6323C34.592 22.9108 35.2605 22.0508 36.0017 22.0508C37.262 22.0508 38.7201 24.7013 38.7201 26.4308C38.72 27.9296 37.5006 29.1491 36.0016 29.1491ZM36.01 23.7325C35.5922 24.1837 34.8431 25.407 34.8431 26.4307C34.8431 27.0694 35.3629 27.5892 36.0017 27.5892C36.6405 27.5892 37.1602 27.0695 37.1602 26.4307C37.1602 25.4355 36.4435 24.1902 36.01 23.7325Z" fill="#143441"/>
<path d="M24.8815 46.5897C24.4507 46.5897 24.1016 46.2405 24.1016 45.8098V39.1935C24.1016 37.5016 25.4781 36.125 27.1701 36.125H44.8322C46.5242 36.125 47.9007 37.5015 47.9007 39.1935V41.4617C47.9007 41.8924 47.5515 42.2417 47.1208 42.2417C46.69 42.2417 46.3408 41.8924 46.3408 41.4617V39.1935C46.3408 38.3616 45.664 37.6848 44.8321 37.6848H27.17C26.3381 37.6848 25.6614 38.3616 25.6614 39.1935V45.8098C25.6615 46.2405 25.3123 46.5897 24.8815 46.5897Z" fill="#143441"/>
<path d="M44.6078 36.9035V32.9174C44.6078 31.6535 43.5832 30.6289 42.3193 30.6289H29.6811C28.4172 30.6289 27.3926 31.6535 27.3926 32.9174V36.9035H44.6078Z" fill="#8999A0"/>
<path d="M44.6086 37.6821H27.3932C26.9625 37.6821 26.6133 37.3329 26.6133 36.9021V32.9161C26.6133 31.2242 27.9898 29.8477 29.6817 29.8477H42.32C44.0119 29.8477 45.3884 31.2241 45.3884 32.9161V36.9021C45.3885 37.3329 45.0393 37.6821 44.6086 37.6821ZM28.1732 36.1222H43.8286V32.9161C43.8286 32.0843 43.1519 31.4076 42.3201 31.4076H29.6817C28.8498 31.4076 28.1732 32.0843 28.1732 32.9161V36.1222Z" fill="#143441"/>
<path d="M47.4895 49.1705H24.5091C23.5538 49.1705 22.7793 48.396 22.7793 47.4407C22.7793 46.4854 23.5537 45.7109 24.5091 45.7109H47.4896C48.4449 45.7109 49.2194 46.4854 49.2194 47.4407C49.2193 48.3961 48.4449 49.1705 47.4895 49.1705Z" fill="#8999A0"/>
<path d="M47.4902 49.9529H24.5097C23.1258 49.9529 22 48.8271 22 47.4432C22 46.0594 23.1258 44.9336 24.5097 44.9336H47.4903C48.8742 44.9336 50 46.0594 50 47.4432C49.9999 48.8271 48.874 49.9529 47.4902 49.9529ZM24.5097 46.4935C23.986 46.4935 23.5599 46.9196 23.5599 47.4433C23.5599 47.967 23.986 48.3931 24.5097 48.3931H47.4903C48.014 48.3931 48.4401 47.967 48.4401 47.4433C48.4401 46.9197 48.014 46.4935 47.4903 46.4935H24.5097Z" fill="#143441"/>
</svg>
