<svg width="72" height="72" viewBox="0 0 72 72" fill="none" xmlns="http://www.w3.org/2000/svg">
<circle cx="36" cy="36" r="36" fill="#F4F4F4"/>
<path d="M48.0703 50H23.9319C23.4927 50 23.1367 49.644 23.1367 49.2048V22.7952C23.1367 22.356 23.4927 22 23.9319 22H48.0703C48.5095 22 48.8655 22.356 48.8655 22.7952V40.7708C48.8655 41.21 48.5095 41.566 48.0703 41.566C47.6311 41.566 47.2752 41.21 47.2752 40.7708V23.5903H24.727V48.4097H47.2751V45.5684C47.2751 45.1293 47.6311 44.7732 48.0703 44.7732C48.5095 44.7732 48.8654 45.1292 48.8654 45.5684V49.2048C48.8654 49.644 48.5095 50 48.0703 50Z" fill="#143441"/>
<path d="M44.4932 44.5356H42.4963C42.0572 44.5356 41.7012 44.1797 41.7012 43.7405C41.7012 43.3013 42.0571 42.9453 42.4963 42.9453H44.4932C44.9324 42.9453 45.2884 43.3013 45.2884 43.7405C45.2884 44.1797 44.9324 44.5356 44.4932 44.5356Z" fill="#143441"/>
<path d="M39.1816 44.5356H27.51C27.0709 44.5356 26.7148 44.1797 26.7148 43.7405C26.7148 43.3013 27.0708 42.9453 27.51 42.9453H39.1817C39.6208 42.9453 39.9768 43.3013 39.9768 43.7405C39.9768 44.1797 39.6208 44.5356 39.1816 44.5356Z" fill="#143441"/>
<path d="M27.5098 26.375V40.428H44.4919V26.375H27.5098ZM29.3771 40.3749L33.5954 33.0686L37.8138 40.3749H29.3771ZM39.5392 33.2276C38.4364 33.2276 37.5424 32.3336 37.5424 31.2308C37.5424 30.1279 38.4364 29.2339 39.5392 29.2339C40.6419 29.2339 41.5359 30.1279 41.5359 31.2308C41.5359 32.3336 40.642 33.2276 39.5392 33.2276Z" fill="#8999A0"/>
<path d="M44.4902 41.2214H27.508C27.0689 41.2214 26.7129 40.8655 26.7129 40.4263V26.3733C26.7129 25.9341 27.0689 25.5781 27.508 25.5781H44.4902C44.9294 25.5781 45.2854 25.9341 45.2854 26.3733V40.4263C45.2853 40.8654 44.9294 41.2214 44.4902 41.2214ZM38.3018 39.6311H43.6951V27.1684H28.3031V39.6311H28.8857L32.9051 32.6693C33.0471 32.4233 33.3096 32.2717 33.5937 32.2717C33.8778 32.2717 34.1403 32.4233 34.2822 32.6693L38.3018 39.6311ZM30.7526 39.5781H36.4349L33.5937 34.6572L30.7526 39.5781ZM39.5374 34.0211C37.998 34.0211 36.7455 32.7686 36.7455 31.229C36.7455 29.6895 37.998 28.4371 39.5374 28.4371C41.0769 28.4371 42.3293 29.6896 42.3293 31.229C42.3295 32.7686 41.0769 34.0211 39.5374 34.0211ZM39.5374 30.0274C38.8748 30.0274 38.3358 30.5665 38.3358 31.2291C38.3358 31.8917 38.8748 32.4308 39.5374 32.4308C40.2 32.4308 40.7391 31.8917 40.7391 31.2291C40.7391 30.5665 40.2 30.0274 39.5374 30.0274Z" fill="#143441"/>
</svg>
