<svg width="72" height="72" viewBox="0 0 72 72" fill="none" xmlns="http://www.w3.org/2000/svg">
<circle cx="36" cy="36" r="36" fill="#F4F4F4"/>
<path d="M34.4455 26.7368C34.38 26.9396 34.4332 27.1589 34.5864 27.3082L36.6592 29.3277L36.1699 32.1807C36.1345 32.3888 36.2212 32.6028 36.3919 32.7259C36.4875 32.7957 36.5997 32.8318 36.7181 32.8318C36.8078 32.8318 36.8974 32.81 36.9778 32.7689L39.5397 31.421L42.1028 32.7696C42.2927 32.8655 42.518 32.8483 42.6881 32.7259C42.8578 32.6022 42.9452 32.3884 42.9104 32.1813L42.4211 29.3274L44.4939 27.3078C44.6461 27.1576 44.6997 26.9389 44.6335 26.7358C44.5673 26.5336 44.3946 26.3884 44.1849 26.3576L41.3207 25.9411L40.0393 23.3448C39.944 23.1536 39.7527 23.0352 39.54 23.0352C39.3269 23.0352 39.1354 23.1539 39.0407 23.3455L37.759 25.9407L34.8948 26.3573C34.684 26.3887 34.5123 26.534 34.4455 26.7368ZM41.4328 28.7348C41.3005 28.8628 41.2416 29.0478 41.2737 29.2281L41.6211 31.2573L39.7984 30.2984C39.7187 30.2571 39.629 30.2352 39.54 30.2352C39.4497 30.2352 39.36 30.2571 39.2799 30.2984L37.4586 31.2573L37.806 29.2288C37.8374 29.0478 37.7775 28.8635 37.6465 28.7355L36.1725 27.2986L38.2086 27.0021C38.3896 26.9766 38.5464 26.8625 38.6288 26.6974L39.5393 24.8512L40.4498 26.6974C40.5312 26.8625 40.6894 26.9766 40.87 27.0015L42.9064 27.2982L41.4328 28.7348Z" fill="white"/>
<path d="M25.5589 27.129L26.5203 28.9189C26.6176 29.0999 26.8055 29.2124 27.011 29.2124H27.0269H27.0295C27.2399 29.2058 27.4318 29.0771 27.5189 28.8842L28.3546 27.0331L30.3546 26.6711C30.5644 26.6327 30.7311 26.4818 30.7904 26.2767C30.8489 26.0746 30.7857 25.8526 30.6299 25.7116L29.1271 24.3435L29.4011 22.3309C29.4299 22.1192 29.3382 21.9134 29.1606 21.7933C28.9879 21.6758 28.7526 21.6679 28.5733 21.7721L26.8085 22.7789L24.9792 21.8965C24.7926 21.8042 24.558 21.8297 24.3936 21.9587C24.2259 22.0897 24.1481 22.3008 24.1911 22.5103L24.603 24.4997L23.1979 25.968C23.0507 26.1225 23.004 26.3432 23.0768 26.544C23.1489 26.7409 23.3306 26.8835 23.5393 26.906L25.5589 27.129ZM25.5112 23.3897L26.5885 23.9091C26.7509 23.9859 26.9504 23.9819 27.1066 23.8906L28.1452 23.298L27.9837 24.4828C27.9589 24.6645 28.0251 24.8468 28.1611 24.9708L29.0458 25.7755L27.8682 25.9885C27.6879 26.0213 27.5351 26.1401 27.4596 26.3075L26.9677 27.3977L26.4022 26.3436C26.3165 26.1837 26.1561 26.0752 25.9724 26.0541L24.7837 25.9224L25.6105 25.0588C25.7375 24.9272 25.7908 24.7406 25.7541 24.5602L25.5112 23.3897Z" fill="white"/>
<path d="M55.9457 32.9645L54.4426 31.5974L54.7175 29.5839C54.746 29.3731 54.6544 29.1673 54.4767 29.0462C54.3017 28.9294 54.0681 28.9225 53.8878 29.0257L52.1243 30.0315L50.2947 29.1488C50.1081 29.0611 49.8751 29.0833 49.71 29.212C49.5426 29.343 49.4649 29.5537 49.5062 29.7638L49.9191 31.7533L48.5147 33.2206C48.3681 33.3725 48.3201 33.5988 48.3929 33.798C48.4677 33.9981 48.645 34.1368 48.8554 34.1599L50.875 34.3829L51.8368 36.1725C51.9334 36.3535 52.1213 36.466 52.3271 36.466H52.3437H52.3466C52.5574 36.4584 52.7496 36.3293 52.835 36.1381L53.6717 34.286L55.6701 33.925C55.8818 33.8866 56.0496 33.7348 56.1065 33.53C56.1644 33.3285 56.1018 33.1061 55.9457 32.9645ZM50.8273 30.6436L51.9046 31.1634C52.0661 31.2401 52.2679 31.2352 52.4221 31.1448L53.461 30.5516L53.2992 31.7371C53.2744 31.92 53.3412 32.1023 53.4778 32.2241L54.3615 33.0294L53.1867 33.2425C53.0044 33.2732 52.8505 33.3927 52.7768 33.5617L52.2841 34.6516L51.718 33.5978C51.631 33.437 51.4709 33.3281 51.2879 33.3073L50.0995 33.1763L50.9253 32.3137C51.0513 32.1834 51.1056 31.9974 51.0705 31.8145L50.8273 30.6436Z" fill="white"/>
<path d="M44.3095 24.1471C45.4215 24.1471 46.3274 23.2428 46.3274 22.1305C46.3274 21.0182 45.4219 20.1133 44.3095 20.1133C43.1972 20.1133 42.293 21.0182 42.293 22.1305C42.293 23.2428 43.1972 24.1471 44.3095 24.1471ZM44.3095 21.2279C44.8071 21.2279 45.2124 21.6332 45.2124 22.1308C45.2124 22.6288 44.8071 23.0331 44.3095 23.0331C43.8126 23.0331 43.408 22.6288 43.408 22.1308C43.408 21.6329 43.8126 21.2279 44.3095 21.2279Z" fill="white"/>
<path d="M28.0908 40.6797C26.9788 40.6797 26.0742 41.5839 26.0742 42.6963C26.0742 43.8086 26.9788 44.7128 28.0908 44.7128C29.2031 44.7128 30.1077 43.8086 30.1077 42.6963C30.1077 41.5839 29.2031 40.6797 28.0908 40.6797ZM28.0908 43.5985C27.5932 43.5985 27.1882 43.1939 27.1882 42.6963C27.1882 42.1986 27.5932 41.7933 28.0908 41.7933C28.5884 41.7933 28.9934 42.1986 28.9934 42.6963C28.9934 43.1939 28.5887 43.5985 28.0908 43.5985Z" fill="white"/>
<path d="M51.0921 38.3945C49.9791 38.3945 49.0742 39.2994 49.0742 40.4118C49.0742 41.5241 49.9788 42.428 51.0921 42.428C52.2041 42.428 53.1087 41.5241 53.1087 40.4118C53.1087 39.2994 52.2044 38.3945 51.0921 38.3945ZM51.0921 41.3137C50.5942 41.3137 50.1899 40.909 50.1899 40.4114C50.1899 39.9135 50.5942 39.5085 51.0921 39.5085C51.5897 39.5085 51.9943 39.9138 51.9943 40.4114C51.9943 40.9094 51.5897 41.3137 51.0921 41.3137Z" fill="white"/>
<path d="M26.8716 34.8639C26.8716 33.9177 27.6415 33.1474 28.5881 33.1474C28.8951 33.1474 29.1453 32.8973 29.1453 32.5906C29.1453 32.2836 28.8955 32.0334 28.5881 32.0334C27.6495 32.0334 26.8799 31.2695 26.8726 30.3305C26.8703 30.0252 26.6192 29.7773 26.3138 29.7773C26.0088 29.7773 25.7586 30.0258 25.7566 30.3305C25.7494 31.2682 24.9805 32.0325 24.024 32.0331C23.7166 32.0331 23.4668 32.2832 23.4668 32.5916C23.4668 32.81 23.6048 33.0095 23.8135 33.0968C23.8393 33.1091 23.8628 33.114 23.8982 33.1233C23.9204 33.1309 23.9502 33.1418 23.9879 33.1451L24.0412 33.1474C24.9874 33.1474 25.7573 33.9177 25.7573 34.8639C25.7573 35.1706 26.0071 35.4207 26.3145 35.4207C26.6218 35.4207 26.8716 35.1706 26.8716 34.8639ZM26.3145 33.1792C26.1481 32.9549 25.9482 32.7557 25.7239 32.589C25.9485 32.4215 26.1481 32.2224 26.3145 31.998C26.4809 32.2224 26.6807 32.4225 26.905 32.589C26.6811 32.7557 26.4816 32.9552 26.3145 33.1792Z" fill="white"/>
<path d="M31.4975 21.3215C31.5167 21.3297 31.5375 21.3357 31.5795 21.3463C31.6024 21.3539 31.6321 21.3648 31.6692 21.3681L31.7225 21.3704C32.6687 21.3704 33.439 22.1407 33.439 23.0869C33.439 23.3936 33.6881 23.6437 33.9958 23.6437C34.3025 23.6437 34.5526 23.3936 34.5526 23.0869C34.5526 22.1407 35.3232 21.3704 36.2701 21.3704C36.5768 21.3704 36.8269 21.1203 36.8269 20.8133C36.8269 20.5056 36.5771 20.2558 36.2701 20.2558C35.3318 20.2558 34.5619 19.4915 34.5539 18.5532C34.5519 18.2485 34.3012 18 33.9951 18C33.6897 18 33.4403 18.2485 33.4376 18.5532C33.4307 19.4915 32.6608 20.2558 31.7059 20.2558C31.3982 20.2558 31.1484 20.5056 31.1484 20.8143C31.1484 21.033 31.2861 21.2321 31.4975 21.3215ZM33.4049 20.8123C33.6299 20.6449 33.8294 20.4457 33.9958 20.2214C34.1622 20.4457 34.3617 20.6455 34.5867 20.8123C34.3624 20.979 34.1622 21.1782 33.9958 21.4025C33.8294 21.1782 33.6299 20.9787 33.4049 20.8123Z" fill="white"/>
<path d="M48.4808 23.5838C48.5069 23.5957 48.5298 23.6016 48.5668 23.6112C48.589 23.6192 48.6224 23.6308 48.6588 23.6327L48.7114 23.6354C49.6573 23.6354 50.4272 24.4053 50.4272 25.3515C50.4272 25.6592 50.6767 25.9094 50.9834 25.9094C51.2911 25.9094 51.5419 25.6592 51.5419 25.3515C51.5419 24.4056 52.3115 23.6354 53.258 23.6354C53.5651 23.6354 53.8149 23.3856 53.8149 23.0779C53.8149 22.7709 53.5651 22.5211 53.258 22.5211C52.3194 22.5211 51.5498 21.7568 51.5419 20.8182C51.5396 20.5131 51.2891 20.2656 50.9834 20.2656C50.6787 20.2656 50.4295 20.5131 50.4272 20.8182C50.4196 21.7558 49.6504 22.5197 48.6935 22.5204C48.3868 22.5204 48.1367 22.7705 48.1367 23.0792C48.1367 23.2979 48.275 23.4974 48.4808 23.5838ZM50.3945 23.0772C50.6181 22.9098 50.8173 22.7106 50.9841 22.4857C51.1511 22.7106 51.3503 22.9105 51.574 23.0772C51.3503 23.243 51.1511 23.4425 50.9841 23.6675C50.8173 23.4432 50.6181 23.2437 50.3945 23.0772Z" fill="white"/>
<path d="M39.5341 33.9844C39.227 33.9844 38.9766 34.2342 38.9766 34.5419V46.2442C38.9766 46.5513 39.227 46.8004 39.5341 46.8004C39.8408 46.8004 40.0915 46.5513 40.0915 46.2442V34.5419C40.0915 34.2342 39.8411 33.9844 39.5341 33.9844Z" fill="white"/>
<path d="M49.7421 28.1987C49.8523 28.0988 49.9171 27.9615 49.9244 27.8126C49.932 27.6647 49.8808 27.5221 49.7812 27.4113C49.583 27.1933 49.2151 27.1731 48.9944 27.3713C44.2503 31.6525 41.5293 37.77 41.5293 44.1552C41.5293 44.8609 41.5634 45.5802 41.6289 46.2949C41.6573 46.5827 41.8962 46.7988 42.1844 46.7988L42.237 46.7968C42.3849 46.7826 42.5192 46.7121 42.6138 46.5969C42.7085 46.4821 42.7535 46.3379 42.7399 46.1903C42.6767 45.5134 42.6446 44.8285 42.6446 44.1556C42.6443 38.084 45.2319 32.2679 49.7421 28.1987Z" fill="white"/>
<path d="M51.0185 36.195C51.0397 36.0478 51.0029 35.9009 50.9139 35.7814C50.7359 35.5436 50.3697 35.49 50.1344 35.668C47.1577 37.8824 45.0727 41.0999 44.2641 44.7275C44.1572 45.2075 44.0725 45.6945 44.0119 46.1749C43.9749 46.48 44.1913 46.7589 44.4917 46.7966C44.5158 46.7996 44.5413 46.8009 44.5658 46.8009C44.845 46.8009 45.0816 46.5918 45.117 46.3139C45.1756 45.8577 45.2543 45.4054 45.3519 44.9703C46.101 41.6038 48.0355 38.6179 50.7994 36.5616C50.9186 36.4726 50.997 36.3422 51.0185 36.195Z" fill="white"/>
<path d="M28.9225 35.6663C28.6849 35.4906 28.32 35.5439 28.143 35.7811C27.9597 36.0273 28.0113 36.377 28.2575 36.5606C31.0208 38.6162 32.955 41.6022 33.7047 44.9693C33.8036 45.415 33.8827 45.8672 33.9389 46.3129C33.9747 46.5908 34.2125 46.7999 34.4915 46.7999C34.5149 46.7999 34.5384 46.7986 34.5613 46.7956C34.7095 46.7771 34.8412 46.7027 34.9331 46.5849C35.0241 46.4668 35.0642 46.3205 35.045 46.1733C34.9818 45.6787 34.8968 45.1913 34.7922 44.7265C33.9843 41.0996 31.8999 37.882 28.9225 35.6663Z" fill="white"/>
<path d="M30.0499 27.3717C29.8299 27.1735 29.4607 27.1924 29.2631 27.4117C29.1632 27.5226 29.1123 27.6652 29.1199 27.8141C29.1275 27.9626 29.1923 28.0993 29.3032 28.1992C33.8127 32.269 36.3997 38.0845 36.3997 44.1557C36.3997 44.8353 36.3683 45.5201 36.3051 46.1898C36.2909 46.338 36.3355 46.4826 36.4295 46.5971C36.5251 46.7125 36.6588 46.783 36.804 46.7966L36.8596 46.7992C37.1488 46.7992 37.3863 46.5822 37.4141 46.2947C37.4803 45.587 37.5137 44.868 37.5137 44.1557C37.514 37.7702 34.7934 31.653 30.0499 27.3717Z" fill="white"/>
<path d="M30.8439 30.3383C30.7784 30.5411 30.8317 30.7605 30.9849 30.9097L33.0577 32.9293L32.5683 35.7822C32.5329 35.9903 32.6196 36.2044 32.7903 36.3275C32.886 36.3973 32.9981 36.4334 33.1166 36.4334C33.2062 36.4334 33.2959 36.4115 33.3763 36.3705L35.9381 35.0226L38.5012 36.3712C38.6911 36.4671 38.9165 36.4499 39.0865 36.3275C39.2562 36.2037 39.3436 35.99 39.3089 35.7829L38.8195 32.9289L40.8923 30.9094C41.0445 30.7592 41.0981 30.5405 41.032 30.3373C40.9658 30.1352 40.7931 29.9899 40.5833 29.9592L37.7191 29.5426L36.4377 26.9464C36.3424 26.7552 36.1512 26.6367 35.9384 26.6367C35.7254 26.6367 35.5338 26.7555 35.4392 26.9471L34.1574 29.5423L31.2932 29.9588C31.0825 29.9903 30.9107 30.1355 30.8439 30.3383ZM37.8313 32.3364C37.6989 32.4644 37.64 32.6494 37.6721 32.8297L38.0195 34.8588L36.1968 33.9C36.1171 33.8586 36.0274 33.8368 35.9384 33.8368C35.8481 33.8368 35.7584 33.8586 35.6784 33.9L33.857 34.8588L34.2044 32.8303C34.2358 32.6494 34.176 32.4651 34.0449 32.337L32.571 30.9001L34.6071 30.6037C34.788 30.5782 34.9449 30.4641 35.0273 30.299L35.9378 28.4528L36.8483 30.299C36.9297 30.4641 37.0878 30.5782 37.2685 30.603L39.3049 30.8998L37.8313 32.3364Z" fill="#143441"/>
<path d="M21.9573 30.7306L22.9188 32.5205C23.016 32.7015 23.204 32.814 23.4094 32.814H23.4253H23.428C23.6384 32.8073 23.8303 32.6786 23.9173 32.4858L24.753 30.6346L26.7531 30.2727C26.9628 30.2343 27.1296 30.0834 27.1888 29.8783C27.2474 29.6761 27.1842 29.4541 27.0283 29.3132L25.5256 27.9451L25.7995 25.9325C25.8283 25.7207 25.7367 25.515 25.559 25.3949C25.3863 25.2774 25.1511 25.2695 24.9717 25.3737L23.2069 26.3805L21.3776 25.4981C21.191 25.4058 20.9565 25.4312 20.792 25.5603C20.6243 25.6913 20.5465 25.9024 20.5896 26.1118L21.0015 28.1013L19.5963 29.5696C19.4491 29.7241 19.4024 29.9448 19.4752 30.1456C19.5474 30.3425 19.729 30.4851 19.9378 30.5076L21.9573 30.7306ZM21.9097 26.9912L22.9869 27.5107C23.1494 27.5874 23.3489 27.5835 23.5051 27.4921L24.5436 26.8996L24.3821 28.0844C24.3573 28.266 24.4235 28.4483 24.5595 28.5724L25.4442 29.377L24.2667 29.5901C24.0864 29.6229 23.9335 29.7416 23.8581 29.909L23.3661 30.9992L22.8007 29.9451C22.715 29.7853 22.5545 29.6768 22.3709 29.6556L21.1821 29.5239L22.0089 28.6604C22.136 28.5287 22.1892 28.3421 22.1525 28.1618L21.9097 26.9912Z" fill="#143441"/>
<path d="M52.3441 36.5661L50.841 35.199L51.116 33.1854C51.1444 32.9747 51.0528 32.7689 50.8751 32.6478C50.7001 32.531 50.4665 32.524 50.2862 32.6273L48.5227 33.6331L46.6931 32.7503C46.5065 32.6627 46.2736 32.6848 46.1085 32.8135C45.9411 32.9446 45.8633 33.1553 45.9047 33.3654L46.3176 35.3548L44.9131 36.8222C44.7665 36.974 44.7186 37.2003 44.7914 37.3995C44.8661 37.5997 45.0435 37.7383 45.2539 37.7615L47.2734 37.9845L48.2352 39.7741C48.3318 39.9551 48.5198 40.0675 48.7256 40.0675H48.7421H48.7451C48.9558 40.0599 49.1481 39.9309 49.2334 39.7397L50.0702 37.8875L52.0685 37.5266C52.2803 37.4882 52.448 37.3363 52.5049 37.1315C52.5628 36.93 52.5003 36.7077 52.3441 36.5661ZM47.2258 34.2451L48.3031 34.7649C48.4645 34.8417 48.6663 34.8367 48.8205 34.7464L49.8594 34.1532L49.6976 35.3386C49.6728 35.5216 49.7396 35.7039 49.8763 35.8256L50.76 36.6309L49.5851 36.844C49.4028 36.8748 49.249 36.9942 49.1752 37.1633L48.6825 38.2531L48.1164 37.1994C48.0294 37.0386 47.8693 36.9297 47.6863 36.9089L46.4979 36.7778L47.3237 35.9153C47.4498 35.7849 47.504 35.599 47.469 35.416L47.2258 34.2451Z" fill="#143441"/>
<path d="M40.708 27.7486C41.82 27.7486 42.7259 26.8444 42.7259 25.7321C42.7259 24.6197 41.8203 23.7148 40.708 23.7148C39.5956 23.7148 38.6914 24.6197 38.6914 25.7321C38.6914 26.8444 39.5956 27.7486 40.708 27.7486ZM40.708 24.8295C41.2056 24.8295 41.6109 25.2348 41.6109 25.7324C41.6109 26.2303 41.2056 26.6346 40.708 26.6346C40.211 26.6346 39.8064 26.2303 39.8064 25.7324C39.8064 25.2345 40.211 24.8295 40.708 24.8295Z" fill="#143441"/>
<path d="M24.4892 44.2812C23.3772 44.2812 22.4727 45.1855 22.4727 46.2978C22.4727 47.4102 23.3772 48.3144 24.4892 48.3144C25.6016 48.3144 26.5061 47.4102 26.5061 46.2978C26.5061 45.1855 25.6016 44.2812 24.4892 44.2812ZM24.4892 47.2001C23.9916 47.2001 23.5866 46.7954 23.5866 46.2978C23.5866 45.8002 23.9916 45.3949 24.4892 45.3949C24.9868 45.3949 25.3918 45.8002 25.3918 46.2978C25.3918 46.7954 24.9872 47.2001 24.4892 47.2001Z" fill="#143441"/>
<path d="M47.4905 41.9961C46.3775 41.9961 45.4727 42.901 45.4727 44.0133C45.4727 45.1257 46.3772 46.0296 47.4905 46.0296C48.6026 46.0296 49.5071 45.1257 49.5071 44.0133C49.5071 42.901 48.6029 41.9961 47.4905 41.9961ZM47.4905 44.9152C46.9926 44.9152 46.5883 44.5106 46.5883 44.013C46.5883 43.5151 46.9926 43.1101 47.4905 43.1101C47.9882 43.1101 48.3928 43.5154 48.3928 44.013C48.3928 44.5109 47.9882 44.9152 47.4905 44.9152Z" fill="#143441"/>
<path d="M23.2701 38.4655C23.2701 37.5192 24.04 36.749 24.9865 36.749C25.2936 36.749 25.5437 36.4989 25.5437 36.1922C25.5437 35.8851 25.2939 35.635 24.9865 35.635C24.0479 35.635 23.2783 34.8711 23.2711 33.9321C23.2687 33.6267 23.0176 33.3789 22.7122 33.3789C22.4072 33.3789 22.1571 33.6274 22.1551 33.9321C22.1478 34.8697 21.3789 35.634 20.4224 35.6347C20.115 35.6347 19.8652 35.8848 19.8652 36.1932C19.8652 36.4115 20.0032 36.611 20.212 36.6984C20.2378 36.7106 20.2613 36.7156 20.2967 36.7249C20.3188 36.7325 20.3486 36.7434 20.3863 36.7467L20.4396 36.749C21.3858 36.749 22.1557 37.5192 22.1557 38.4655C22.1557 38.7722 22.4055 39.0223 22.7129 39.0223C23.0203 39.0223 23.2701 38.7722 23.2701 38.4655ZM22.7129 36.7808C22.5465 36.5564 22.3467 36.3573 22.1223 36.1905C22.347 36.0231 22.5465 35.8239 22.7129 35.5996C22.8793 35.8239 23.0792 36.0241 23.3035 36.1905C23.0795 36.3573 22.88 36.5568 22.7129 36.7808Z" fill="#143441"/>
<path d="M27.8959 24.923C27.9151 24.9313 27.936 24.9372 27.978 24.9478C28.0008 24.9554 28.0306 24.9664 28.0676 24.9697L28.1209 24.972C29.0672 24.972 29.8374 25.7422 29.8374 26.6885C29.8374 26.9952 30.0865 27.2453 30.3942 27.2453C30.7009 27.2453 30.951 26.9952 30.951 26.6885C30.951 25.7422 31.7216 24.972 32.6685 24.972C32.9752 24.972 33.2254 24.7219 33.2254 24.4148C33.2254 24.1071 32.9756 23.8573 32.6685 23.8573C31.7302 23.8573 30.9603 23.0931 30.9524 22.1548C30.9504 21.85 30.6996 21.6016 30.3936 21.6016C30.0882 21.6016 29.8387 21.85 29.8361 22.1548C29.8291 23.0931 29.0592 23.8573 28.1044 23.8573C27.7967 23.8573 27.5469 24.1071 27.5469 24.4158C27.5469 24.6345 27.6845 24.8337 27.8959 24.923ZM29.8033 24.4138C30.0283 24.2464 30.2278 24.0472 30.3942 23.8229C30.5606 24.0472 30.7601 24.2471 30.9851 24.4138C30.7608 24.5806 30.5606 24.7798 30.3942 25.0041C30.2278 24.7798 30.0283 24.5803 29.8033 24.4138Z" fill="#143441"/>
<path d="M44.8792 27.1853C44.9054 27.1972 44.9282 27.2032 44.9653 27.2128C44.9874 27.2207 45.0209 27.2323 45.0572 27.2343L45.1099 27.237C46.0558 27.237 46.8257 28.0069 46.8257 28.9531C46.8257 29.2608 47.0751 29.5109 47.3818 29.5109C47.6895 29.5109 47.9403 29.2608 47.9403 28.9531C47.9403 28.0072 48.7099 27.237 49.6565 27.237C49.9635 27.237 50.2133 26.9872 50.2133 26.6795C50.2133 26.3724 49.9635 26.1226 49.6565 26.1226C48.7178 26.1226 47.9483 25.3584 47.9403 24.4197C47.938 24.1147 47.6875 23.8672 47.3818 23.8672C47.0771 23.8672 46.828 24.1147 46.8257 24.4197C46.8181 25.3574 46.0488 26.1213 45.092 26.122C44.7853 26.122 44.5352 26.3721 44.5352 26.6808C44.5352 26.8995 44.6735 27.099 44.8792 27.1853ZM46.7929 26.6788C47.0166 26.5114 47.2157 26.3122 47.3825 26.0872C47.5496 26.3122 47.7488 26.512 47.9724 26.6788C47.7488 26.8446 47.5496 27.0441 47.3825 27.269C47.2157 27.0447 47.0166 26.8452 46.7929 26.6788Z" fill="#143441"/>
<path d="M35.9325 37.5859C35.6255 37.5859 35.375 37.8357 35.375 38.1434V49.8458C35.375 50.1528 35.6255 50.402 35.9325 50.402C36.2392 50.402 36.49 50.1528 36.49 49.8458V38.1434C36.49 37.8357 36.2395 37.5859 35.9325 37.5859Z" fill="#143441"/>
<path d="M46.1406 31.8003C46.2507 31.7004 46.3156 31.5631 46.3229 31.4142C46.3305 31.2663 46.2792 31.1237 46.1796 31.0129C45.9814 30.7948 45.6135 30.7746 45.3928 30.9728C40.6487 35.2541 37.9277 41.3716 37.9277 47.7568C37.9277 48.4625 37.9618 49.1818 38.0273 49.8964C38.0558 50.1843 38.2947 50.4003 38.5828 50.4003L38.6354 50.3983C38.7833 50.3841 38.9177 50.3136 39.0123 50.1985C39.1069 50.0837 39.1519 49.9394 39.1383 49.7919C39.0751 49.115 39.043 48.4301 39.043 47.7571C39.0427 41.6856 41.6303 35.8695 46.1406 31.8003Z" fill="#143441"/>
<path d="M47.4169 39.7966C47.4381 39.6493 47.4014 39.5024 47.3124 39.383C47.1344 39.1451 46.7681 39.0915 46.5329 39.2695C43.5562 41.4839 41.4711 44.7015 40.6625 48.329C40.5556 48.8091 40.4709 49.2961 40.4104 49.7765C40.3733 50.0816 40.5897 50.3605 40.8901 50.3982C40.9143 50.4012 40.9398 50.4025 40.9642 50.4025C41.2435 50.4025 41.48 50.1934 41.5154 49.9155C41.574 49.4592 41.6527 49.0069 41.7503 48.5719C42.4994 45.2054 44.4339 42.2194 47.1979 40.1632C47.317 40.0742 47.3954 39.9438 47.4169 39.7966Z" fill="#143441"/>
<path d="M25.3209 39.2679C25.0834 39.0922 24.7184 39.1455 24.5414 39.3827C24.3581 39.6288 24.4098 39.9785 24.6559 40.1622C27.4192 42.2178 29.3534 45.2037 30.1031 48.5709C30.202 49.0165 30.2811 49.4688 30.3374 49.9145C30.3731 50.1924 30.611 50.4015 30.8899 50.4015C30.9134 50.4015 30.9369 50.4002 30.9597 50.3972C31.1079 50.3787 31.2396 50.3042 31.3316 50.1864C31.4226 50.0683 31.4626 49.9221 31.4434 49.7749C31.3802 49.2802 31.2952 48.7929 31.1906 48.328C30.3827 44.7012 28.2983 41.4836 25.3209 39.2679Z" fill="#143441"/>
<path d="M26.4484 30.9733C26.2283 30.7751 25.8591 30.794 25.6616 31.0133C25.5617 31.1241 25.5107 31.2667 25.5183 31.4156C25.5259 31.5642 25.5908 31.7008 25.7016 31.8007C30.2112 35.8706 32.7981 41.6861 32.7981 47.7573C32.7981 48.4368 32.7667 49.1217 32.7035 49.7914C32.6893 49.9396 32.734 50.0842 32.8279 50.1986C32.9235 50.3141 33.0572 50.3846 33.2024 50.3981L33.258 50.4008C33.5472 50.4008 33.7848 50.1838 33.8125 49.8962C33.8787 49.1885 33.9121 48.4696 33.9121 47.7573C33.9125 41.3717 31.1918 35.2545 26.4484 30.9733Z" fill="#143441"/>
</svg>
