<svg width="72" height="72" viewBox="0 0 72 72" fill="none" xmlns="http://www.w3.org/2000/svg">
<circle cx="36" cy="36" r="36" fill="#F4F4F4"/>
<g clip-path="url(#clip0)">
<path d="M43.3241 41.1387H39.6385C38.9802 41.1387 38.3905 40.7983 38.0613 40.2282C37.7322 39.658 37.7321 38.9771 38.0613 38.4068L38.9265 36.9084C39.1116 36.5878 39.4877 36.4298 39.8459 36.5223C40.9079 36.7956 42.0551 36.7955 43.1169 36.5223C43.4754 36.4299 43.8513 36.5879 44.0363 36.9084L44.9015 38.4068C45.2307 38.977 45.2307 39.6579 44.9015 40.2282C44.5723 40.7984 43.9825 41.1387 43.3241 41.1387ZM40.054 38.2527L39.4891 39.2312C39.4478 39.3025 39.4664 39.3644 39.4891 39.4037C39.5118 39.4431 39.5562 39.49 39.6385 39.49H43.3241C43.4065 39.49 43.4509 39.4431 43.4736 39.4037C43.4963 39.3643 43.5148 39.3024 43.4736 39.2312L42.9087 38.2527C41.9697 38.4177 40.993 38.4177 40.054 38.2527Z" fill="#143441"/>
<path d="M30.5177 49.9984C30.0624 49.9984 29.6934 49.6293 29.6934 49.174V37.5509C29.6934 37.0956 30.0624 36.7266 30.5177 36.7266C30.973 36.7266 31.3421 37.0956 31.3421 37.5509V49.174C31.342 49.6293 30.973 49.9984 30.5177 49.9984Z" fill="#143441"/>
<path d="M27.8128 38.82L30.5189 34.1328L33.2251 38.82C33.6088 39.4845 33.1291 40.3153 32.3617 40.3153H28.6761C27.9086 40.3153 27.4291 39.4845 27.8128 38.82Z" fill="#8999A0"/>
<path d="M32.3613 41.1398H28.6757C28.0173 41.1398 27.4277 40.7994 27.0985 40.2293C26.7693 39.6591 26.7693 38.9782 27.0985 38.4079L29.8046 33.7208C29.9519 33.4657 30.224 33.3086 30.5185 33.3086C30.8131 33.3086 31.0852 33.4657 31.2324 33.7208L33.9386 38.4079C34.2678 38.9781 34.2678 39.659 33.9386 40.2293C33.6092 40.7994 33.0197 41.1398 32.3613 41.1398ZM30.5185 35.7816L28.5262 39.2323C28.485 39.3036 28.5035 39.3655 28.5262 39.4049C28.549 39.4443 28.5933 39.4911 28.6757 39.4911H32.3613C32.4436 39.4911 32.488 39.4442 32.5107 39.4049C32.5334 39.3655 32.552 39.3036 32.5107 39.2323L30.5185 35.7816Z" fill="#143441"/>
<path d="M41.482 38.3768C40.3175 38.3768 39.1917 38.1368 38.1359 37.6635C37.7204 37.4772 37.5347 36.9895 37.7209 36.5741C37.9073 36.1587 38.395 35.973 38.8104 36.1591C39.6525 36.5368 40.5514 36.7282 41.4819 36.7282C45.0879 36.7282 48.0217 33.7945 48.0217 30.1885C48.0217 26.5824 45.088 23.6487 41.4819 23.6487C40.5512 23.6487 39.6524 23.8402 38.8103 24.2178C38.395 24.4041 37.9071 24.2184 37.7208 23.8029C37.5345 23.3875 37.7202 22.8997 38.1357 22.7135C39.1915 22.24 40.3173 22 41.482 22C45.9971 22 49.6704 25.6733 49.6704 30.1885C49.6704 34.7035 45.9971 38.3768 41.482 38.3768Z" fill="#143441"/>
<path d="M30.518 37.5516C34.5848 37.5516 37.8816 34.2547 37.8816 30.1879C37.8816 26.121 34.5848 22.8242 30.518 22.8242C26.4511 22.8242 23.1543 26.121 23.1543 30.1879C23.1543 34.2547 26.4511 37.5516 30.518 37.5516Z" fill="#8999A0"/>
<path d="M30.5185 38.3769C26.0034 38.3769 22.3301 34.7036 22.3301 30.1885C22.3301 25.6733 26.0034 22 30.5185 22C35.0337 22 38.7069 25.6733 38.7069 30.1885C38.7069 34.7036 35.0337 38.3769 30.5185 38.3769ZM30.5185 23.6487C26.9125 23.6487 23.9787 26.5824 23.9787 30.1885C23.9787 33.7946 26.9125 36.7283 30.5185 36.7283C34.1246 36.7283 37.0582 33.7946 37.0582 30.1885C37.0582 26.5824 34.1246 23.6487 30.5185 23.6487Z" fill="#143441"/>
<path d="M41.4826 50.0022C41.0273 50.0022 40.6582 49.6332 40.6582 49.1778V40.3165C40.6582 39.8613 41.0272 39.4922 41.4826 39.4922C41.9379 39.4922 42.3069 39.8612 42.3069 40.3165V49.1778C42.3069 49.6332 41.9378 50.0022 41.4826 50.0022Z" fill="#143441"/>
</g>
<defs>
<clipPath id="clip0">
<rect x="22" y="22" width="28" height="28" fill="white"/>
</clipPath>
</defs>
</svg>
