<svg width="72" height="72" viewBox="0 0 72 72" fill="none" xmlns="http://www.w3.org/2000/svg">
<circle cx="36" cy="36" r="36" fill="#F4F4F4"/>
<path d="M52.1246 20.8789H41.4366C40.0029 20.8789 38.836 22.0481 38.836 23.4893V25.6702C38.836 26.0949 39.1789 26.4385 39.5981 26.4385C40.022 26.4385 40.3602 26.0949 40.3602 25.6702V23.4893C40.3602 22.8975 40.8412 22.4155 41.4318 22.4155H52.1199C52.7105 22.4155 53.1915 22.8975 53.1915 23.4893V30.8575C53.1915 31.4492 52.7105 31.9312 52.1199 31.9312H51.0863C50.6624 31.9312 50.3242 32.2748 50.3242 32.6996V34.1264L48.3667 32.1555C48.2238 32.0124 48.0285 31.9312 47.8285 31.9312H41.4366C40.846 31.9312 40.3649 31.4492 40.3649 30.8575C40.3649 30.8241 40.3649 30.6905 40.3649 30.6571C40.3649 29.2206 39.198 28.0467 37.7643 28.0467H27.081C25.6474 28.0467 24.4805 29.2159 24.4805 30.6571V38.0253C24.4805 39.4617 25.6474 40.6357 27.081 40.6357H27.3478V43.1506C27.3478 43.4608 27.5335 43.7423 27.8193 43.8616C27.9146 43.8998 28.0146 43.9189 28.1098 43.9189C28.3099 43.9189 28.5052 43.8426 28.6481 43.6946L31.6916 40.6404H37.7643C39.1837 40.6404 40.3411 39.4903 40.3602 38.0682C40.3602 38.0635 40.3602 38.0539 40.3602 38.0491V35.8683C40.3602 35.4435 40.0172 35.1 39.5981 35.1C39.1742 35.1 38.836 35.4435 38.836 35.8683V38.0348C38.836 38.6266 38.3549 39.1086 37.7643 39.1086H31.3772C31.1724 39.1086 30.9819 39.1897 30.839 39.3329L28.8767 41.3038V39.8769C28.8767 39.4522 28.5337 39.1086 28.1146 39.1086H27.081C26.4904 39.1086 26.0094 38.6266 26.0094 38.0348V30.6523C26.0094 30.0605 26.4904 29.5786 27.081 29.5786H37.7691C38.3597 29.5786 38.8408 30.0605 38.8408 30.6523C38.8408 30.6857 38.8408 30.8193 38.8408 30.8527C38.8408 32.2891 40.0077 33.4631 41.4413 33.4631H47.5093L50.5529 36.5173C50.7005 36.6652 50.8958 36.7416 51.0911 36.7416C51.1911 36.7416 51.2911 36.7225 51.3816 36.6843C51.6674 36.565 51.8532 36.2834 51.8532 35.9733V33.4583H52.1199C53.5535 33.4583 54.7205 32.2891 54.7205 30.848V23.4893C54.7252 22.0481 53.5583 20.8789 52.1246 20.8789Z" fill="white"/>
<path d="M48.525 24.4805H37.837C36.4033 24.4805 35.2364 25.6496 35.2364 27.0908V29.2717C35.2364 29.6964 35.5793 30.04 35.9985 30.04C36.4224 30.04 36.7605 29.6964 36.7605 29.2717V27.0908C36.7605 26.4991 37.2416 26.0171 37.8322 26.0171H48.5203C49.1109 26.0171 49.5919 26.4991 49.5919 27.0908V34.4591C49.5919 35.0508 49.1109 35.5328 48.5203 35.5328H47.4867C47.0628 35.5328 46.7246 35.8764 46.7246 36.3011V37.728L44.7671 35.7571C44.6242 35.6139 44.4289 35.5328 44.2289 35.5328H37.837C37.2464 35.5328 36.7653 35.0508 36.7653 34.4591C36.7653 34.4257 36.7653 34.292 36.7653 34.2586C36.7653 32.8222 35.5984 31.6483 34.1647 31.6483H23.4814C22.0478 31.6483 20.8809 32.8174 20.8809 34.2586V41.6268C20.8809 43.0633 22.0478 44.2372 23.4814 44.2372H23.7482V46.7522C23.7482 47.0623 23.9339 47.3439 24.2197 47.4632C24.3149 47.5014 24.415 47.5205 24.5102 47.5205C24.7103 47.5205 24.9056 47.4441 25.0484 47.2962L28.092 44.242H34.1647C35.5841 44.242 36.7415 43.0919 36.7605 41.6698C36.7605 41.665 36.7605 41.6555 36.7605 41.6507V39.4698C36.7605 39.0451 36.4176 38.7015 35.9985 38.7015C35.5746 38.7015 35.2364 39.0451 35.2364 39.4698V41.6364C35.2364 42.2281 34.7553 42.7101 34.1647 42.7101H27.7776C27.5728 42.7101 27.3823 42.7913 27.2394 42.9344L25.2771 44.9053V43.4784C25.2771 43.0537 24.9341 42.7101 24.515 42.7101H23.4814C22.8908 42.7101 22.4098 42.2281 22.4098 41.6364V34.2539C22.4098 33.6621 22.8908 33.1801 23.4814 33.1801H34.1695C34.7601 33.1801 35.2412 33.6621 35.2412 34.2539C35.2412 34.2873 35.2412 34.4209 35.2412 34.4543C35.2412 35.8907 36.4081 37.0647 37.8417 37.0647H43.9097L46.9533 40.1188C47.1009 40.2668 47.2962 40.3431 47.4915 40.3431C47.5915 40.3431 47.6915 40.324 47.782 40.2859C48.0678 40.1666 48.2535 39.885 48.2535 39.5748V37.0599H48.5203C49.9539 37.0599 51.1208 35.8907 51.1208 34.4495V27.0908C51.1256 25.6496 49.9587 24.4805 48.525 24.4805Z" fill="#143441"/>
</svg>
