<svg width="72" height="72" viewBox="0 0 72 72" fill="none" xmlns="http://www.w3.org/2000/svg">
<circle cx="36" cy="36" r="36" fill="#F4F4F4"/>
<path d="M46.0365 49.9983H25.963C23.9922 49.9983 22.3887 48.3948 22.3887 46.4239V32.8871C22.3887 32.4576 22.7369 32.1094 23.1664 32.1094H48.8331C49.2627 32.1094 49.6108 32.4577 49.6108 32.8871V36.776C49.6108 37.2055 49.2627 37.5538 48.8331 37.5538C48.4035 37.5538 48.0553 37.2055 48.0553 36.776V33.6649H23.9443V46.4239C23.9443 47.5371 24.8499 48.4427 25.963 48.4427H46.0366C47.1497 48.4427 48.0554 47.5371 48.0554 46.4239V41.4427C48.0554 41.0132 48.4036 40.6649 48.8331 40.6649C49.2627 40.6649 49.6109 41.0132 49.6109 41.4427V46.4239C49.6109 48.3948 48.0074 49.9983 46.0365 49.9983Z" fill="#143441"/>
<path d="M30.3927 29.3889H29.1611C27.9996 29.3889 27.0547 28.4439 27.0547 27.2824V24.1065C27.0546 22.9449 27.9996 22 29.1611 22H30.3925C31.5542 22 32.4991 22.9449 32.4991 24.1065V27.2824C32.4991 28.444 31.5542 29.3889 30.3927 29.3889ZM29.1611 23.5555C28.8574 23.5555 28.6102 23.8027 28.6102 24.1065V27.2824C28.6102 27.5862 28.8574 27.8334 29.1611 27.8334H30.3925C30.6963 27.8334 30.9435 27.5862 30.9435 27.2824V24.1065C30.9435 23.8027 30.6963 23.5555 30.3925 23.5555H29.1611Z" fill="#143441"/>
<path d="M42.838 29.3889H41.6065C40.4449 29.3889 39.5 28.4439 39.5 27.2824V24.1065C39.4999 22.9449 40.4449 22 41.6064 22H42.8379C43.9995 22 44.9444 22.9449 44.9444 24.1065V27.2824C44.9444 28.444 43.9995 29.3889 42.838 29.3889ZM41.6064 23.5555C41.3026 23.5555 41.0555 23.8027 41.0555 24.1065V27.2824C41.0555 27.5862 41.3027 27.8334 41.6064 27.8334H42.8379C43.1416 27.8334 43.3888 27.5862 43.3888 27.2824V24.1065C43.3888 23.8027 43.1416 23.5555 42.8379 23.5555H41.6064Z" fill="#143441"/>
<path d="M46.0361 25.1094H44.166V27.2807C44.166 28.0145 43.5711 28.6094 42.8373 28.6094H41.6058C40.8719 28.6094 40.2771 28.0145 40.2771 27.2807V25.1094H31.7215V27.2807C31.7215 28.0145 31.1267 28.6094 30.3929 28.6094H29.1614C28.4275 28.6094 27.8327 28.0145 27.8327 27.2807V25.1094H25.9626C24.4181 25.1094 23.166 26.3614 23.166 27.9059V32.8871H48.8327V27.9059C48.8327 26.3614 47.5806 25.1094 46.0361 25.1094Z" fill="#8999A0"/>
<path d="M48.8331 33.6693H23.1664C22.7369 33.6693 22.3887 33.321 22.3887 32.8915V27.9103C22.3887 25.9394 23.9922 24.3359 25.963 24.3359H27.8331C28.2627 24.3359 28.6109 24.6842 28.6109 25.1137V27.285C28.6109 27.5888 28.8581 27.8359 29.1618 27.8359H30.3933C30.6971 27.8359 30.9442 27.5888 30.9442 27.285V25.1138C30.9442 24.6842 31.2924 24.336 31.722 24.336H40.2775C40.7071 24.336 41.0553 24.6843 41.0553 25.1138V27.285C41.0553 27.5888 41.3025 27.836 41.6062 27.836H42.8376C43.1414 27.836 43.3886 27.5888 43.3886 27.285V25.1138C43.3886 24.6842 43.7368 24.336 44.1663 24.336H46.0364C48.0075 24.336 49.6109 25.9395 49.6109 27.9104V32.8916C49.6109 33.321 49.2627 33.6693 48.8331 33.6693ZM23.9443 32.1138H48.0554V27.9103C48.0554 26.7971 47.1497 25.8915 46.0366 25.8915H44.9443V27.285C44.9443 28.4466 43.9993 29.3915 42.8378 29.3915H41.6063C40.4447 29.3915 39.4998 28.4466 39.4998 27.285V25.8915H32.4998V27.285C32.4998 28.4466 31.5548 29.3915 30.3933 29.3915H29.1618C28.0003 29.3915 27.0554 28.4466 27.0554 27.285V25.8915H25.963C24.8499 25.8915 23.9443 26.7971 23.9443 27.9103V32.1138Z" fill="#143441"/>
<path d="M35.1682 37.9895L34.7046 38.2772C34.5607 38.3731 34.4168 38.4052 34.3049 38.4052C33.8412 38.4052 33.5215 37.9096 33.5215 37.414C33.5215 37.0783 33.6654 36.7585 33.9851 36.5666L36.0955 35.2876C36.2234 35.2077 36.3832 35.1758 36.5591 35.1758C37.0707 35.1758 37.6622 35.4795 37.6622 35.9592V46.1271C37.6622 46.6386 37.0387 46.8944 36.4152 46.8944C35.7917 46.8944 35.1682 46.6386 35.1682 46.1271L35.1682 37.9895Z" fill="#143441"/>
</svg>
