<svg width="72" height="72" viewBox="0 0 72 72" fill="none" xmlns="http://www.w3.org/2000/svg">
<circle cx="36" cy="36" r="36" fill="#F4F4F4"/>
<path d="M43.0794 28.7034C42.6376 28.7034 42.2794 28.3453 42.2794 27.9034C42.2794 26.7259 41.3214 25.768 40.144 25.768H31.8546C30.6771 25.768 29.7192 26.726 29.7192 27.9034C29.7192 28.3453 29.3609 28.7034 28.9192 28.7034C28.4774 28.7034 28.1191 28.3453 28.1191 27.9034C28.1191 25.8437 29.7949 24.168 31.8546 24.168H40.1439C42.2036 24.168 43.8794 25.8437 43.8794 27.9034C43.8794 28.3452 43.5213 28.7034 43.0794 28.7034Z" fill="#143441"/>
<path d="M31.3184 30.3066V28.7309C31.3184 27.9799 31.9272 27.3711 32.6782 27.3711H39.3187C40.0697 27.3711 40.6786 27.9799 40.6786 28.7309V30.3066H31.3184Z" fill="#8999A0"/>
<path d="M40.6797 31.1058H31.3196C30.8778 31.1058 30.5195 30.7477 30.5195 30.3058V28.7301C30.5195 27.5392 31.4884 26.5703 32.6793 26.5703H39.3199C40.5108 26.5703 41.4797 27.5392 41.4797 28.7301V30.3058C41.4797 30.7477 41.1216 31.1058 40.6797 31.1058ZM32.1196 29.5058H39.8797V28.7301C39.8797 28.4215 39.6286 28.1704 39.3199 28.1704H32.6794C32.3707 28.1704 32.1196 28.4215 32.1196 28.7301V29.5058Z" fill="#143441"/>
<path d="M29.7152 39.5704H31.9534C33.4112 39.5704 34.593 40.7522 34.593 42.21V46.9122H26.4199V42.21C26.4199 40.7522 27.6017 39.5703 29.0596 39.5703H31.2977" fill="#8999A0"/>
<path d="M49.2 29.4141H45.4816C45.0398 29.4141 44.6816 29.7722 44.6816 30.2141C44.6816 30.6559 45.0398 31.0141 45.4816 31.0141H48.4V46.2299H35.3926V42.211C35.3926 40.8893 34.6428 39.74 33.5466 39.1643C33.8318 38.7362 33.9985 38.2226 33.9985 37.6707V35.8839C33.9985 35.4421 33.6403 35.0839 33.1985 35.0839C32.7568 35.0839 32.3985 35.442 32.3985 35.8839V37.6707C32.3985 38.2748 31.9094 38.7663 31.3067 38.7714H29.7056C29.1028 38.7663 28.6137 38.2747 28.6137 37.6707V35.8839C28.6137 35.2768 29.1077 34.7828 29.7149 34.7828H31.2974C31.7391 34.7828 32.0974 34.4246 32.0974 33.9828C32.0974 33.5409 31.7391 33.1827 31.2974 33.1827H29.7149C28.2255 33.1827 27.0137 34.3945 27.0137 35.8839V37.6707C27.0137 38.2226 27.1803 38.7362 27.4656 39.1643C26.3694 39.74 25.6196 40.8893 25.6196 42.211V46.2299H23.6V31.0141H26.5184C26.9602 31.0141 27.3184 30.656 27.3184 30.2141C27.3184 29.7722 26.9602 29.4141 26.5184 29.4141H22.8C22.3583 29.4141 22 29.7723 22 30.2141V47.0299C22 47.4718 22.3583 47.8299 22.8 47.8299H49.2C49.6417 47.8299 50 47.4718 50 47.0299V30.2141C50 29.7723 49.6419 29.4141 49.2 29.4141ZM27.2195 42.211C27.2195 41.1966 28.0448 40.3714 29.0592 40.3714H29.6963C29.6996 40.3714 29.7027 40.3716 29.706 40.3716V44.0428C29.706 44.4846 30.0643 44.8428 30.506 44.8428C30.9478 44.8428 31.3061 44.4846 31.3061 44.0428V40.3716C31.3093 40.3716 31.3125 40.3714 31.3158 40.3714H31.9529C32.9673 40.3714 33.7925 41.1966 33.7925 42.211V46.1132H27.2195V42.211Z" fill="#143441"/>
<path d="M45.5814 40.3186C45.1396 40.3186 44.7814 39.9604 44.7814 39.5186V35.9985H38.4613V38.7185H42.0011C42.4428 38.7185 42.8011 39.0767 42.8011 39.5186C42.8011 39.9604 42.4428 40.3186 42.0011 40.3186H37.6614C37.2196 40.3186 36.8613 39.9604 36.8613 39.5186V35.1985C36.8613 34.7566 37.2196 34.3984 37.6614 34.3984H45.5815C46.0232 34.3984 46.3815 34.7566 46.3815 35.1985V39.5186C46.3814 39.9604 46.0232 40.3186 45.5814 40.3186Z" fill="#143441"/>
<path d="M45.5795 44.1313H37.6594C37.2176 44.1313 36.8594 43.7731 36.8594 43.3313C36.8594 42.8894 37.2176 42.5312 37.6594 42.5312H45.5795C46.0213 42.5312 46.3795 42.8894 46.3795 43.3313C46.3795 43.7731 46.0213 44.1313 45.5795 44.1313Z" fill="#143441"/>
</svg>
