<svg width="72" height="72" viewBox="0 0 72 72" fill="none" xmlns="http://www.w3.org/2000/svg">
<circle cx="36" cy="36" r="36" fill="#F4F4F4"/>
<g clip-path="url(#clip0)">
<path d="M43.646 37.8438L41.7683 41.0961L39.8906 37.8438C37.9107 38.6466 36.5137 40.5871 36.5137 42.8551V49.2509H41.7683H47.023V42.8551C47.0229 40.5872 45.6259 38.6466 43.646 37.8438Z" fill="#8999A0"/>
<path d="M47.0238 50.0025H36.5144C36.0998 50.0025 35.7637 49.6663 35.7637 49.2518V42.856C35.7637 40.3363 37.2732 38.0962 39.6092 37.1489C39.9564 37.0081 40.3542 37.1448 40.5415 37.4692L41.7691 39.5954L42.9966 37.4692C43.1839 37.1449 43.5817 37.0081 43.929 37.1489C46.2651 38.0961 47.7745 40.3363 47.7745 42.856V49.2518C47.7745 49.6663 47.4384 50.0025 47.0238 50.0025ZM37.2652 48.501H46.2729V42.856C46.2729 41.1696 45.3784 39.6486 43.9478 38.8247L42.4191 41.4724C42.285 41.7046 42.0373 41.8477 41.769 41.8477C41.5008 41.8477 41.2529 41.7046 41.1189 41.4724L39.5903 38.8247C38.1596 39.6487 37.2651 41.1696 37.2651 42.856V48.501H37.2652Z" fill="#143441"/>
<path d="M41.7675 36.8258C39.5216 36.8258 37.5782 35.3042 37.0415 33.1254C36.9423 32.7228 37.1883 32.316 37.5908 32.2168C37.9934 32.1177 38.4001 32.3636 38.4994 32.7662C38.8705 34.2723 40.2144 35.3242 41.7675 35.3242C43.6238 35.3242 45.134 33.8141 45.134 31.9578C45.134 30.1015 43.6238 28.5913 41.7675 28.5913C41.1257 28.5913 40.5007 28.7736 39.9604 29.1184C39.611 29.3414 39.1468 29.2388 38.9237 28.8893C38.7006 28.5399 38.8032 28.0757 39.1527 27.8526C39.9347 27.3537 40.8389 27.0898 41.7675 27.0898C44.4516 27.0898 46.6354 29.2736 46.6354 31.9578C46.6354 34.642 44.4516 36.8258 41.7675 36.8258Z" fill="#143441"/>
<path d="M31.4833 33.6932C28.2595 33.6932 25.6367 31.0705 25.6367 27.8466C25.6367 24.6228 28.2595 22 31.4833 22C34.7071 22 37.3299 24.6228 37.3299 27.8466C37.3299 31.0705 34.7071 33.6932 31.4833 33.6932ZM31.4833 23.5015C29.0874 23.5015 27.1383 25.4508 27.1383 27.8466C27.1383 30.2425 29.0874 32.1917 31.4833 32.1917C33.8792 32.1917 35.8283 30.2425 35.8283 27.8466C35.8283 25.4508 33.8792 23.5015 31.4833 23.5015Z" fill="#143441"/>
<path d="M33.8062 35.1289L31.4822 39.1543L29.1581 35.1289C26.7076 36.1225 24.9785 38.5245 24.9785 41.3315V49.2475H31.4822H37.9859V41.3316C37.9858 38.5245 36.2567 36.1226 33.8062 35.1289Z" fill="#8999A0"/>
<path d="M37.9867 49.9992H24.9793C24.5646 49.9992 24.2285 49.663 24.2285 49.2485V41.3324C24.2285 38.2868 26.0531 35.579 28.8767 34.4341C29.2239 34.2935 29.6217 34.4299 29.809 34.7545L31.4829 37.6537L33.1567 34.7545C33.344 34.4301 33.7417 34.2932 34.0891 34.4341C36.9128 35.579 38.7373 38.2868 38.7373 41.3324V49.2485C38.7374 49.663 38.4013 49.9992 37.9867 49.9992ZM25.73 48.4977H37.2358V41.3324C37.2358 39.1197 36.0294 37.1303 34.1128 36.1016L32.133 39.5307C31.999 39.7629 31.7512 39.906 31.4829 39.906C31.2147 39.906 30.9668 39.7629 30.8327 39.5307L28.8529 36.1016C26.9365 37.1304 25.73 39.1197 25.73 41.3324V48.4977H25.73Z" fill="#143441"/>
</g>
<defs>
<clipPath id="clip0">
<rect x="22" y="22" width="28" height="28" fill="white"/>
</clipPath>
</defs>
</svg>
