<svg width="72" height="72" viewBox="0 0 72 72" fill="none" xmlns="http://www.w3.org/2000/svg">
<circle cx="36" cy="36" r="36" fill="#F4F4F4"/>
<path d="M32.7804 29.9688H26.5508V38.261H32.7804V29.9688Z" fill="#8999A0"/>
<path d="M26.5513 36.8466H26.3393C24.8295 36.8466 23.6055 35.6226 23.6055 34.1127C23.6055 32.6029 24.8294 31.3789 26.3393 31.3789H26.5513V36.8466Z" fill="#8999A0"/>
<path d="M48.395 36.26C48.8372 36.26 49.1958 35.9015 49.1958 35.4593V22.8007C49.1958 22.3585 48.8372 22 48.395 22C47.9529 22 47.5943 22.3585 47.5943 22.8007V23.9781L32.7804 29.1688H26.5513C26.1091 29.1688 25.7506 29.5273 25.7506 29.9695V30.6312C24.0809 30.9124 22.8047 32.3675 22.8047 34.1158C22.8047 35.8642 24.0809 37.3193 25.7506 37.6005V38.2622C25.7506 38.6857 26.0796 39.0315 26.4958 39.0601L30.8508 49.5074C30.9751 49.8057 31.2666 50 31.5898 50H35.7816C36.0393 50 36.2811 49.876 36.4316 49.6668C36.582 49.4576 36.6226 49.1888 36.5406 48.9445L34.1031 41.6815C33.9623 41.2623 33.5085 41.0365 33.0892 41.1771C32.67 41.3179 32.4442 41.7718 32.5849 42.191L34.6682 48.3984H32.1236L28.232 39.0628H32.7805L47.5942 44.2535V45.4309C47.5942 45.8731 47.9528 46.2316 48.395 46.2316C48.8371 46.2316 49.1957 45.8731 49.1957 45.4309V39.6978C49.1957 39.2556 48.8371 38.8971 48.395 38.8971C47.9528 38.8971 47.5942 39.2556 47.5942 39.6978V42.5566L45.9955 41.9965V32.5035C45.9955 32.0613 45.6369 31.7028 45.1947 31.7028C44.7526 31.7028 44.394 32.0613 44.394 32.5035V41.4353L33.5815 37.6466V30.5849L44.394 26.7963V28.2322C44.394 28.6745 44.7526 29.0329 45.1948 29.0329C45.6369 29.0329 45.9955 28.6745 45.9955 28.2322V26.2352L47.5943 25.675V35.4593C47.5943 35.9015 47.9528 36.26 48.395 36.26ZM27.352 30.7702H31.9802V37.4614H27.352V36.8497V31.3819V30.7702ZM24.4061 34.1159C24.4061 33.2551 24.9716 32.524 25.7506 32.2744V35.9574C24.9717 35.7078 24.4061 34.9765 24.4061 34.1159Z" fill="#143441"/>
</svg>
