<svg width="72" height="72" viewBox="0 0 72 72" fill="none" xmlns="http://www.w3.org/2000/svg">
<circle cx="36" cy="36" r="36" fill="#F4F4F4"/>
<g clip-path="url(#clip0)">
<path d="M45.9642 35.0938H26.0332V45.0523H45.9642V35.0938Z" fill="#8999A0"/>
<path d="M31.1973 37.9336C30.2628 37.9336 29.748 38.4304 29.748 39.3326V40.8129C29.748 41.7151 30.2628 42.2118 31.1973 42.2118C32.1355 42.2118 32.6521 41.715 32.6521 40.8129V39.3326C32.6521 38.4304 32.1355 37.9336 31.1973 37.9336ZM30.7809 39.3326C30.7809 39.0066 30.9132 38.8547 31.1973 38.8547C31.4814 38.8547 31.6193 39.011 31.6193 39.3326V40.8129C31.6193 41.1345 31.4813 41.2909 31.1973 41.2909C30.9132 41.2909 30.7809 41.139 30.7809 40.8129V39.3326Z" fill="#143441"/>
<path d="M34.6079 37.9336H33.4516C33.2209 37.9336 33.0469 38.0812 33.0469 38.2769V41.8296C33.0469 42.0692 33.3145 42.1784 33.5633 42.1784C33.812 42.1784 34.0796 42.0692 34.0796 41.8296V40.7037H34.5519C35.4765 40.7037 36.0067 40.202 36.0067 39.327V39.2991C36.0068 38.4186 35.51 37.9336 34.6079 37.9336ZM34.552 39.872H34.0796V38.8546H34.552C34.836 38.8546 34.974 39.011 34.974 39.3326V39.394C34.9741 39.7156 34.836 39.872 34.552 39.872Z" fill="#143441"/>
<path d="M38.6758 38.8547C38.8779 38.8547 39.0191 38.6631 39.0191 38.3885C39.0191 38.1695 38.9117 37.9336 38.6758 37.9336H36.6871C36.416 37.9336 36.2266 38.077 36.2266 38.2824V41.8295C36.2266 42.0349 36.416 42.1783 36.6871 42.1783H38.6758C38.9117 42.1783 39.0191 41.9425 39.0191 41.7234C39.0191 41.449 38.8779 41.2572 38.6758 41.2572H37.2594V40.469H38.0166C38.2419 40.469 38.3598 40.2626 38.3598 40.0587C38.3598 39.8146 38.2154 39.6373 38.0166 39.6373H37.2594V38.8546H38.6758V38.8547Z" fill="#143441"/>
<path d="M41.7358 37.9336C41.422 37.9336 41.2194 38.0683 41.2194 38.2769V39.8484L40.4667 38.4128C40.2388 37.975 40.0899 37.9337 39.7527 37.9337C39.4439 37.9337 39.2363 38.0739 39.2363 38.2825V41.8296C39.2363 42.0693 39.504 42.1784 39.7527 42.1784C40.0014 42.1784 40.269 42.0693 40.269 41.8296V40.2449L41.1787 41.9016C41.3118 42.147 41.5463 42.1784 41.7357 42.1784C41.9843 42.1784 42.252 42.0693 42.252 41.8296V38.2769C42.2521 38.0683 42.0494 37.9336 41.7358 37.9336Z" fill="#143441"/>
<path d="M49.1931 39.2885C48.7475 39.2885 48.3862 39.6498 48.3862 40.0954V46.4358L46.7724 44.822V35.0926C46.7724 34.6469 46.4111 34.2856 45.9655 34.2856H30.8298L31.7616 32.6719H49.1931C49.6386 32.6719 50 32.3106 50 31.865C50 31.4193 49.6387 31.058 49.1931 31.058H32.6933L36 25.3308L38.5383 29.7273C38.7612 30.1132 39.2548 30.2456 39.6405 30.0226C40.0265 29.7998 40.1587 29.3063 39.9359 28.9204L36.6987 23.3136C36.5546 23.0639 36.2882 22.9102 36 22.9102C35.7118 22.9102 35.4454 23.0639 35.3013 23.3136L30.8298 31.0581H22.8069C22.3613 31.0581 22 31.4194 22 31.865V48.2786C22 48.7242 22.3613 49.0855 22.8069 49.0855H49.1931C49.6387 49.0855 50.0001 48.7242 50.0001 48.2786V40.0954C50 39.6498 49.6387 39.2885 49.1931 39.2885ZM23.6138 33.8494L25.2275 35.4632V44.7531L23.6138 46.3668V33.8494ZM26.4049 45.858H45.526L47.1398 47.4717H24.7911L26.4049 45.858ZM45.1587 44.2442H26.8413V35.8995H45.1587V44.2442ZM28.9664 34.2858H26.3325L24.7187 32.672H29.8982L28.9664 34.2858Z" fill="#143441"/>
</g>
<defs>
<clipPath id="clip0">
<rect x="22" y="22" width="28" height="28" fill="white"/>
</clipPath>
</defs>
</svg>
