<svg width="72" height="72" viewBox="0 0 72 72" fill="none" xmlns="http://www.w3.org/2000/svg">
<circle cx="36" cy="36" r="36" fill="#F4F4F4"/>
<path d="M48.3182 21.047C48.3161 20.9542 48.2917 20.8632 48.247 20.7818C48.2023 20.7004 48.1387 20.631 48.0616 20.5794C47.9844 20.5277 47.8959 20.4954 47.8036 20.4852C47.7114 20.4749 47.618 20.487 47.5314 20.5205L43.7475 21.9669V21.047C43.7475 20.8935 43.6866 20.7464 43.5781 20.6379C43.4695 20.5294 43.3224 20.4684 43.1689 20.4684H42.2259L43.6434 16.6151C43.6747 16.5282 43.6847 16.435 43.6726 16.3434C43.6605 16.2518 43.6267 16.1645 43.5739 16.0886C43.5208 16.012 43.4499 15.9493 43.3673 15.906C43.2846 15.8627 43.1928 15.84 43.0995 15.8398H36.2955C36.2026 15.8399 36.1111 15.8623 36.0287 15.9052C35.9463 15.948 35.8754 16.0101 35.8221 16.0862C35.7688 16.1622 35.7345 16.25 35.7222 16.342C35.71 16.4341 35.7201 16.5278 35.7517 16.6151L37.1692 20.4684H36.2261C36.0726 20.4684 35.9255 20.5294 35.817 20.6379C35.7085 20.7464 35.6475 20.8935 35.6475 21.047V22.0132L31.7306 20.6478C31.6419 20.6171 31.5472 20.6085 31.4544 20.6226C31.3617 20.6367 31.2738 20.6731 31.1983 20.7288C31.123 20.7838 31.0621 20.8562 31.0208 20.9398C30.9795 21.0234 30.959 21.1157 30.9611 21.209L31.0768 27.9898C31.0785 28.0826 31.1026 28.1737 31.1469 28.2552C31.1912 28.3368 31.2545 28.4065 31.3314 28.4585C31.4271 28.5228 31.54 28.5571 31.6554 28.5568C31.7269 28.5585 31.7979 28.5447 31.8637 28.5163L35.6475 27.0699V27.9898C35.6475 28.1433 35.7085 28.2904 35.817 28.399C35.9255 28.5075 36.0726 28.5684 36.2261 28.5684H37.0419L35.6475 32.4217C35.6154 32.5082 35.6044 32.6011 35.6155 32.6927C35.6265 32.7843 35.6593 32.8719 35.7112 32.9482C35.7643 33.0248 35.8352 33.0875 35.9178 33.1308C36.0004 33.1741 36.0923 33.1968 36.1856 33.197H39.1189V41.8755H38.5404C38.3869 41.8755 38.2398 41.9365 38.1313 42.045C38.0228 42.1535 37.9618 42.3007 37.9618 42.4541V44.1898C37.9632 44.2979 37.9948 44.4034 38.0531 44.4944C38.1114 44.5854 38.194 44.6583 38.2916 44.7048L35.7748 47.019C35.7206 47.0728 35.6775 47.1368 35.6482 47.2073C35.6188 47.2778 35.6037 47.3535 35.6037 47.4298C35.6037 47.5062 35.6188 47.5818 35.6482 47.6523C35.6775 47.7228 35.7206 47.7868 35.7748 47.8406C35.8832 47.9484 36.0298 48.0089 36.1827 48.0089C36.3355 48.0089 36.4822 47.9484 36.5906 47.8406L39.1189 45.5148V47.6613C39.1189 47.8147 39.1799 47.9619 39.2884 48.0704C39.3969 48.1789 39.5441 48.2398 39.6975 48.2398C39.851 48.2398 39.9981 48.1789 40.1066 48.0704C40.2151 47.9619 40.2761 47.8147 40.2761 47.6613V45.6073L42.6829 48.0663C42.7372 48.1216 42.802 48.1655 42.8736 48.1953C42.9452 48.2252 43.022 48.2403 43.0995 48.2398C43.2513 48.2392 43.3967 48.1789 43.5045 48.072C43.6123 47.9636 43.6728 47.817 43.6728 47.6642C43.6728 47.5113 43.6123 47.3647 43.5045 47.2563L41.034 44.7337C41.1491 44.6962 41.2495 44.6235 41.3211 44.526C41.3927 44.4284 41.4319 44.3108 41.4332 44.1898V42.4541C41.4332 42.3007 41.3723 42.1535 41.2638 42.045C41.1553 41.9365 41.0081 41.8755 40.8547 41.8755H40.2761V38.4041H41.4332V39.5613C41.4332 39.7147 41.4942 39.8619 41.6027 39.9704C41.7112 40.0789 41.8583 40.1398 42.0118 40.1398H43.7475C43.901 40.1398 44.0481 40.0789 44.1566 39.9704C44.2651 39.8619 44.3261 39.7147 44.3261 39.5613V36.0898C44.3261 35.9364 44.2651 35.7892 44.1566 35.6807C44.0481 35.5722 43.901 35.5113 43.7475 35.5113H42.0118C41.8583 35.5113 41.7112 35.5722 41.6027 35.6807C41.4942 35.7892 41.4332 35.9364 41.4332 36.0898V37.247H40.2761V33.197H42.9722C43.0651 33.1969 43.1566 33.1745 43.239 33.1317C43.3214 33.0888 43.3923 33.0267 43.4456 32.9507C43.499 32.8746 43.5332 32.7869 43.5455 32.6948C43.5577 32.6027 43.5477 32.509 43.5161 32.4217L42.0986 28.5684H43.1689C43.3224 28.5684 43.4695 28.5075 43.5781 28.399C43.6866 28.2904 43.7475 28.1433 43.7475 27.9898V27.0236L47.6644 28.3891C47.7278 28.3974 47.792 28.3974 47.8554 28.3891C47.9779 28.3895 48.0975 28.351 48.1967 28.2791C48.272 28.2241 48.3329 28.1517 48.3742 28.0681C48.4156 27.9845 48.436 27.8921 48.4339 27.7989L48.3182 21.047ZM39.1189 43.0327H40.2761V43.6113H39.1189V43.0327ZM42.5904 36.6684H43.1689V38.9827H42.5904V36.6684ZM37.1287 16.997H42.2722L40.9935 20.4684H38.4015L37.1287 16.997ZM32.2224 27.1567L32.1298 22.0132L35.6012 23.2282V24.5589V25.8318L32.2224 27.1567ZM42.1449 32.0398H37.0014L38.2742 28.5684H40.8547L42.1449 32.0398ZM41.2712 27.4113H36.8047V26.393C36.8231 26.333 36.8329 26.2706 36.8336 26.2078L36.8047 24.5184V21.6256H42.5904V22.6438C42.5816 22.7052 42.5816 22.7676 42.5904 22.829V24.5184V27.4113H41.2712ZM43.7475 25.8086V24.5184V23.2051L47.1727 21.8801L47.2652 27.0236L43.7475 25.8086ZM39.6975 22.2041C39.2398 22.2041 38.7923 22.3399 38.4118 22.5942C38.0312 22.8485 37.7346 23.2099 37.5594 23.6328C37.3842 24.0557 37.3384 24.521 37.4277 24.9699C37.517 25.4188 37.7374 25.8312 38.0611 26.1549C38.3847 26.4785 38.7971 26.6989 39.246 26.7882C39.6949 26.8775 40.1603 26.8317 40.5831 26.6565C41.006 26.4814 41.3675 26.1847 41.6218 25.8042C41.8761 25.4236 42.0118 24.9761 42.0118 24.5184C42.0118 23.9046 41.768 23.316 41.334 22.882C40.8999 22.448 40.3113 22.2041 39.6975 22.2041ZM39.6975 25.6756C39.4686 25.6756 39.2449 25.6077 39.0546 25.4805C38.8643 25.3534 38.716 25.1727 38.6284 24.9612C38.5409 24.7498 38.518 24.5171 38.5626 24.2927C38.6072 24.0682 38.7175 23.862 38.8793 23.7002C39.0411 23.5384 39.2473 23.4282 39.4718 23.3835C39.6962 23.3389 39.9289 23.3618 40.1403 23.4494C40.3518 23.5369 40.5325 23.6852 40.6596 23.8755C40.7868 24.0658 40.8547 24.2896 40.8547 24.5184C40.8547 24.8253 40.7327 25.1196 40.5157 25.3366C40.2987 25.5536 40.0044 25.6756 39.6975 25.6756Z" fill="white"/>
<path d="M44.7167 24.6446C44.7145 24.5518 44.6901 24.4609 44.6454 24.3795C44.6008 24.2981 44.5372 24.2286 44.46 24.177C44.3828 24.1254 44.2944 24.0931 44.2021 24.0828C44.1098 24.0726 44.0164 24.0847 43.9298 24.1181L40.1459 25.5646V24.6446C40.1459 24.4912 40.085 24.344 39.9765 24.2355C39.868 24.127 39.7208 24.0661 39.5674 24.0661H38.6243L40.0418 20.2128C40.0731 20.1259 40.0831 20.0327 40.0711 19.9411C40.059 19.8495 40.0251 19.7621 39.9724 19.6863C39.9192 19.6096 39.8483 19.547 39.7657 19.5037C39.6831 19.4604 39.5912 19.4377 39.4979 19.4375H32.6939C32.6011 19.4375 32.5096 19.4599 32.4272 19.5028C32.3448 19.5457 32.2739 19.6078 32.2205 19.6838C32.1672 19.7598 32.1329 19.8476 32.1207 19.9397C32.1084 20.0318 32.1185 20.1254 32.1501 20.2128L33.5676 24.0661H32.6245C32.4711 24.0661 32.3239 24.127 32.2154 24.2355C32.1069 24.344 32.0459 24.4912 32.0459 24.6446V25.6109L28.129 24.2454C28.0404 24.2148 27.9456 24.2061 27.8529 24.2202C27.7602 24.2343 27.6722 24.2708 27.5967 24.3264C27.5214 24.3814 27.4605 24.4538 27.4192 24.5374C27.3779 24.621 27.3574 24.7134 27.3595 24.8066L27.4752 31.5875C27.477 31.6803 27.501 31.7713 27.5453 31.8529C27.5896 31.9345 27.6529 32.0042 27.7298 32.0561C27.8256 32.1205 27.9384 32.1548 28.0538 32.1545C28.1253 32.1561 28.1964 32.1423 28.2621 32.114L32.0459 30.6676V31.5875C32.0459 31.7409 32.1069 31.8881 32.2154 31.9966C32.3239 32.1051 32.4711 32.1661 32.6245 32.1661H33.4403L32.0459 36.0194C32.0138 36.1058 32.0028 36.1987 32.0139 36.2903C32.025 36.3819 32.0578 36.4695 32.1096 36.5459C32.1628 36.6225 32.2337 36.6851 32.3163 36.7285C32.3989 36.7718 32.4907 36.7945 32.584 36.7946H35.5174V45.4732H34.9388C34.7854 45.4732 34.6382 45.5342 34.5297 45.6427C34.4212 45.7512 34.3602 45.8983 34.3602 46.0518V47.7875C34.3616 47.8956 34.3933 48.0011 34.4515 48.0921C34.5098 48.1831 34.5924 48.256 34.69 48.3024L32.1732 50.6167C32.119 50.6705 32.076 50.7345 32.0466 50.805C32.0172 50.8755 32.0021 50.9511 32.0021 51.0275C32.0021 51.1039 32.0172 51.1795 32.0466 51.25C32.076 51.3205 32.119 51.3845 32.1732 51.4383C32.2816 51.546 32.4283 51.6065 32.5811 51.6065C32.734 51.6065 32.8806 51.546 32.989 51.4383L35.5174 49.1124V51.2589C35.5174 51.4124 35.5783 51.5595 35.6868 51.668C35.7953 51.7765 35.9425 51.8375 36.0959 51.8375C36.2494 51.8375 36.3966 51.7765 36.5051 51.668C36.6136 51.5595 36.6745 51.4124 36.6745 51.2589V49.205L39.0814 51.6639C39.1356 51.7193 39.2005 51.7632 39.272 51.793C39.3436 51.8228 39.4204 51.8379 39.4979 51.8375C39.6497 51.8368 39.7952 51.7766 39.9029 51.6697C40.0107 51.5613 40.0712 51.4147 40.0712 51.2618C40.0712 51.109 40.0107 50.9623 39.9029 50.8539L37.4324 48.3313C37.5475 48.2938 37.6479 48.2212 37.7195 48.1236C37.7911 48.0261 37.8304 47.9085 37.8317 47.7875V46.0518C37.8317 45.8983 37.7707 45.7512 37.6622 45.6427C37.5537 45.5342 37.4065 45.4732 37.2531 45.4732H36.6745V42.0018H37.8317V43.1589C37.8317 43.3124 37.8926 43.4595 38.0011 43.568C38.1096 43.6765 38.2568 43.7375 38.4102 43.7375H40.1459C40.2994 43.7375 40.4466 43.6765 40.5551 43.568C40.6636 43.4595 40.7245 43.3124 40.7245 43.1589V39.6875C40.7245 39.534 40.6636 39.3869 40.5551 39.2784C40.4466 39.1699 40.2994 39.1089 40.1459 39.1089H38.4102C38.2568 39.1089 38.1096 39.1699 38.0011 39.2784C37.8926 39.3869 37.8317 39.534 37.8317 39.6875V40.8446H36.6745V36.7946H39.3707C39.4635 36.7946 39.5551 36.7722 39.6375 36.7293C39.7199 36.6865 39.7907 36.6244 39.8441 36.5483C39.8974 36.4723 39.9317 36.3845 39.9439 36.2924C39.9562 36.2004 39.9461 36.1067 39.9145 36.0194L38.497 32.1661H39.5674C39.7208 32.1661 39.868 32.1051 39.9765 31.9966C40.085 31.8881 40.1459 31.7409 40.1459 31.5875V30.6213L44.0629 31.9867C44.1262 31.9951 44.1904 31.9951 44.2538 31.9867C44.3764 31.9871 44.4959 31.9487 44.5952 31.8768C44.6705 31.8218 44.7314 31.7494 44.7727 31.6658C44.814 31.5822 44.8345 31.4898 44.8324 31.3966L44.7167 24.6446ZM35.5174 46.6303H36.6745V47.2089H35.5174V46.6303ZM38.9888 40.2661H39.5674V42.5803H38.9888V40.2661ZM33.5271 20.5946H38.6706L37.3919 24.0661H34.7999L33.5271 20.5946ZM28.6208 30.7544L28.5282 25.6109L31.9997 26.8259V28.1566V29.4294L28.6208 30.7544ZM38.5433 35.6375H33.3998L34.6727 32.1661H37.2531L38.5433 35.6375ZM37.6697 31.0089H33.2031V29.9906C33.2216 29.9306 33.2313 29.8683 33.232 29.8055L33.2031 28.1161V25.2232H38.9888V26.2415C38.98 26.3029 38.98 26.3652 38.9888 26.4266V28.1161V31.0089H37.6697ZM40.1459 29.4063V28.1161V26.8027L43.5711 25.4778L43.6637 30.6213L40.1459 29.4063ZM36.0959 25.8018C35.6382 25.8018 35.1908 25.9375 34.8102 26.1918C34.4296 26.4461 34.133 26.8075 33.9578 27.2304C33.7827 27.6533 33.7368 28.1186 33.8261 28.5676C33.9154 29.0165 34.1358 29.4289 34.4595 29.7525C34.7832 30.0762 35.1955 30.2966 35.6445 30.3859C36.0934 30.4752 36.5587 30.4294 36.9816 30.2542C37.4045 30.079 37.7659 29.7824 38.0202 29.4018C38.2745 29.0212 38.4102 28.5738 38.4102 28.1161C38.4102 27.5023 38.1664 26.9136 37.7324 26.4796C37.2984 26.0456 36.7097 25.8018 36.0959 25.8018ZM36.0959 29.2732C35.8671 29.2732 35.6434 29.2053 35.4531 29.0782C35.2628 28.951 35.1145 28.7703 35.0269 28.5589C34.9393 28.3474 34.9164 28.1148 34.961 27.8903C35.0057 27.6659 35.1159 27.4597 35.2777 27.2978C35.4396 27.136 35.6457 27.0258 35.8702 26.9812C36.0947 26.9365 36.3273 26.9594 36.5388 27.047C36.7502 27.1346 36.9309 27.2829 37.0581 27.4732C37.1852 27.6635 37.2531 27.8872 37.2531 28.1161C37.2531 28.423 37.1312 28.7173 36.9142 28.9343C36.6972 29.1513 36.4028 29.2732 36.0959 29.2732Z" fill="#143441"/>
</svg>
