<svg width="72" height="72" viewBox="0 0 72 72" fill="none" xmlns="http://www.w3.org/2000/svg">
<circle cx="36" cy="36" r="36" fill="#F4F4F4"/>
<g clip-path="url(#clip0)">
<path d="M41.09 36.5707C44.6692 36.5707 47.5707 33.6692 47.5707 30.09C47.5707 26.5109 44.6692 23.6094 41.09 23.6094C37.5109 23.6094 34.6094 26.5109 34.6094 30.09C34.6094 33.6692 37.5109 36.5707 41.09 36.5707Z" fill="#8999A0"/>
<path d="M39.8754 45.5469H30.4785V48.3968H39.8754V45.5469Z" fill="#8999A0"/>
<path d="M49.7003 35.0571C49.5107 34.9033 49.262 34.8432 49.023 34.8935L46.1522 35.4982V35.3243C47.5248 33.9977 48.3799 32.1388 48.3799 30.0837C48.3799 26.0636 45.1093 22.793 41.0892 22.793C38.1137 22.793 35.5494 24.5849 34.4173 27.1459C34.0965 26.6361 33.7063 26.167 33.2525 25.7533C32.012 24.6223 30.4036 23.9994 28.7236 23.9994C25.0162 23.9994 22 27.0156 22 30.723C22 32.6896 22.8488 34.4615 24.199 35.6921V40.5067C24.199 40.9541 24.5618 41.3168 25.0091 41.3168C25.4565 41.3168 25.8192 40.9541 25.8192 40.5067V36.7863C26.6989 37.2094 27.684 37.4468 28.7237 37.4468C29.171 37.4468 29.5337 37.0841 29.5337 36.6367C29.5337 36.1893 29.171 35.8266 28.7237 35.8266C25.9096 35.8266 23.6202 33.5372 23.6202 30.7231C23.6202 27.909 25.9096 25.6196 28.7237 25.6196C31.3549 25.6196 33.5335 27.5862 33.7999 30.1973C33.8608 34.1652 37.107 37.3745 41.0892 37.3745C42.3336 37.3745 43.506 37.0608 44.532 36.5088V41.9784V44.7314H39.8741H30.4771H25.8192V44.0859C25.8192 43.6385 25.4565 43.2758 25.0091 43.2758C24.5618 43.2758 24.199 43.6385 24.199 44.0859V45.5415C24.199 45.9889 24.5618 46.3516 25.0091 46.3516H29.6671V48.3911C29.6671 48.8385 30.0298 49.2012 30.4772 49.2012H39.8741C40.3214 49.2012 40.6841 48.8385 40.6841 48.3911V46.3516H45.3421C45.7894 46.3516 46.1522 45.9889 46.1522 45.5415V42.9769L49.023 43.5817C49.0785 43.5933 49.1344 43.599 49.19 43.599C49.3741 43.599 49.5547 43.5362 49.7003 43.4181C49.89 43.2643 50.0001 43.0331 50.0001 42.789V35.6863C50 35.4421 49.8899 35.211 49.7003 35.0571ZM39.064 47.581H31.2872V46.3516H39.0639V47.581H39.064ZM35.4186 30.0837C35.4186 26.957 37.9624 24.4132 41.0892 24.4132C44.2159 24.4132 46.7597 26.957 46.7597 30.0837C46.7597 33.2105 44.2159 35.7543 41.0892 35.7543C37.9624 35.7543 35.4186 33.2105 35.4186 30.0837ZM48.3798 41.7904L46.1521 41.3211V37.154L48.3798 36.6847V41.7904Z" fill="#143441"/>
<path d="M39.873 42.4932C39.4256 42.4932 39.0629 42.1305 39.0629 41.6831V39.6436H31.2862V41.6831C31.2862 42.1305 30.9234 42.4932 30.4761 42.4932C30.0288 42.4932 29.666 42.1305 29.666 41.6831V38.8335C29.666 38.3861 30.0288 38.0234 30.4761 38.0234H39.873C40.3203 38.0234 40.6831 38.3861 40.6831 38.8335V41.6831C40.6831 42.1305 40.3204 42.4932 39.873 42.4932Z" fill="#143441"/>
</g>
<defs>
<clipPath id="clip0">
<rect x="22" y="22" width="28" height="28" fill="white"/>
</clipPath>
</defs>
</svg>
