<svg width="72" height="72" viewBox="0 0 72 72" fill="none" xmlns="http://www.w3.org/2000/svg">
<circle cx="36" cy="36" r="36" fill="#F4F4F4"/>
<path d="M36.0002 38.4263C31.4715 38.4263 27.7871 34.7419 27.7871 30.2132C27.7871 25.6845 31.4715 22 36.0002 22C40.529 22 44.2134 25.6844 44.2134 30.2131C44.2134 32.816 43.0197 35.2083 40.9384 36.7765C40.6089 37.0246 40.1408 36.9588 39.8927 36.6295C39.6446 36.3002 39.7104 35.832 40.0397 35.5839C41.7431 34.3005 42.7201 32.3429 42.7201 30.2131C42.7201 26.5078 39.7055 23.4933 36.0002 23.4933C32.2949 23.4933 29.2804 26.5078 29.2804 30.2131C29.2804 33.9184 32.2949 36.933 36.0002 36.933C36.4126 36.933 36.7469 37.2673 36.7469 37.6797C36.7469 38.092 36.4126 38.4263 36.0002 38.4263Z" fill="#143441"/>
<path d="M31.8931 30.9593C31.4807 30.9593 31.1465 30.625 31.1465 30.2126C31.1465 27.5365 33.3236 25.3594 35.9997 25.3594C36.4121 25.3594 36.7464 25.6936 36.7464 26.106C36.7464 26.5184 36.4121 26.8527 35.9997 26.8527C34.1471 26.8527 32.6398 28.3599 32.6398 30.2126C32.6398 30.625 32.3055 30.9593 31.8931 30.9593Z" fill="#143441"/>
<path d="M36.0005 41.7873C35.5882 41.7873 35.2539 41.4531 35.2539 41.0407V37.6802C35.2539 37.2678 35.5882 36.9336 36.0005 36.9336C36.4129 36.9336 36.7472 37.2678 36.7472 37.6802V41.0407C36.7472 41.4531 36.4129 41.7873 36.0005 41.7873Z" fill="#143441"/>
<path d="M36.0001 49.2515C34.7218 49.2515 33.6855 48.2152 33.6855 46.9369V40.5156H38.3148V46.9369C38.3147 48.2152 37.2785 49.2515 36.0001 49.2515Z" fill="#8999A0"/>
<path d="M35.9987 49.9987C34.3108 49.9987 32.9375 48.6254 32.9375 46.9375V40.5162C32.9375 40.1038 33.2717 39.7695 33.6841 39.7695H38.3134C38.7258 39.7695 39.06 40.1038 39.06 40.5162V46.9375C39.06 48.6255 37.6868 49.9987 35.9987 49.9987ZM34.4308 41.2628V46.9374C34.4308 47.802 35.1341 48.5054 35.9987 48.5054C36.8633 48.5054 37.5667 47.802 37.5667 46.9374V41.2628H34.4308Z" fill="#143441"/>
</svg>
