<svg width="72" height="72" viewBox="0 0 72 72" fill="none" xmlns="http://www.w3.org/2000/svg">
<circle cx="36" cy="36" r="36" fill="#F4F4F4"/>
<path d="M32.0519 29.9766C30.8392 29.9766 29.8691 30.9467 29.8691 32.1593C29.8691 33.3719 30.8392 34.342 32.0519 34.342C33.2645 34.342 34.2346 33.3719 34.2346 32.1593C34.2346 30.9467 33.2645 29.9766 32.0519 29.9766ZM32.0519 33.0385C31.5668 33.0385 31.1727 32.6444 31.1727 32.1593C31.1727 31.6742 31.5668 31.2801 32.0519 31.2801C32.5369 31.2801 32.931 31.6742 32.931 32.1593C32.931 32.6444 32.5369 33.0385 32.0519 33.0385Z" fill="white"/>
<path d="M38.4503 29.9766C37.2377 29.9766 36.2676 30.9467 36.2676 32.1593C36.2676 33.3719 37.2377 34.342 38.4503 34.342C39.6629 34.342 40.6331 33.3719 40.6331 32.1593C40.6331 30.9467 39.6629 29.9766 38.4503 29.9766ZM38.4503 33.0385C37.9653 33.0385 37.5712 32.6444 37.5712 32.1593C37.5712 31.6742 37.9653 31.2801 38.4503 31.2801C38.9354 31.2801 39.3295 31.6742 39.3295 32.1593C39.3295 32.6444 38.9354 33.0385 38.4503 33.0385Z" fill="white"/>
<path d="M44.8468 34.342C46.0594 34.342 47.0295 33.3719 47.0295 32.1593C47.0295 30.9467 46.0594 29.9766 44.8468 29.9766C43.6342 29.9766 42.6641 30.9467 42.6641 32.1593C42.6641 33.3719 43.6645 34.342 44.8468 34.342ZM44.8468 31.2801C45.3319 31.2801 45.726 31.6742 45.726 32.1593C45.726 32.6444 45.3319 33.0385 44.8468 33.0385C44.3617 33.0385 43.9676 32.6444 43.9676 32.1593C43.998 31.6742 44.3617 31.2801 44.8468 31.2801Z" fill="white"/>
<path d="M32.0519 36.6445C30.8392 36.6445 29.8691 37.6146 29.8691 38.8273C29.8691 40.0399 30.8392 41.01 32.0519 41.01C33.2645 41.01 34.2346 40.0399 34.2346 38.8273C34.2346 37.6146 33.2645 36.6445 32.0519 36.6445ZM32.0519 39.7064C31.5668 39.7064 31.1727 39.3123 31.1727 38.8273C31.1727 38.3422 31.5668 37.9481 32.0519 37.9481C32.5369 37.9481 32.931 38.3422 32.931 38.8273C32.931 39.3123 32.5369 39.7064 32.0519 39.7064Z" fill="white"/>
<path d="M38.4503 36.6445C37.2377 36.6445 36.2676 37.6146 36.2676 38.8273C36.2676 40.0399 37.2377 41.01 38.4503 41.01C39.6629 41.01 40.6331 40.0399 40.6331 38.8273C40.6331 37.6146 39.6629 36.6445 38.4503 36.6445ZM38.4503 39.7064C37.9653 39.7064 37.5712 39.3123 37.5712 38.8273C37.5712 38.3422 37.9653 37.9481 38.4503 37.9481C38.9354 37.9481 39.3295 38.3422 39.3295 38.8273C39.3295 39.3123 38.9354 39.7064 38.4503 39.7064Z" fill="white"/>
<path d="M51.6972 36.7048V23.3659C51.6972 21.7895 50.4239 20.5162 48.8475 20.5162H46.9679V19.9402C46.9679 18.8792 46.0888 18 45.0277 18H44.6033C43.5422 18 42.6631 18.8792 42.6631 19.9402V20.5162H34.205V19.9402C34.205 18.8792 33.3258 18 32.2648 18H31.8403C30.7793 18 29.9001 18.8792 29.9001 19.9402V20.5162H28.0205C26.4744 20.4859 25.2012 21.7895 25.2012 23.3356V41.9495C25.2012 43.5259 26.4744 44.7992 28.0509 44.7992H43.5725C44.6336 46.0118 46.1797 46.8 47.9077 46.8C51.0909 46.8 53.698 44.1928 53.698 41.0097C53.698 39.2817 52.9098 37.7356 51.6972 36.7048ZM44.0273 19.9402C44.0273 19.6067 44.3001 19.3339 44.6336 19.3339H45.058C45.3915 19.3339 45.6643 19.6067 45.6643 19.9402V22.3958C45.6643 22.7293 45.3915 23.0021 45.058 23.0021H44.6336C44.3001 23.0021 44.0273 22.7293 44.0273 22.3958V19.9402ZM31.234 19.9402C31.234 19.6067 31.5069 19.3339 31.8403 19.3339H32.2648C32.5982 19.3339 32.8711 19.6067 32.8711 19.9402V22.3958C32.8711 22.7293 32.5982 23.0021 32.2648 23.0021H31.8403C31.5069 23.0021 31.234 22.7293 31.234 22.3958V19.9402ZM28.0509 21.8198H29.9304V22.3958C29.9304 23.4568 30.8096 24.336 31.8706 24.336H32.2951C33.3561 24.336 34.2353 23.4568 34.2353 22.3958V21.8198H42.754V22.3958C42.754 23.4568 43.6332 24.336 44.6942 24.336H45.1186C46.1797 24.336 47.0589 23.4568 47.0589 22.3958V21.8198H48.8475C49.6963 21.8198 50.3936 22.5171 50.3936 23.3659V26.1853H26.5048V23.3659C26.5048 22.5171 27.202 21.8198 28.0509 21.8198ZM28.0509 43.4956C27.202 43.4956 26.5048 42.7983 26.5048 41.9495V27.4888H50.3633V35.8257C49.6054 35.4619 48.7869 35.2497 47.8774 35.2497C44.6942 35.2497 42.0871 37.8568 42.0871 41.04C42.0871 41.9192 42.2993 42.768 42.6631 43.5259H28.0509V43.4956ZM47.9077 45.4964C45.4521 45.4964 43.4513 43.4956 43.4513 41.04C43.4513 38.5844 45.4521 36.5836 47.9077 36.5836C50.3633 36.5836 52.3641 38.5844 52.3641 41.04C52.3641 43.4956 50.3633 45.4964 47.9077 45.4964Z" fill="white"/>
<path d="M49.091 39.553L47.3024 41.3416L46.5748 40.614C46.3323 40.3715 45.9079 40.3715 45.635 40.614C45.3925 40.8566 45.3925 41.281 45.635 41.5538L46.8173 42.7361C46.9386 42.8574 47.1205 42.918 47.2721 42.918C47.454 42.918 47.6055 42.8574 47.7268 42.7361L49.9702 40.4928C50.2127 40.2503 50.2127 39.8258 49.9702 39.553C49.758 39.3105 49.3639 39.3105 49.091 39.553Z" fill="white"/>
<path d="M28.4503 33.5703C27.2377 33.5703 26.2676 34.5404 26.2676 35.753C26.2676 36.9657 27.2377 37.9358 28.4503 37.9358C29.6629 37.9358 30.6331 36.9657 30.6331 35.753C30.6331 34.5404 29.6629 33.5703 28.4503 33.5703ZM28.4503 36.6322C27.9653 36.6322 27.5712 36.2381 27.5712 35.753C27.5712 35.268 27.9653 34.8739 28.4503 34.8739C28.9354 34.8739 29.3295 35.268 29.3295 35.753C29.3295 36.2381 28.9354 36.6322 28.4503 36.6322Z" fill="#143441"/>
<path d="M34.8488 33.5703C33.6361 33.5703 32.666 34.5404 32.666 35.753C32.666 36.9657 33.6361 37.9358 34.8488 37.9358C36.0614 37.9358 37.0315 36.9657 37.0315 35.753C37.0315 34.5404 36.0614 33.5703 34.8488 33.5703ZM34.8488 36.6322C34.3637 36.6322 33.9696 36.2381 33.9696 35.753C33.9696 35.268 34.3637 34.8739 34.8488 34.8739C35.3338 34.8739 35.7279 35.268 35.7279 35.753C35.7279 36.2381 35.3338 36.6322 34.8488 36.6322Z" fill="#143441"/>
<path d="M41.2452 37.9358C42.4579 37.9358 43.428 36.9657 43.428 35.753C43.428 34.5404 42.4579 33.5703 41.2452 33.5703C40.0326 33.5703 39.0625 34.5404 39.0625 35.753C39.0625 36.9657 40.0629 37.9358 41.2452 37.9358ZM41.2452 34.8739C41.7303 34.8739 42.1244 35.268 42.1244 35.753C42.1244 36.2381 41.7303 36.6322 41.2452 36.6322C40.7602 36.6322 40.3661 36.2381 40.3661 35.753C40.3964 35.268 40.7602 34.8739 41.2452 34.8739Z" fill="#143441"/>
<path d="M28.4503 40.2422C27.2377 40.2422 26.2676 41.2123 26.2676 42.4249C26.2676 43.6376 27.2377 44.6077 28.4503 44.6077C29.6629 44.6077 30.6331 43.6376 30.6331 42.4249C30.6331 41.2123 29.6629 40.2422 28.4503 40.2422ZM28.4503 43.3041C27.9653 43.3041 27.5712 42.91 27.5712 42.4249C27.5712 41.9399 27.9653 41.5458 28.4503 41.5458C28.9354 41.5458 29.3295 41.9399 29.3295 42.4249C29.3295 42.91 28.9354 43.3041 28.4503 43.3041Z" fill="#143441"/>
<path d="M34.8488 40.2422C33.6361 40.2422 32.666 41.2123 32.666 42.4249C32.666 43.6376 33.6361 44.6077 34.8488 44.6077C36.0614 44.6077 37.0315 43.6376 37.0315 42.4249C37.0315 41.2123 36.0614 40.2422 34.8488 40.2422ZM34.8488 43.3041C34.3637 43.3041 33.9696 42.91 33.9696 42.4249C33.9696 41.9399 34.3637 41.5458 34.8488 41.5458C35.3338 41.5458 35.7279 41.9399 35.7279 42.4249C35.7279 42.91 35.3338 43.3041 34.8488 43.3041Z" fill="#143441"/>
<path d="M48.0956 40.3025V26.9636C48.0956 25.3871 46.8223 24.1139 45.2459 24.1139H43.3663V23.5379C43.3663 22.4768 42.4872 21.5977 41.4261 21.5977H41.0017C39.9407 21.5977 39.0615 22.4768 39.0615 23.5379V24.1139H30.6034V23.5379C30.6034 22.4768 29.7242 21.5977 28.6632 21.5977H28.2388C27.1777 21.5977 26.2986 22.4768 26.2986 23.5379V24.1139H24.419C22.8729 24.0836 21.5996 25.3871 21.5996 26.9332V45.5471C21.5996 47.1236 22.8729 48.3968 24.4493 48.3968H39.971C41.032 49.6094 42.5781 50.3977 44.3061 50.3977C47.4893 50.3977 50.0965 47.7905 50.0965 44.6073C50.0965 42.8793 49.3082 41.3332 48.0956 40.3025ZM40.4257 23.5379C40.4257 23.2044 40.6986 22.9316 41.032 22.9316H41.4565C41.7899 22.9316 42.0628 23.2044 42.0628 23.5379V25.9934C42.0628 26.3269 41.7899 26.5998 41.4565 26.5998H41.032C40.6986 26.5998 40.4257 26.3269 40.4257 25.9934V23.5379ZM27.6325 23.5379C27.6325 23.2044 27.9053 22.9316 28.2388 22.9316H28.6632C28.9967 22.9316 29.2695 23.2044 29.2695 23.5379V25.9934C29.2695 26.3269 28.9967 26.5998 28.6632 26.5998H28.2388C27.9053 26.5998 27.6325 26.3269 27.6325 25.9934V23.5379ZM24.4493 25.4174H26.3289V25.9934C26.3289 27.0545 27.208 27.9337 28.2691 27.9337H28.6935C29.7546 27.9337 30.6337 27.0545 30.6337 25.9934V25.4174H39.1525V25.9934C39.1525 27.0545 40.0316 27.9337 41.0927 27.9337H41.5171C42.5781 27.9337 43.4573 27.0545 43.4573 25.9934V25.4174H45.2459C46.0948 25.4174 46.792 26.1147 46.792 26.9636V29.7829H22.9032V26.9636C22.9032 26.1147 23.6005 25.4174 24.4493 25.4174ZM24.4493 47.0932C23.6005 47.0932 22.9032 46.396 22.9032 45.5471V31.0865H46.7617V39.4233C46.0038 39.0596 45.1853 38.8473 44.2758 38.8473C41.0927 38.8473 38.4855 41.4545 38.4855 44.6377C38.4855 45.5168 38.6977 46.3657 39.0615 47.1236H24.4493V47.0932ZM44.3061 49.0941C41.8506 49.0941 39.8497 47.0932 39.8497 44.6377C39.8497 42.1821 41.8506 40.1812 44.3061 40.1812C46.7617 40.1812 48.7626 42.1821 48.7626 44.6377C48.7626 47.0932 46.7617 49.0941 44.3061 49.0941Z" fill="#143441"/>
<path d="M45.4895 43.1506L43.7008 44.9393L42.9732 44.2117C42.7307 43.9692 42.3063 43.9692 42.0335 44.2117C41.7909 44.4542 41.7909 44.8786 42.0335 45.1515L43.2158 46.3338C43.337 46.4551 43.5189 46.5157 43.6705 46.5157C43.8524 46.5157 44.004 46.4551 44.1252 46.3338L46.3686 44.0904C46.6111 43.8479 46.6111 43.4235 46.3686 43.1506C46.1564 42.9081 45.7623 42.9081 45.4895 43.1506Z" fill="#143441"/>
</svg>
