<svg width="72" height="72" viewBox="0 0 72 72" fill="none" xmlns="http://www.w3.org/2000/svg">
<circle cx="36" cy="36" r="36" fill="#F4F4F4"/>
<path d="M50.0176 26.4336C49.7363 26.4336 47.0363 26.4336 47.0926 26.4336V25.3086C47.0926 23.0586 46.1363 20.9773 44.5051 19.5148C44.5613 19.3461 44.6176 19.1211 44.6176 18.9523C44.6176 17.9398 43.8301 17.1523 42.8176 17.1523C41.8051 17.1523 41.0176 17.9398 41.0176 18.9523C41.0176 19.9648 41.8051 20.7523 42.8176 20.7523C43.2113 20.7523 43.5488 20.6398 43.8301 20.4148C45.1801 21.7086 45.9676 23.4523 45.9676 25.3086V26.4336H41.2988V23.9586C41.2988 22.0461 39.7801 20.5273 37.8676 20.5273H34.8863C32.9738 20.5273 31.4551 22.0461 31.4551 23.9586V26.4898C31.2863 26.4898 28.5863 26.4898 28.6426 26.4898C28.3051 26.4898 28.0801 26.7148 28.0801 27.0523C28.0801 27.3898 28.3051 27.6148 28.6426 27.6148H30.5551V47.3586H29.5988C29.2613 47.3586 29.0363 47.5836 29.0363 47.9211V49.8336C29.0363 50.1711 29.2613 50.3961 29.5988 50.3961H49.4551C49.7926 50.3961 50.0176 50.1711 50.0176 49.8336V47.8648C50.0176 47.5273 49.7926 47.3023 49.4551 47.3023H48.4988V27.5586H50.0176C50.3551 27.5586 50.5801 27.3336 50.5801 26.9961C50.5801 26.6586 50.2988 26.4336 50.0176 26.4336ZM42.1426 18.9523C42.1426 18.5586 42.4238 18.2773 42.8176 18.2773C43.2113 18.2773 43.4926 18.5586 43.4926 18.9523C43.4926 19.3461 43.2113 19.6273 42.8176 19.6273C42.4238 19.6273 42.1426 19.2898 42.1426 18.9523ZM32.5801 23.9586C32.5801 22.6648 33.5926 21.6523 34.8863 21.6523H37.8676C39.1613 21.6523 40.1738 22.6648 40.1738 23.9586V26.4898H32.5801V23.9586ZM48.8363 49.2711H30.1613V48.4273C35.7301 48.4273 39.4988 48.4273 48.8926 48.4273V49.2711H48.8363ZM31.6801 47.3023V38.0211H47.3176V47.3023H31.6801ZM47.3176 36.8961H31.6801V27.5586C36.8551 27.5586 41.4676 27.5586 47.3176 27.5586V36.8961Z" fill="white"/>
<path d="M36.4039 20.1359C37.9789 20.1359 39.2727 18.8422 39.2727 17.2672C39.2727 15.6922 37.9789 14.3984 36.4039 14.3984C34.8289 14.3984 33.5352 15.6922 33.5352 17.2672C33.5352 18.8422 34.7727 20.1359 36.4039 20.1359ZM36.4039 15.5234C37.3602 15.5234 38.1477 16.3109 38.1477 17.2672C38.1477 18.2234 37.3602 19.0109 36.4039 19.0109C35.4477 19.0109 34.6602 18.2234 34.6602 17.2672C34.6602 16.3109 35.3914 15.5234 36.4039 15.5234Z" fill="white"/>
<path d="M46.418 30.0352C46.1367 30.0352 43.4367 30.0352 43.493 30.0352V28.9102C43.493 26.6602 42.5367 24.5789 40.9055 23.1164C40.9617 22.9477 41.018 22.7227 41.018 22.5539C41.018 21.5414 40.2305 20.7539 39.218 20.7539C38.2055 20.7539 37.418 21.5414 37.418 22.5539C37.418 23.5664 38.2055 24.3539 39.218 24.3539C39.6117 24.3539 39.9492 24.2414 40.2305 24.0164C41.5805 25.3102 42.368 27.0539 42.368 28.9102V30.0352H37.6992V27.5602C37.6992 25.6477 36.1805 24.1289 34.268 24.1289H31.2867C29.3742 24.1289 27.8555 25.6477 27.8555 27.5602V30.0914C27.6867 30.0914 24.9867 30.0914 25.043 30.0914C24.7055 30.0914 24.4805 30.3164 24.4805 30.6539C24.4805 30.9914 24.7055 31.2164 25.043 31.2164H26.9555V50.9602H25.9992C25.6617 50.9602 25.4367 51.1852 25.4367 51.5227V53.4352C25.4367 53.7727 25.6617 53.9977 25.9992 53.9977H45.8555C46.193 53.9977 46.418 53.7727 46.418 53.4352V51.4664C46.418 51.1289 46.193 50.9039 45.8555 50.9039H44.8992V31.1602H46.418C46.7555 31.1602 46.9805 30.9352 46.9805 30.5977C46.9805 30.2602 46.6992 30.0352 46.418 30.0352ZM38.543 22.5539C38.543 22.1602 38.8242 21.8789 39.218 21.8789C39.6117 21.8789 39.893 22.1602 39.893 22.5539C39.893 22.9477 39.6117 23.2289 39.218 23.2289C38.8242 23.2289 38.543 22.8914 38.543 22.5539ZM28.9805 27.5602C28.9805 26.2664 29.993 25.2539 31.2867 25.2539H34.268C35.5617 25.2539 36.5742 26.2664 36.5742 27.5602V30.0914H28.9805V27.5602ZM45.2367 52.8727H26.5617V52.0289C32.1305 52.0289 35.8992 52.0289 45.293 52.0289V52.8727H45.2367ZM28.0805 50.9039V41.6227H43.718V50.9039H28.0805ZM43.718 40.4977H28.0805V31.1602C33.2555 31.1602 37.868 31.1602 43.718 31.1602V40.4977Z" fill="#143441"/>
<path d="M32.8043 23.7375C34.3793 23.7375 35.673 22.4437 35.673 20.8687C35.673 19.2937 34.3793 18 32.8043 18C31.2293 18 29.9355 19.2937 29.9355 20.8687C29.9355 22.4437 31.173 23.7375 32.8043 23.7375ZM32.8043 19.125C33.7605 19.125 34.548 19.9125 34.548 20.8687C34.548 21.825 33.7605 22.6125 32.8043 22.6125C31.848 22.6125 31.0605 21.825 31.0605 20.8687C31.0605 19.9125 31.7918 19.125 32.8043 19.125Z" fill="#143441"/>
</svg>
