<svg width="72" height="72" viewBox="0 0 72 72" fill="none" xmlns="http://www.w3.org/2000/svg">
<circle cx="36" cy="36" r="36" fill="#F4F4F4"/>
<path d="M25.2477 44.5269C24.8121 44.5269 24.459 44.1738 24.459 43.7382V27.8825C24.459 27.4469 24.8121 27.0938 25.2477 27.0938H46.7525C47.1881 27.0938 47.5413 27.4469 47.5413 27.8825V39.0374C47.5413 39.4731 47.1881 39.8262 46.7525 39.8262C46.3169 39.8262 45.9637 39.4731 45.9637 39.0374V28.6713H26.0364V43.7382C26.0364 44.1738 25.6833 44.5269 25.2477 44.5269Z" fill="#143441"/>
<path d="M31.268 43.8187H25.248V39.7539H29.3357C30.4029 39.7539 31.268 40.6191 31.268 41.6863V43.8187Z" fill="#8999A0"/>
<path d="M31.2677 44.6071H25.2477C24.8121 44.6071 24.459 44.254 24.459 43.8184V39.7536C24.459 39.318 24.8121 38.9648 25.2477 38.9648H29.3354C30.8358 38.9648 32.0565 40.1856 32.0565 41.686V43.8183C32.0564 44.254 31.7033 44.6071 31.2677 44.6071ZM26.0364 43.0297H30.479V41.686C30.479 41.0554 29.9659 40.5424 29.3353 40.5424H26.0364V43.0297Z" fill="#143441"/>
<path d="M27.7966 28.3177C27.3609 28.3177 27.0078 27.9646 27.0078 27.529V22.7966C27.0078 22.3609 27.3609 22.0078 27.7966 22.0078C28.2322 22.0078 28.5853 22.3609 28.5853 22.7966V27.529C28.5853 27.9646 28.2322 28.3177 27.7966 28.3177Z" fill="#143441"/>
<path d="M44.2028 28.3177C43.7672 28.3177 43.4141 27.9646 43.4141 27.529V22.7966C43.4141 22.3609 43.7672 22.0078 44.2028 22.0078C44.6385 22.0078 44.9916 22.3609 44.9916 22.7966V27.529C44.9916 27.9646 44.6385 28.3177 44.2028 28.3177Z" fill="#143441"/>
<path d="M46.8841 29.4859H25.1152C23.8716 29.4859 22.8633 28.4777 22.8633 27.234V27.084C22.8633 25.8403 23.8715 24.832 25.1152 24.832H46.884C48.1276 24.832 49.1359 25.8402 49.1359 27.084V27.234C49.136 28.4777 48.1278 29.4859 46.8841 29.4859Z" fill="#8999A0"/>
<path d="M46.8857 30.2742H25.1168C23.4402 30.2742 22.0762 28.9102 22.0762 27.2336V27.0836C22.0762 25.407 23.4402 24.043 25.1168 24.043H46.8856C48.5622 24.043 49.9262 25.407 49.9262 27.0836V27.2336C49.9263 28.9101 48.5623 30.2742 46.8857 30.2742ZM25.1168 25.6204C24.31 25.6204 23.6536 26.2767 23.6536 27.0835V27.2335C23.6536 28.0404 24.31 28.6967 25.1168 28.6967H46.8856C47.6924 28.6967 48.3488 28.0404 48.3488 27.2335V27.0835C48.3488 26.2767 47.6924 25.6204 46.8856 25.6204H25.1168Z" fill="#143441"/>
<path d="M49.2117 44.6869H48.1364C47.7008 44.6869 47.3477 44.3338 47.3477 43.8981C47.3477 43.4625 47.7008 43.1094 48.1364 43.1094H49.2117C49.6473 43.1094 50.0004 43.4625 50.0004 43.8981C50.0004 44.3338 49.6473 44.6869 49.2117 44.6869Z" fill="#143441"/>
<path d="M45.2173 44.6869H22.7888C22.3531 44.6869 22 44.3338 22 43.8981C22 43.4625 22.3531 43.1094 22.7888 43.1094H45.2173C45.6529 43.1094 46.0061 43.4625 46.0061 43.8981C46.006 44.3338 45.6529 44.6869 45.2173 44.6869Z" fill="#143441"/>
<path d="M35.9997 46.9195C35.5641 46.9195 35.2109 46.5664 35.2109 46.1308V43.9763C35.2109 43.5406 35.5641 43.1875 35.9997 43.1875C36.4353 43.1875 36.7885 43.5406 36.7885 43.9763V46.1308C36.7885 46.5664 36.4353 46.9195 35.9997 46.9195Z" fill="#143441"/>
<path d="M35.9991 49.2012C36.8475 49.2012 37.5352 48.5135 37.5352 47.6651C37.5352 46.8167 36.8475 46.1289 35.9991 46.1289C35.1507 46.1289 34.4629 46.8167 34.4629 47.6651C34.4629 48.5135 35.1507 49.2012 35.9991 49.2012Z" fill="#8999A0"/>
<path d="M36.0007 49.9897C34.7188 49.9897 33.6758 48.9468 33.6758 47.6648C33.6758 46.3828 34.7187 45.3398 36.0007 45.3398C37.2827 45.3398 38.3256 46.3828 38.3256 47.6648C38.3256 48.9468 37.2826 49.9897 36.0007 49.9897ZM36.0007 46.9174C35.5885 46.9174 35.2532 47.2526 35.2532 47.6648C35.2532 48.077 35.5885 48.4123 36.0007 48.4123C36.4129 48.4123 36.7482 48.077 36.7482 47.6648C36.7482 47.2526 36.4129 46.9174 36.0007 46.9174Z" fill="#143441"/>
</svg>
