<svg width="72" height="72" viewBox="0 0 72 72" fill="none" xmlns="http://www.w3.org/2000/svg">
<circle cx="36" cy="36" r="36" fill="#F4F4F4"/>
<g clip-path="url(#clip0)">
<path d="M33.3237 38.1576C32.9279 38.1576 32.607 37.8367 32.607 37.4409V28.7146C32.607 28.3786 32.3337 28.1053 31.9978 28.1053C31.6618 28.1053 31.3885 28.3786 31.3885 28.7146V37.441C31.3885 37.8368 31.0676 38.1577 30.6718 38.1577C30.276 38.1577 29.9551 37.8368 29.9551 37.441V28.7146C29.9551 27.5882 30.8714 26.6719 31.9978 26.6719C33.1241 26.6719 34.0405 27.5882 34.0405 28.7146V37.441C34.0405 37.8368 33.7195 38.1576 33.3237 38.1576Z" fill="#143441"/>
<path d="M28.021 38.1527C27.6252 38.1527 27.3043 37.8318 27.3043 37.436V28.0466C27.3043 27.7107 27.031 27.4374 26.695 27.4374C26.3591 27.4374 26.0858 27.7107 26.0858 28.0466V29.8811C26.0858 30.2769 25.7649 30.5978 25.3691 30.5978C24.9732 30.5978 24.6523 30.2769 24.6523 29.8811V28.0466C24.6523 26.9203 25.5687 26.0039 26.695 26.0039C27.8214 26.0039 28.7377 26.9203 28.7377 28.0466V37.4361C28.7377 37.8318 28.4168 38.1527 28.021 38.1527Z" fill="#143441"/>
<path d="M30.6714 38.1546C30.2755 38.1546 29.9546 37.8337 29.9546 37.4379V26.7224C29.9546 26.3864 29.6814 26.1132 29.3454 26.1132C29.0095 26.1132 28.7362 26.3864 28.7362 26.7224V37.4379C28.7362 37.8337 28.4153 38.1546 28.0195 38.1546C27.6236 38.1546 27.3027 37.8337 27.3027 37.4379V26.7224C27.3027 25.596 28.2191 24.6797 29.3454 24.6797C30.4718 24.6797 31.3881 25.596 31.3881 26.7224V37.4379C31.3881 37.8337 31.0672 38.1546 30.6714 38.1546Z" fill="#143441"/>
<path d="M25.8456 45.3958C25.5839 45.3958 25.3317 45.2518 25.2055 45.0023C24.9432 44.4837 24.5589 44.0253 24.0939 43.6766C22.7828 42.6931 22 41.1274 22 39.4884V33.738C22 32.6117 22.9163 31.6953 24.0427 31.6953C25.169 31.6953 26.0854 32.6117 26.0854 33.738V36.8415C26.0854 37.2373 25.7645 37.5582 25.3686 37.5582C24.9728 37.5582 24.6519 37.2373 24.6519 36.8415V33.738C24.6519 33.4021 24.3786 33.1288 24.0427 33.1288C23.7067 33.1288 23.4335 33.4021 23.4335 33.738V39.4884C23.4335 40.6787 24.0019 41.8157 24.9541 42.5299C25.5943 43.0101 26.1236 43.6414 26.4847 44.3555C26.6633 44.7087 26.5218 45.1399 26.1685 45.3185C26.0648 45.371 25.9544 45.3958 25.8456 45.3958Z" fill="#143441"/>
<path d="M35.9761 38.1529C35.5802 38.1529 35.2593 37.832 35.2593 37.4362V30.6989C35.2593 30.363 34.9861 30.0897 34.6501 30.0897C34.3142 30.0897 34.0409 30.363 34.0409 30.6989V37.4362C34.0409 37.8321 33.72 38.153 33.3242 38.153C32.9283 38.153 32.6074 37.8321 32.6074 37.4362V30.6989C32.6074 29.5726 33.5238 28.6562 34.6501 28.6562C35.7765 28.6562 36.6928 29.5726 36.6928 30.6989V37.4362C36.6928 37.8321 36.3719 38.1529 35.9761 38.1529Z" fill="#143441"/>
<path d="M41.3276 38.1576C40.9318 38.1576 40.6109 37.8367 40.6109 37.4409V28.7146C40.6109 28.3786 40.3376 28.1053 40.0017 28.1053C39.6657 28.1053 39.3925 28.3786 39.3925 28.7146V37.441C39.3925 37.8368 39.0715 38.1577 38.6757 38.1577C38.2799 38.1577 37.959 37.8368 37.959 37.441V28.7146C37.959 27.5882 38.8753 26.6719 40.0017 26.6719C41.128 26.6719 42.0444 27.5882 42.0444 28.7146V37.441C42.0444 37.8368 41.7235 38.1576 41.3276 38.1576Z" fill="#143441"/>
<path d="M43.9785 38.1527C43.5826 38.1527 43.2617 37.8318 43.2617 37.436V28.0466C43.2617 26.9203 44.1781 26.0039 45.3044 26.0039C46.4308 26.0039 47.3471 26.9203 47.3471 28.0466V29.8811C47.3471 30.2769 47.0262 30.5978 46.6304 30.5978C46.2345 30.5978 45.9136 30.2769 45.9136 29.8811V28.0466C45.9136 27.7107 45.6404 27.4374 45.3044 27.4374C44.9685 27.4374 44.6952 27.7107 44.6952 28.0466V37.4361C44.6952 37.8318 44.3743 38.1527 43.9785 38.1527Z" fill="#143441"/>
<path d="M43.98 38.1546C43.5841 38.1546 43.2632 37.8337 43.2632 37.4379V26.7224C43.2632 26.3864 42.99 26.1132 42.654 26.1132C42.3181 26.1132 42.0448 26.3864 42.0448 26.7224V37.4379C42.0448 37.8337 41.7239 38.1546 41.3281 38.1546C40.9322 38.1546 40.6113 37.8337 40.6113 37.4379V26.7224C40.6113 25.596 41.5277 24.6797 42.654 24.6797C43.7804 24.6797 44.6967 25.596 44.6967 26.7224V37.4379C44.6967 37.8337 44.3759 38.1546 43.98 38.1546Z" fill="#143441"/>
<path d="M46.1538 45.3959C46.045 45.3959 45.9346 45.3711 45.831 45.3186C45.4777 45.14 45.3362 44.7088 45.5148 44.3556C45.8759 43.6414 46.4051 43.0102 47.0454 42.5298C47.9975 41.8157 48.566 40.6787 48.566 39.4884V33.738C48.566 33.4021 48.2927 33.1288 47.9568 33.1288C47.6209 33.1288 47.3476 33.4021 47.3476 33.738V36.8415C47.3476 37.2373 47.0267 37.5583 46.6308 37.5583C46.235 37.5583 45.9141 37.2373 45.9141 36.8415V33.738C45.9141 32.6117 46.8305 31.6953 47.9568 31.6953C49.0831 31.6953 49.9995 32.6117 49.9995 33.738V39.4884C49.9995 41.1274 49.2167 42.6931 47.9056 43.6766C47.4406 44.0253 47.0563 44.4838 46.794 45.0024C46.6678 45.252 46.4155 45.3959 46.1538 45.3959Z" fill="#143441"/>
<path d="M38.6753 38.1529C38.2795 38.1529 37.9585 37.832 37.9585 37.4362V30.6989C37.9585 30.363 37.6853 30.0897 37.3493 30.0897C37.0134 30.0897 36.7401 30.363 36.7401 30.6989V37.4362C36.7401 37.8321 36.4192 38.153 36.0234 38.153C35.6275 38.153 35.3066 37.8321 35.3066 37.4362V30.6989C35.3066 29.5726 36.223 28.6562 37.3493 28.6562C38.4757 28.6562 39.392 29.5726 39.392 30.6989V37.4362C39.392 37.8321 39.0712 38.1529 38.6753 38.1529Z" fill="#143441"/>
<path d="M39.5097 32.5782C37.4143 32.5782 36.4741 33.7527 36.1043 34.4425C36.0578 34.5292 35.9317 34.529 35.8853 34.4424C35.5167 33.7524 34.5818 32.5781 32.4865 32.5781C30.0996 32.5781 28 34.2075 28 37.1828C28 38.3868 28.2453 39.4182 28.9264 40.5693C30.3141 42.915 34.8858 45.956 35.8248 46.5553C35.9286 46.6215 36.0601 46.6217 36.1641 46.5557C37.1039 45.9593 41.6764 42.9334 43.075 40.5693C43.756 39.4182 43.9997 38.3868 43.9997 37.1828C43.9995 34.2075 41.8965 32.5782 39.5097 32.5782Z" fill="#8999A0"/>
<path d="M35.9948 47.3238C35.7977 47.3238 35.6057 47.2677 35.4392 47.1614C34.8725 46.7998 29.8571 43.5522 28.3094 40.9362C27.5997 39.7365 27.2832 38.5796 27.2832 37.1847C27.2832 35.5816 27.8269 34.2197 28.8554 33.2461C29.7975 32.3544 31.087 31.8633 32.4864 31.8633C34.2899 31.8633 35.3728 32.6158 35.9994 33.3479C36.6091 32.6496 37.6981 31.8633 39.5097 31.8633C40.9093 31.8633 42.1993 32.3543 43.1422 33.2458C44.1721 34.2196 44.7164 35.5816 44.7164 37.1847C44.7164 38.5815 44.4004 39.7384 43.6919 40.9362C42.1328 43.5717 37.1151 46.803 36.5481 47.1628C36.3822 47.268 36.1908 47.3238 35.9948 47.3238ZM32.4865 33.2967C30.6101 33.2967 28.7167 34.4989 28.7167 37.1847C28.7167 38.3234 28.9639 39.227 29.5432 40.2062C30.7994 42.3297 34.9848 45.1517 35.996 45.8141C37.9849 44.5294 41.3705 42.0445 42.4581 40.2062C43.0362 39.229 43.2829 38.3254 43.2829 37.1847C43.2829 34.4989 41.3878 33.2967 39.5096 33.2967C37.8758 33.2967 37.0994 34.105 36.7358 34.7831C36.5894 35.0563 36.3054 35.226 35.9949 35.226C35.6836 35.226 35.3995 35.0558 35.2531 34.7818C34.8912 34.1044 34.1173 33.2967 32.4865 33.2967Z" fill="#143441"/>
</g>
<defs>
<clipPath id="clip0">
<rect x="22" y="22" width="28" height="28" fill="white"/>
</clipPath>
</defs>
</svg>
